<svg width="1376" height="1376" viewBox="0 0 1376 1376" fill="none" xmlns="http://www.w3.org/2000/svg">
<rect x="326.855" y="517.182" width="93.0563" height="202.236" rx="46.5282" fill="#2176E4"/>
<rect x="411.16" y="907.834" width="141.888" height="148.337" rx="59" fill="#2176E4"/>
<rect x="956.139" y="517.182" width="93.0563" height="202.236" rx="46.5282" fill="#2176E4"/>
<rect x="825" y="908" width="142" height="148" rx="59" fill="#2176E4"/>
<path d="M763.453 334.754C890.479 334.754 993.453 437.728 993.453 564.754V955.282H382.598V564.754C382.598 437.729 485.572 334.754 612.598 334.754H763.453ZM482.334 792.204C453.203 792.204 429.587 815.82 429.587 844.951C429.587 874.083 453.203 897.698 482.334 897.698C511.465 897.698 535.081 874.083 535.081 844.951C535.081 815.82 511.466 792.204 482.334 792.204ZM903.391 792.204C874.259 792.204 850.644 815.82 850.644 844.951C850.644 874.082 874.259 897.698 903.391 897.698C932.522 897.698 956.139 874.083 956.139 844.951C956.139 815.82 932.522 792.204 903.391 792.204ZM438.34 719.417H651.632V470.191H438.34V719.417ZM730.868 719.417H944.161V470.191H730.868V719.417Z" fill="#2176E4"/>
<path d="M687.941 0C1067.88 0 1375.88 308.002 1375.88 687.941C1375.88 1067.88 1067.88 1375.88 687.941 1375.88C308.002 1375.88 0 1067.88 0 687.941C0 308.002 308.002 0 687.941 0ZM688.129 129.764C379.961 129.764 130.141 379.584 130.141 687.753C130.141 995.921 379.961 1245.74 688.129 1245.74C996.297 1245.74 1246.12 995.921 1246.12 687.753C1246.12 379.584 996.297 129.764 688.129 129.764Z" fill="#2176E4"/>
<path d="M262.5 1135.5L1089.5 224" stroke="#2176E4" stroke-width="97"/>
</svg>
