<svg width="190" height="234" viewBox="0 0 190 234" fill="none" xmlns="http://www.w3.org/2000/svg">
<path d="M8.95703 2.56934C12.999 0.30635 17.4136 -0.152595 20.4658 0.0390625C64.1627 0.206107 153.984 0.436243 166.994 0.0419922C174.825 -0.195219 180.989 1.69568 185.1 5.71094C188.956 9.47825 190.069 14.2279 189.721 17.957V202.538C189.721 205.081 189.295 208.873 188.094 212.805C186.906 216.693 184.748 221.413 180.808 225.05C177.398 228.197 173.369 229.156 169.454 228.541C166.198 228.029 163.245 226.441 161.274 225.35C156.432 222.668 153.813 221.039 150.721 221.039C147.906 221.039 145.438 222.487 140.608 225.752C136.433 228.575 130.1 233.039 121.721 233.039C113.371 233.039 106.881 228.656 102.646 225.666C100.246 223.972 98.6995 222.804 97.1426 221.899C95.6292 221.021 95.1347 221.039 95.2207 221.039C94.809 221.039 93.4342 221.277 90.7949 222.282C88.3616 223.209 85.5744 224.495 82.5869 225.927C79.717 227.302 76.5575 228.863 73.8096 230.09C71.2393 231.237 68.1077 232.529 65.3613 232.951C62.1011 233.453 58.7341 232.487 56.4551 231.689C53.849 230.777 51.0692 229.483 48.4434 228.121C44.2464 225.945 40.0064 223.363 36.7637 221.246C36.2396 221.352 35.5598 221.508 34.7139 221.746C32.1352 222.471 28.4115 223.829 23.5752 226.247C19.6127 228.228 15.117 228.931 10.8291 227.039C6.83282 225.275 4.53185 221.901 3.22266 219.12C0.683963 213.727 0.146184 206.924 0.220703 202.56L0.15625 178.371C0.00521766 116.843 -0.130997 25.1141 0.228516 17.1982C0.554003 10.0376 4.27197 5.19245 8.95703 2.56934ZM19.5977 15.0127C19.2325 14.9823 18.6236 14.9877 17.9395 15.1084C17.2584 15.2286 16.693 15.429 16.2852 15.6572C15.9072 15.8688 15.7175 16.0709 15.6025 16.251C15.4997 16.4122 15.2593 16.8587 15.2129 17.8789C14.8238 26.4425 15.0535 144.317 15.2207 202.517V202.607L15.2188 202.698C15.1449 206.176 15.6766 210.358 16.7939 212.731C16.8114 212.769 16.8309 212.804 16.8477 212.838C16.8536 212.835 16.8611 212.833 16.8672 212.83C22.4302 210.049 27.0396 208.323 30.6523 207.307C34.017 206.36 37.102 205.861 39.3994 206.069L41.3447 206.246L42.9561 207.349C45.9442 209.393 50.7537 212.423 55.3486 214.806C57.6557 216.002 59.7383 216.946 61.4111 217.531C62.5685 217.936 63.1665 218.038 63.3369 218.071C63.9947 217.909 65.3785 217.427 67.6943 216.394C70.1961 215.277 72.9748 213.9 76.1045 212.4C79.1166 210.957 82.3926 209.431 85.459 208.264C88.3196 207.175 91.8826 206.039 95.2207 206.039C99.0566 206.039 102.312 207.557 104.674 208.928C106.992 210.274 109.446 212.105 111.296 213.411C115.561 216.422 118.57 218.039 121.721 218.039C124.841 218.039 127.508 216.502 132.208 213.325C136.253 210.59 142.536 206.039 150.721 206.039C158.628 206.039 165.259 210.409 168.542 212.228C169.816 212.933 170.622 213.314 171.13 213.517C172.179 212.331 173.088 210.582 173.748 208.422C174.497 205.971 174.721 203.662 174.721 202.538V17.0059L174.771 16.6475C174.755 16.6117 174.714 16.5363 174.617 16.4414C174.403 16.2317 172.817 14.8725 167.448 15.0352C154.08 15.4403 63.5764 15.2043 20.1924 15.0381L19.8945 15.0371L19.5977 15.0127ZM134.604 41.0381C144.055 41.0382 151.717 48.9877 151.717 58.7939V75.8955H157.571C159.996 75.8956 161.961 77.9347 161.961 80.4502V109.983C161.961 112.499 159.996 114.538 157.571 114.538H151.717V159.606H146.893V174.329C146.892 176.844 144.926 178.884 142.502 178.884H125.208C122.784 178.884 120.819 176.844 120.818 174.329V159.606H70.7871V174.329C70.7871 176.845 68.8211 178.884 66.3965 178.884H49.1025C46.6781 178.884 44.7129 176.845 44.7129 174.329V159.606H39.4639V114.538H33.6104C31.186 114.538 29.2208 112.499 29.2207 109.983V80.4502C29.2208 77.9349 31.186 75.8958 33.6104 75.8955H39.4639V58.7939C39.464 48.9877 47.1264 41.0381 56.5781 41.0381H134.604ZM57.792 128.446C52.4387 128.446 48.0987 132.958 48.0986 138.524C48.0986 144.091 52.4387 148.603 57.792 148.604C63.1453 148.604 67.4854 144.091 67.4854 138.524C67.4853 132.958 63.1453 128.446 57.792 128.446ZM135.167 128.446C129.814 128.446 125.475 132.958 125.475 138.524C125.475 144.09 129.813 148.603 135.167 148.604C140.521 148.604 144.86 144.091 144.86 138.524C144.86 132.958 140.521 128.446 135.167 128.446ZM49.707 114.538H88.9033V66.917H49.707V114.538ZM103.464 114.538H142.659V66.917H103.464V114.538Z" fill="#021F53"/>
</svg>
