<svg width="412" height="471" viewBox="0 0 412 471" fill="none" xmlns="http://www.w3.org/2000/svg">
<path d="M270.146 429.06C258.568 453.906 234.4 470.999 206.461 470.999C178.522 470.999 154.354 453.906 142.776 429.06H270.146ZM212.914 0L224.205 3.22559C225.818 3.76348 230.98 7.42048 238.722 17.7432C246.464 28.0661 247.324 34.948 246.786 37.0986V61.2939C254.851 63.9822 277.111 74.197 301.628 93.5527C332.275 117.747 338.726 148.394 343.565 164.524C348.404 180.654 346.791 214.527 348.404 261.304C349.695 298.725 381.202 345.717 396.794 364.535C401.633 369.374 411.311 380.987 411.312 388.729C411.312 396.472 403.784 400.558 400.021 401.634H11.291C7.52738 400.558 0 396.472 0 388.729C4.36601e-05 380.987 9.67757 369.374 14.5166 364.535C30.1088 345.717 61.6158 298.725 62.9062 261.304C64.5192 214.527 62.9062 180.654 67.7451 164.524C72.5841 148.395 79.0359 117.747 109.683 93.5527C134.2 74.1969 156.459 63.9813 164.524 61.293V37.0986C163.987 34.948 164.847 28.066 172.589 17.7432C180.331 7.42005 185.493 3.76325 187.106 3.22559L198.397 0H212.914ZM205.655 27.5391C201.172 28.2898 193.559 31.0288 193.559 37.0986V56.4541H217.753V37.0986C217.753 31.0286 210.138 28.2898 205.655 27.5391Z" fill="#EBEBEB"/>
</svg>
