<svg width="327" height="70" viewBox="0 0 327 70" fill="none" xmlns="http://www.w3.org/2000/svg">
<rect width="327" height="70" rx="35" fill="#1D5CAE"/>
<path d="M65.9858 33.5653C65.9176 32.8778 65.625 32.3437 65.108 31.9631C64.5909 31.5824 63.8892 31.392 63.0028 31.392C62.4006 31.392 61.892 31.4773 61.4773 31.6477C61.0625 31.8125 60.7443 32.0426 60.5227 32.3381C60.3068 32.6335 60.1989 32.9688 60.1989 33.3438C60.1875 33.6562 60.2528 33.929 60.3949 34.1619C60.5426 34.3949 60.7443 34.5966 61 34.767C61.2557 34.9318 61.5511 35.0767 61.8864 35.2017C62.2216 35.321 62.5795 35.4233 62.9602 35.5085L64.5284 35.8835C65.2898 36.054 65.9886 36.2812 66.625 36.5653C67.2614 36.8494 67.8125 37.1989 68.2784 37.6136C68.7443 38.0284 69.1051 38.517 69.3608 39.0795C69.6222 39.642 69.7557 40.2869 69.7614 41.0142C69.7557 42.0824 69.483 43.0085 68.9432 43.7926C68.4091 44.571 67.6364 45.1761 66.625 45.608C65.6193 46.0341 64.4063 46.2472 62.9858 46.2472C61.5767 46.2472 60.3494 46.0312 59.304 45.5994C58.2642 45.1676 57.4517 44.5284 56.8665 43.6818C56.2869 42.8295 55.983 41.7756 55.9545 40.5199H59.5256C59.5653 41.1051 59.733 41.5937 60.0284 41.9858C60.3295 42.3722 60.7301 42.6648 61.2301 42.8636C61.7358 43.0568 62.3068 43.1534 62.9432 43.1534C63.5682 43.1534 64.1108 43.0625 64.571 42.8807C65.0369 42.6989 65.3977 42.446 65.6534 42.1222C65.9091 41.7983 66.0369 41.4261 66.0369 41.0057C66.0369 40.6136 65.9205 40.2841 65.6875 40.017C65.4602 39.75 65.125 39.5227 64.6818 39.3352C64.2443 39.1477 63.7074 38.9773 63.071 38.8239L61.1705 38.3466C59.6989 37.9886 58.5369 37.429 57.6847 36.6676C56.8324 35.9062 56.4091 34.8807 56.4148 33.5909C56.4091 32.5341 56.6903 31.6108 57.2585 30.821C57.8324 30.0312 58.6193 29.4148 59.6193 28.9716C60.6193 28.5284 61.7557 28.3068 63.0284 28.3068C64.3239 28.3068 65.4545 28.5284 66.4205 28.9716C67.392 29.4148 68.1477 30.0312 68.6875 30.821C69.2273 31.6108 69.5057 32.5256 69.5227 33.5653H65.9858ZM71.5788 31.5881V28.5455H85.9141V31.5881H80.5703V46H76.9226V31.5881H71.5788ZM89.1506 46H85.196L91.2216 28.5455H95.9773L101.994 46H98.0398L93.6676 32.5341H93.5312L89.1506 46ZM88.9034 39.1392H98.2443V42.0199H88.9034V39.1392ZM104.095 46V28.5455H110.982C112.3 28.5455 113.425 28.7812 114.357 29.2528C115.294 29.7187 116.007 30.3807 116.496 31.2386C116.99 32.0909 117.237 33.0937 117.237 34.2472C117.237 35.4062 116.987 36.4034 116.487 37.2386C115.987 38.0682 115.263 38.7045 114.314 39.1477C113.371 39.5909 112.229 39.8125 110.888 39.8125H106.277V36.8466H110.291C110.996 36.8466 111.581 36.75 112.047 36.5568C112.513 36.3636 112.859 36.0739 113.087 35.6875C113.32 35.3011 113.436 34.821 113.436 34.2472C113.436 33.6676 113.32 33.179 113.087 32.7812C112.859 32.3835 112.51 32.0824 112.038 31.8778C111.572 31.6676 110.984 31.5625 110.274 31.5625H107.786V46H104.095ZM113.521 38.0568L117.859 46H113.786L109.541 38.0568H113.521ZM119.18 31.5881V28.5455H133.516V31.5881H128.172V46H124.524V31.5881H119.18ZM140.766 31.5881V28.5455H155.102V31.5881H149.758V46H146.11V31.5881H140.766ZM157.462 46V28.5455H164.349C165.667 28.5455 166.792 28.7812 167.724 29.2528C168.661 29.7187 169.374 30.3807 169.863 31.2386C170.357 32.0909 170.604 33.0937 170.604 34.2472C170.604 35.4062 170.354 36.4034 169.854 37.2386C169.354 38.0682 168.63 38.7045 167.681 39.1477C166.738 39.5909 165.596 39.8125 164.255 39.8125H159.644V36.8466H163.658C164.363 36.8466 164.948 36.75 165.414 36.5568C165.88 36.3636 166.227 36.0739 166.454 35.6875C166.687 35.3011 166.803 34.821 166.803 34.2472C166.803 33.6676 166.687 33.179 166.454 32.7812C166.227 32.3835 165.877 32.0824 165.406 31.8778C164.94 31.6676 164.352 31.5625 163.641 31.5625H161.153V46H157.462ZM166.888 38.0568L171.227 46H167.153L162.908 38.0568H166.888ZM176.221 46H172.266L178.292 28.5455H183.048L189.065 46H185.11L180.738 32.5341H180.602L176.221 46ZM175.974 39.1392H185.315V42.0199H175.974V39.1392ZM205.746 34.6562H202.013C201.945 34.1733 201.805 33.7443 201.595 33.3693C201.385 32.9886 201.115 32.6648 200.786 32.3977C200.456 32.1307 200.075 31.9261 199.643 31.7841C199.217 31.642 198.754 31.571 198.254 31.571C197.351 31.571 196.564 31.7955 195.893 32.2443C195.223 32.6875 194.703 33.3352 194.334 34.1875C193.964 35.0341 193.78 36.0625 193.78 37.2727C193.78 38.517 193.964 39.5625 194.334 40.4091C194.709 41.2557 195.232 41.8949 195.902 42.3267C196.572 42.7585 197.348 42.9744 198.229 42.9744C198.723 42.9744 199.18 42.9091 199.601 42.7784C200.027 42.6477 200.405 42.4574 200.734 42.2074C201.064 41.9517 201.337 41.642 201.553 41.2784C201.774 40.9148 201.928 40.5 202.013 40.0341L205.746 40.0511C205.649 40.8523 205.408 41.625 205.021 42.3693C204.641 43.108 204.126 43.7699 203.479 44.3551C202.837 44.9347 202.07 45.3949 201.178 45.7358C200.291 46.071 199.288 46.2386 198.169 46.2386C196.612 46.2386 195.22 45.8864 193.993 45.1818C192.771 44.4773 191.805 43.4574 191.095 42.1222C190.391 40.7869 190.038 39.1705 190.038 37.2727C190.038 35.3693 190.396 33.75 191.112 32.4148C191.828 31.0795 192.8 30.0625 194.027 29.3636C195.254 28.6591 196.635 28.3068 198.169 28.3068C199.18 28.3068 200.118 28.4489 200.982 28.733C201.851 29.017 202.621 29.4318 203.291 29.9773C203.962 30.517 204.507 31.179 204.928 31.9631C205.354 32.7472 205.626 33.6449 205.746 34.6562ZM208.392 46V28.5455H212.082V36.2415H212.312L218.594 28.5455H223.017L216.54 36.3608L223.094 46H218.679L213.898 38.8239L212.082 41.0398V46H208.392ZM228.629 28.5455V46H224.939V28.5455H228.629ZM246.265 28.5455V46H243.077L235.484 35.0142H235.356V46H231.665V28.5455H234.904L242.438 39.5227H242.592V28.5455H246.265ZM260.888 34.1875C260.768 33.7727 260.601 33.4062 260.385 33.0881C260.169 32.7642 259.905 32.4915 259.592 32.2699C259.286 32.0426 258.933 31.8693 258.536 31.75C258.143 31.6307 257.709 31.571 257.232 31.571C256.339 31.571 255.555 31.7926 254.879 32.2358C254.209 32.679 253.686 33.3239 253.311 34.1705C252.936 35.0114 252.749 36.0398 252.749 37.2557C252.749 38.4716 252.933 39.5057 253.303 40.358C253.672 41.2102 254.195 41.8608 254.871 42.3097C255.547 42.7528 256.345 42.9744 257.266 42.9744C258.101 42.9744 258.814 42.8267 259.405 42.5312C260.001 42.2301 260.456 41.8068 260.768 41.2614C261.087 40.7159 261.246 40.071 261.246 39.3267L261.996 39.4375H257.496V36.6591H264.8V38.858C264.8 40.392 264.476 41.7102 263.828 42.8125C263.18 43.9091 262.288 44.7557 261.152 45.3523C260.016 45.9432 258.714 46.2386 257.249 46.2386C255.612 46.2386 254.175 45.8778 252.936 45.1562C251.697 44.429 250.732 43.3977 250.038 42.0625C249.351 40.7216 249.007 39.1307 249.007 37.2898C249.007 35.875 249.212 34.6136 249.621 33.5057C250.036 32.392 250.615 31.4489 251.359 30.6761C252.104 29.9034 252.97 29.3153 253.959 28.9119C254.947 28.5085 256.018 28.3068 257.172 28.3068C258.161 28.3068 259.081 28.4517 259.933 28.7415C260.786 29.0256 261.541 29.429 262.2 29.9517C262.865 30.4744 263.408 31.0966 263.828 31.8182C264.249 32.5341 264.518 33.3239 264.638 34.1875H260.888Z" fill="white"/>
</svg>
