<svg width="337" height="463" viewBox="0 0 337 463" fill="none" xmlns="http://www.w3.org/2000/svg">
<path d="M7.5 128.979C12.2294 128.979 14.4558 132.916 14.9824 134.847L15 134.911V328.479H117.077L117.151 328.502C119.008 329.093 122.057 330.252 125.198 331.818C128.332 333.381 131.597 335.368 133.854 337.625C136.113 339.885 138.101 343.236 139.663 346.474C141.229 349.719 142.388 352.893 142.979 354.833L143 354.904V457.097L142.947 457.202C142.511 458.074 141.682 459.371 140.591 460.458C139.51 461.535 138.097 462.479 136.5 462.479C134.919 462.479 133.346 461.549 132.068 460.488C130.774 459.414 129.695 458.129 129.091 457.266L129 457.136V357.506C128.919 356.641 128.607 355.178 127.93 353.643C127.248 352.097 126.21 350.512 124.7 349.379C121.608 347.06 118.26 345.179 116.878 344.479H15V456.587L14.9551 456.686C14.5161 457.651 13.632 459.081 12.3838 460.277C11.1365 461.472 9.47693 462.479 7.5 462.479C5.52307 462.479 3.86346 461.472 2.61621 460.277C1.36803 459.081 0.483871 457.651 0.0449219 456.686L0 456.587V456.478L0.5 134.978V134.933L0.507812 134.889C0.688667 133.894 1.24936 132.43 2.35352 131.206C3.47054 129.967 5.14263 128.979 7.5 128.979ZM71.5068 117.479C99.2404 117.876 111.187 131.644 113.854 138.977L113.974 139.321L113.978 139.33L113.979 139.34L118.479 154.84L118.5 154.908V225.44C119.158 230.447 123.956 240.698 138.027 241.479C152.403 242.278 167.983 241.812 173.972 241.479L174.006 241.478L174.04 241.48C181.377 242.071 192.38 245.303 201.609 253.084C210.856 260.881 218.298 273.226 218.5 291.974C218.9 329.178 218.667 388.149 218.5 412.982V413.008L218.497 413.033C218.155 416.196 216.699 420.942 213.438 424.957C210.162 428.989 205.071 432.274 197.514 432.479C182.468 432.885 174.274 423.157 172.044 418.184L172.021 418.133L172.01 418.078L155.01 334.078L154.998 334.022L155 333.967C155.08 330.765 153.779 325.902 149.565 321.839C145.36 317.783 138.204 314.48 126.5 314.479H55.9639L55.9277 314.474C52.4401 313.963 47.0622 312.236 42.1943 308.709C37.3175 305.175 32.9358 299.821 31.5078 292.069C30.7994 288.223 30.3556 280.282 30.0996 269.978C29.8432 259.657 29.7752 246.923 29.8252 233.465C29.9252 206.548 30.4999 176.718 31 157.466L31.001 157.441L31.0039 157.417C31.8457 150.683 34.8708 140.619 41.2266 132.276C47.5959 123.916 57.3202 117.277 71.5068 117.479ZM233.288 7.9873C267.689 -9.96656 310.131 3.36581 328.085 37.7666C346.039 72.1674 332.705 114.61 298.305 132.563C263.904 150.517 221.462 137.184 203.508 102.783C185.554 68.3825 198.887 25.9412 233.288 7.9873ZM78.5 11.4785C105.286 11.4785 127 33.1927 127 59.9785C127 86.7643 105.286 108.479 78.5 108.479C51.7142 108.479 30 86.7643 30 59.9785C30 33.1927 51.7142 11.4785 78.5 11.4785ZM264.5 21.9785C261.753 21.9785 259.979 23.0438 258.905 24.4209C257.849 25.7752 257.5 27.39 257.5 28.4785L256.5 73.4678L256.496 73.6699L256.633 73.8184L275.133 93.8184L275.22 93.9121L275.342 93.9531C276.93 94.4824 280.839 94.9177 283.825 92.3584C286.868 89.7506 286.17 86.2002 285.447 84.7549L285.423 84.7061L285.388 84.6631L272.5 68.8008V28.4375L272.493 28.3965C272.312 27.3105 271.698 25.7155 270.438 24.3848C269.165 23.0399 267.244 21.9785 264.5 21.9785Z" fill="#1E3B8B"/>
</svg>
