<svg width="142" height="53" viewBox="0 0 142 53" fill="none" xmlns="http://www.w3.org/2000/svg">
<path d="M41.5615 27.833C40.8479 27.833 39.206 29.1184 38.3496 34.2568C37.4934 39.3947 40.8477 37.1113 42.6318 35.3271L45.8438 28.9043L50.125 31.0449L46.9141 38.5381L44.7725 43.8906C44.0588 45.318 42.417 48.3877 41.5605 49.2441C40.4898 50.3148 38.3494 52.4549 36.209 52.4551C34.0683 52.4551 31.927 52.455 30.8564 51.3848C30 50.5284 31.9266 48.1731 32.9971 47.1025L37.2793 44.9619C38.9921 44.1055 38.7064 43.1771 38.3496 42.8203C37.6359 42.8203 35.9941 42.6064 35.1377 41.75C34.0674 40.6796 34.0674 39.6087 34.0674 35.3271C34.0674 31.9015 36.2088 27.4766 37.2793 25.6924L41.5615 27.833ZM16.1289 1.67676C17.281 1.61326 18.4394 1.6259 19.4824 1.76758C20.5181 1.90828 21.4826 2.18194 22.2148 2.66992C25.5491 4.89277 27.7392 8.21478 29.8955 13.6055C30.8067 15.8835 30.6088 18.2371 30.0176 20.2236C29.4958 21.9763 28.6566 23.4771 27.9512 24.4502L31.9258 28.4248L32.0088 28.5088L32.0459 28.6201C32.4125 29.7201 33.1424 32.5598 33.1426 35.2012C33.1426 38.5297 32.0311 41.8366 29.8467 45.1133C28.8965 46.5385 26.9786 47.5657 25.083 48.2754C23.1614 48.9948 21.1451 49.4307 19.8672 49.6133L19.832 49.6182H3.27539L3.24023 49.1553L0.0283203 6.33496L0 5.94629L0.369141 5.82324L10.0039 2.6123L10.0225 2.60547L10.041 2.60156C11.4923 2.23878 13.8254 1.80376 16.1289 1.67676ZM132.764 24.1221C135.104 24.1222 137.1 25.4845 138.613 27.0889C140.133 28.7003 141.233 30.6268 141.787 31.9189L141.827 32.0127V41.8281L141.804 41.9033C141.445 43.0188 140.602 44.6677 139.227 46.0518C137.921 47.3645 136.118 48.4535 133.786 48.5947L133.778 48.6699C133.62 48.6523 133.454 48.6307 133.283 48.6055C131.575 48.3532 129.212 47.703 127.262 46.4697C125.306 45.2329 123.699 43.3607 123.699 40.6797V32.0127L123.739 31.9189C124.293 30.6269 125.394 28.7003 126.913 27.0889C128.426 25.4844 130.423 24.1223 132.764 24.1221ZM95.2598 33.2754C95.6166 30.4208 97.4007 24.9251 101.683 25.7812C107.035 26.8517 108.105 28.9929 108.105 30.0635V34.3457L100.612 35.416C100.255 36.8433 99.97 39.698 101.683 39.6982C103.823 39.6982 104.894 39.6983 105.965 38.6279C106.38 38.2128 106.812 37.9482 107.188 37.7861L109.177 40.7686C107.749 42.9095 103.824 46.7633 99.542 45.0508C95.2601 43.338 94.903 36.487 95.2598 33.2754ZM115.495 28.9043C116.565 27.834 118.92 25.6931 119.776 25.6924C120.847 25.6924 122.988 27.8338 122.988 28.9043V34.2568H119.776L118.706 29.9746C117.279 31.402 114.424 35.1127 114.424 38.5381V43.8906H110.143L111.213 25.6924H115.495V28.9043ZM81.0977 2.1416L78.9561 28.9043H85.3799L89.6611 2.1416L98.2256 4.28223C96.4416 16.7705 92.8736 41.9601 92.873 42.8203C92.873 43.6767 86.4498 43.1771 83.2383 42.8203V36.3975H76.8154V41.75C73.6044 41.3932 67.1825 40.4657 67.1807 39.6094C67.1807 38.753 70.749 12.8461 72.5332 0L81.0977 2.1416ZM61.7178 22.168C62.4455 23.0777 63.5327 24.5999 64.4404 26.2246C65.3343 27.8246 66.1092 29.6197 66.1094 31.0449V41.1787H60.8281V40.3271C59.9195 40.6449 58.7048 40.9963 57.4277 41.2246C55.8098 41.5138 54.0123 41.6222 52.6055 41.1533C50.7814 40.5452 49.8882 39.0231 49.5967 37.5654C49.451 36.8367 49.4502 36.1045 49.5615 35.4736C49.6702 34.8581 49.8985 34.2733 50.2695 33.9023C50.8542 33.3178 51.7065 32.7537 52.54 32.3369C53.3579 31.928 54.2478 31.6153 54.9043 31.6152H58.6865V30.2031C58.2878 29.9002 57.3438 29.4034 55.9746 29.4033H52.4541L52.3164 29.127C51.944 28.382 51.4914 27.2009 51.3574 26.0723C51.2282 24.9822 51.3771 23.685 52.54 23.1035C54.3368 22.2053 56.273 21.9805 57.0459 21.9805H61.5684L61.7178 22.168ZM12.877 30.9814L13.9482 39.5449L13.9902 39.8857L14.3223 39.9688C15.0741 40.1567 16.2572 40.3264 17.3809 40.2217C18.4777 40.1194 19.6949 39.7352 20.2441 38.6367C20.8073 37.5102 21.0996 36.3627 21.0996 35.335C21.0994 34.311 20.8065 33.3633 20.1504 32.707C19.2323 31.7892 17.5267 30.8307 16.8086 30.4717L16.7031 30.4189H12.8066L12.877 30.9814ZM133.834 31.0449C132.763 31.0451 130.622 31.6879 130.622 34.2568C130.622 36.8256 132.763 38.1821 133.834 38.5391C134.904 38.5391 135.975 37.4681 135.975 34.2568C135.975 31.6876 134.548 31.0449 133.834 31.0449ZM59.1865 35.3271C58.1161 35.3272 55.976 35.5413 55.9756 36.3975C55.976 37.4679 59.1865 38.5382 59.1865 37.4678V35.3271ZM102.648 28.9033C100.937 28.9034 100.508 29.6167 100.508 29.9736V32.1152H103.72C104.077 31.0447 104.361 28.9035 102.648 28.9033ZM14.7676 12.8369C13.4605 12.9009 12.0432 13.1191 11.1348 13.3008L10.6787 13.3916L10.7363 13.8535L11.8066 22.417L11.8613 22.8555H12.3027C13.3956 22.8555 15.0439 22.7466 16.4336 22.4131C17.1247 22.2472 17.7907 22.0172 18.2949 21.6914C18.7984 21.366 19.2256 20.884 19.2256 20.2139C19.2256 19.1488 19.2262 17.7821 19.0889 16.5459C19.0201 15.9273 18.9154 15.3234 18.752 14.7969C18.5906 14.2774 18.3585 13.7872 18.0088 13.4375C17.6695 13.0988 17.1247 12.9536 16.6084 12.8838C16.0627 12.81 15.4197 12.805 14.7676 12.8369Z" fill="white"/>
</svg>
