<svg width="180" height="89" viewBox="0 0 180 89" fill="none" xmlns="http://www.w3.org/2000/svg">
<path d="M132.359 11.1292L136.272 6.48185C135.62 5.62575 133.753 3.6445 131.503 2.56827C129.252 1.49203 124.776 1.95677 122.819 2.32367C122.697 2.36444 122.624 2.47043 123.309 2.56827C124.165 2.69057 126.855 5.25886 127.222 5.74805C127.516 6.13941 129.709 9.49857 130.769 11.1292H132.359Z" fill="#2176E4"/>
<path d="M7.73556 12.3522C4.89821 7.5581 1.57982 5.70731 0.275292 5.38117C-1.8038 4.40278 8.46935 3.66898 11.7714 3.17978C14.4131 2.78843 30.6463 4.23971 38.4327 5.01428C44.0177 5.58501 55.3345 6.75093 55.9215 6.84877C56.5086 6.94661 65.1347 6.5634 69.3745 6.35957C71.0866 6.15574 74.9758 5.72361 76.8347 5.62577C79.1584 5.50347 90.2877 3.17978 96.0357 1.58989C100.634 0.317979 106.024 0 108.143 0C111.364 0.285365 118.734 1.46759 122.452 3.91358C126.17 6.35957 127.426 9.41705 127.589 10.64H121.352L115.726 8.68326C112.75 8.11253 105.453 6.97107 100.072 6.97107C94.6904 6.97107 91.5514 7.5418 90.6545 7.82716L83.1943 9.41705C81.4413 9.86549 76.1988 11.1292 69.2522 12.5968C62.3056 14.0644 53.2309 15.2467 49.562 15.6543L39.2888 16.0212C36.3536 16.1435 29.3092 16.4615 24.6129 16.755C19.9166 17.0485 13.769 18.4264 11.2822 19.0787C11.2822 18.8341 10.5729 17.1464 7.73556 12.3522Z" fill="#2176E4"/>
<path d="M35.5257 54.7753C32.6365 48.9022 35.195 41.8041 41.1667 39.1248L51.1279 34.6556C53.5855 33.553 56.4383 34.9694 57.0456 37.5937L58.4124 43.5007C59.0329 46.1825 57.749 48.9426 55.298 50.1956L42.0825 56.9518C39.6725 58.1839 36.7205 57.204 35.5257 54.7753Z" fill="#2176E4"/>
<path d="M60.177 34.0748C59.7004 32.138 60.7236 30.1461 62.5756 29.4053L74.0219 24.8268L88.178 20.918C89.3544 20.5932 90.5448 21.3885 90.6951 22.5996L92.2719 35.3064C92.396 36.3066 91.7565 37.2429 90.7796 37.4911L77.5685 40.848L65.2315 45.3437C64.1134 45.7512 62.889 45.098 62.6047 43.9424L60.177 34.0748Z" fill="#2176E4"/>
<path d="M96.6472 36.2006L94.5681 19.0787C110.1 16.3881 127.1 16.9996 130.769 16.9996C134.438 16.9996 133.092 35.5891 127.1 34.1215C122.306 32.9475 104.801 35.0184 96.6472 36.2006Z" fill="#2176E4"/>
<path fill-rule="evenodd" clip-rule="evenodd" d="M138.755 6.60417C142.302 7.01182 150.056 8.02263 152.697 8.80534C155.999 9.78373 162.604 11.8631 165.172 13.3307C167.74 14.7983 173.244 17.6115 174.589 19.9352C175.934 22.2589 176.79 25.194 175.69 28.3737C174.589 31.5536 170.553 39.991 170.064 41.2145C169.574 42.4375 168.719 46.5079 171.654 48.5524C174.671 50.2647 180.508 54.9861 179.726 60.1716C178.943 65.357 172.469 71.4636 169.33 73.8688C165.62 76.4778 157.908 81.5979 156.734 81.2067C155.511 81.4105 152.477 81.6959 150.129 81.2067C147.781 80.7174 141.976 78.8018 139.367 77.9049C138.185 79.7394 134.597 83.6773 129.705 84.7536C123.59 86.0988 117.071 82.063 115.726 79.0055C114.951 77.701 114.051 75.1407 114.051 73.3796C114.051 71.6192 113.97 71.6674 113.929 71.9118C104.553 71.5041 85.1411 71.2274 82.4982 73.3796C82.3351 74.9287 81.691 78.5165 80.4191 80.4733C78.8292 82.9193 77.9725 86.7099 71.3683 88.6667C66.0853 90.232 60.6069 85.8955 58.5275 83.5309L56.5704 81.0846L45.6857 85.487C44.0551 85.8131 40.2805 86.1967 38.2257 85.1208C35.6574 83.7755 31.6211 80.84 30.1535 75.3366C28.6859 69.8331 29.2971 72.6455 28.1964 68.8542C27.0956 65.0624 24.0381 52.9552 23.549 49.5309C23.1577 46.7918 23.7121 45.2099 24.0382 44.7614L23.7941 44.2721C22.4488 43.8237 19.6116 42.3642 19.0245 40.1139C18.4377 37.864 18.6164 35.1007 18.7794 33.9997C19.0648 32.9805 19.9296 30.3547 21.1036 28.0065C22.2776 25.6583 20.9404 20.8314 20.1251 18.7116C25.9955 18.1816 39.3503 17.1712 45.8077 17.3669C52.2652 17.5625 64.9686 15.2464 70.5128 14.0641C76.8317 12.515 90.4466 9.41681 94.3605 9.41667C99.2523 9.41667 111.115 9.29467 114.662 10.8844C118.209 12.4743 110.382 10.6404 105.98 11.7409C102.458 12.6214 95.1359 13.6564 91.9152 14.0641C85.1072 15.654 68.7269 20.2527 57.671 25.9274C46.6152 31.6021 44.3405 32.6127 44.5851 32.4089L36.1466 37.1794C34.6384 38.1169 31.4016 40.236 30.5206 41.2145C29.4199 42.4375 28.6861 43.7833 28.4415 45.1286C28.2459 46.2048 28.36 48.3492 28.4415 49.2868L31.4992 63.7184C32.5589 67.7128 34.8489 75.7732 35.5343 76.07C36.2192 76.3635 37.8581 75.2137 38.5919 74.6022L43.7286 71.3005L49.8439 67.9987L53.2677 66.2858C53.4309 64.818 54.301 61.4669 55.8361 59.3151C57.7556 56.6245 58.5272 54.5459 64.3976 52.8337C70.2675 51.1217 75.5261 55.8899 76.505 56.8688C77.4834 57.8472 81.0306 55.5238 94.4835 53.5671C105.246 52.0017 116.578 52.9148 120.9 53.5671C122.408 51.8957 126.501 48.7484 130.806 49.5309C135.11 50.3135 137.817 51.9767 138.633 52.7106C139.326 53.1183 140.884 54.3501 141.568 56.0133C142.253 57.6757 142.424 58.6621 142.424 58.9479L150.496 62.862L156.978 66.7751L163.215 71.9118C165.212 70.6889 169.794 67.5584 172.143 64.819C175.078 61.3946 175.323 58.7034 174.711 57.8473C174.1 56.9913 174.466 55.7677 168.841 52.7106C164.34 50.2646 156.774 45.5771 153.554 43.5387L142.791 38.1579C141.324 37.6687 138.462 35.736 138.755 31.9206C139.049 28.1053 139.937 25.1942 140.345 24.2155C140.793 22.381 142.058 18.6137 143.526 18.2223C145.36 17.7333 150.13 17.9781 157.834 20.7907C163.998 23.0409 168.881 25.0714 170.553 25.8053C170.879 25.9276 171.433 25.6336 171.042 23.4811C170.65 21.3285 161.747 16.9585 157.345 15.0426C154.858 14.3088 149.077 12.7436 145.849 12.3522C141.813 11.863 135.942 11.2514 135.575 11.3737C135.283 11.4695 137.573 8.23441 138.755 6.60417ZM74.6652 67.7546C73.5143 62.3508 69.3175 58.6648 65.2911 59.5221C61.2647 60.3796 58.9332 65.4562 60.0841 70.86C61.235 76.2638 65.4327 79.949 69.4591 79.0915C73.4853 78.2337 75.816 73.1582 74.6652 67.7546ZM131.36 55.4196C127.312 54.6672 123.213 58.4597 122.202 63.8913C121.192 69.323 123.654 74.3366 127.701 75.0895C131.749 75.8422 135.849 72.0496 136.86 66.6178C137.87 61.1859 135.407 56.1723 131.36 55.4196Z" fill="#2176E4"/>
</svg>
