<svg width="192" height="192" viewBox="0 0 192 192" fill="none" xmlns="http://www.w3.org/2000/svg">
<rect width="192" height="192" rx="46" fill="white"/>
<path d="M127.896 68.8973L131.368 64.6914C130.789 63.9166 129.133 62.1236 127.136 61.1496C125.14 60.1756 121.169 60.5962 119.433 60.9282C119.324 60.9651 119.259 61.0611 119.867 61.1496C120.626 61.2603 123.013 63.5846 123.339 64.0273C123.599 64.3815 125.545 67.4216 126.485 68.8973H127.896Z" fill="#2176E4"/>
<path d="M17.8311 70.0136C15.3255 65.739 12.3951 64.0888 11.2431 63.798C9.4071 62.9257 18.4791 62.2714 21.3952 61.8352C23.728 61.4862 38.0632 62.7803 44.9393 63.4709C49.8713 63.9798 59.865 65.0193 60.3834 65.1066C60.9018 65.1938 68.5194 64.8521 72.2634 64.6704C73.7754 64.4886 77.2099 64.1034 78.8515 64.0161C80.9035 63.9071 90.7315 61.8352 95.8076 60.4176C99.8684 59.2835 104.628 59 106.5 59C109.344 59.2544 115.852 60.3086 119.136 62.4895C122.419 64.6704 123.528 67.3965 123.672 68.487H118.164L113.196 66.7423C110.568 66.2334 104.124 65.2156 99.3716 65.2156C94.6196 65.2156 91.8475 65.7245 91.0555 65.9789L84.4675 67.3965C82.9195 67.7964 78.2899 68.9232 72.1554 70.2317C66.021 71.5403 58.0074 72.5944 54.7673 72.9579L45.6953 73.285C43.1033 73.3941 36.8824 73.6776 32.7352 73.9393C28.588 74.201 23.1592 75.4296 20.9632 76.0112C20.9632 75.7931 20.3368 74.2882 17.8311 70.0136Z" fill="#2176E4"/>
<path d="M42.3862 107.62C39.8339 102.407 42.1074 96.1014 47.3992 93.716L56.1728 89.7611C58.3437 88.7825 60.8609 90.0325 61.3957 92.3546L62.4872 97.0941C63.1056 99.7794 61.8207 102.546 59.3708 103.805L48.1922 109.546C46.0562 110.644 43.4419 109.776 42.3862 107.62Z" fill="#2176E4"/>
<path d="M64.2589 89.6274C63.7844 87.6897 64.8085 85.6949 66.6595 84.951L76.3974 81.0375L88.647 77.6393C89.8222 77.3132 91.0103 78.107 91.1599 79.3181L92.4965 90.1404C92.6202 91.1419 91.9798 92.0805 91.0028 92.3299L79.5309 95.2586L68.8742 99.1603C67.7566 99.5694 66.5339 98.9174 66.2508 97.7614L64.2589 89.6274Z" fill="#2176E4"/>
<path d="M96.268 91.1667L94.4265 76.0445C108.183 73.6682 123.24 74.2083 126.49 74.2083C129.74 74.2083 128.548 90.6266 123.24 89.3304C118.994 88.2935 103.49 90.1225 96.268 91.1667Z" fill="#2176E4"/>
<path d="M133.588 64.8621C136.722 65.2239 143.573 66.1214 145.907 66.8162C148.824 67.6846 154.658 69.5301 156.927 70.8328C159.196 72.1355 164.059 74.6325 165.248 76.6951C166.436 78.7576 167.193 81.3629 166.22 84.1853C165.248 87.0076 161.682 94.4973 161.25 95.5837C160.817 96.6693 160.062 100.283 162.655 102.097C165.32 103.617 170.477 107.808 169.786 112.411C169.094 117.014 163.374 122.434 160.601 124.569C157.324 126.885 150.509 131.43 149.472 131.083C148.392 131.264 145.712 131.517 143.637 131.083C141.563 130.648 136.434 128.947 134.129 128.151C133.085 129.779 129.915 133.276 125.593 134.231C120.191 135.425 114.431 131.843 113.243 129.129C112.558 127.971 111.763 125.698 111.763 124.135C111.763 122.573 111.691 122.615 111.655 122.832C103.371 122.47 86.2217 122.224 83.8862 124.135C83.7422 125.51 83.173 128.694 82.0493 130.431C80.6447 132.603 79.8879 135.968 74.0532 137.705C69.3857 139.094 64.5455 135.244 62.7085 133.145L60.979 130.974L51.3628 134.883C49.9221 135.172 46.5872 135.512 44.772 134.556C42.5029 133.362 38.9367 130.757 37.6401 125.872C36.3436 120.987 36.8841 123.483 35.9116 120.118C34.9391 116.752 32.2383 106.005 31.8062 102.966C31.4605 100.534 31.9497 99.1302 32.2378 98.7322L32.022 98.2976C30.8335 97.8996 28.3268 96.6045 27.8081 94.6072C27.2895 92.61 27.4473 90.1567 27.5913 89.1794C27.8434 88.2748 28.6078 85.9444 29.645 83.8601C30.6823 81.7758 29.5011 77.4908 28.7808 75.6091C33.9674 75.1387 45.7663 74.2411 51.4712 74.4148C57.1763 74.5884 68.3992 72.5335 73.2974 71.4841C78.8801 70.109 90.9092 67.3591 94.3667 67.3591C98.6887 67.3591 109.17 67.2506 112.303 68.6619C115.436 70.0729 108.521 68.4446 104.631 69.4216C101.519 70.2032 95.0508 71.1223 92.2056 71.4841C86.1907 72.8954 71.7193 76.9773 61.9517 82.0144C52.1891 87.0488 50.1765 87.948 50.3901 87.7683L42.9351 92.0017C41.6025 92.834 38.7424 94.7152 37.9644 95.5837C36.9919 96.6693 36.3435 97.8642 36.1274 99.0583C35.9547 100.014 36.0554 101.917 36.1274 102.749L38.8286 115.558C39.765 119.105 41.7899 126.263 42.395 126.523C43.0003 126.783 44.448 125.763 45.0962 125.22L49.6343 122.29L55.0366 119.358L58.062 117.839C58.2061 116.536 58.9744 113.561 60.3306 111.651C62.0264 109.263 62.708 107.417 67.894 105.897C73.0801 104.378 77.7264 108.61 78.5913 109.479C79.4557 110.348 82.5896 108.286 94.4751 106.549C103.983 105.159 113.996 105.97 117.814 106.549C119.147 105.065 122.763 102.271 126.566 102.966C130.369 103.66 132.761 105.137 133.481 105.789C134.093 106.151 135.469 107.243 136.074 108.719C136.679 110.196 136.831 111.072 136.831 111.325L143.961 114.799L149.688 118.273L155.199 122.832C156.964 121.746 161.012 118.968 163.086 116.536C165.679 113.497 165.896 111.109 165.356 110.348C164.816 109.588 165.139 108.503 160.169 105.789C156.193 103.618 149.508 99.4555 146.663 97.6462L137.155 92.8699C135.858 92.4356 133.329 90.7207 133.588 87.3337C133.848 83.9471 134.633 81.3636 134.994 80.4949C135.39 78.8665 136.507 75.5229 137.803 75.1755C139.424 74.7414 143.638 74.9581 150.445 77.4548C155.89 79.4523 160.205 81.2547 161.682 81.906C161.97 82.0142 162.459 81.7531 162.114 79.8435C161.768 77.9329 153.902 74.053 150.012 72.3523C147.815 71.7009 142.708 70.312 139.856 69.9646C136.291 69.5305 131.107 68.9874 130.78 69.0955C130.52 69.1823 132.544 66.3096 133.588 64.8621ZM76.9663 119.141C75.9495 114.345 72.2412 111.074 68.6841 111.835C65.1268 112.596 63.0668 117.102 64.0835 121.898C65.1003 126.695 68.8085 129.966 72.3657 129.205C75.923 128.444 77.9831 123.938 76.9663 119.141ZM127.055 108.192C123.479 107.524 119.857 110.891 118.964 115.713C118.072 120.534 120.247 124.985 123.823 125.653C127.398 126.321 131.021 122.954 131.914 118.133C132.806 113.311 130.631 108.86 127.055 108.192Z" fill="#2176E4"/>
<path d="M66.6209 162H63.3255L68.3468 147.455H72.3098L77.324 162H74.0286L70.3851 150.778H70.2715L66.6209 162ZM66.415 156.283H74.199V158.683H66.415V156.283ZM82.53 162.178C81.7014 162.178 80.9509 161.964 80.2786 161.538C79.611 161.107 79.0807 160.475 78.6877 159.642C78.2994 158.804 78.1053 157.777 78.1053 156.56C78.1053 155.31 78.3065 154.27 78.709 153.442C79.1114 152.608 79.6465 151.986 80.3141 151.574C80.9864 151.157 81.7227 150.949 82.5229 150.949C83.1337 150.949 83.6427 151.053 84.0499 151.261C84.4618 151.465 84.7933 151.721 85.0442 152.028C85.2999 152.331 85.494 152.63 85.6266 152.923H85.7189V147.455H88.7374V162H85.7544V160.253H85.6266C85.4846 160.556 85.2833 160.857 85.0229 161.155C84.7672 161.448 84.4334 161.692 84.0215 161.886C83.6143 162.08 83.1171 162.178 82.53 162.178ZM83.4888 159.77C83.9765 159.77 84.3884 159.637 84.7246 159.372C85.0655 159.102 85.3259 158.726 85.5059 158.243C85.6905 157.76 85.7828 157.194 85.7828 156.545C85.7828 155.897 85.6929 155.333 85.513 154.855C85.333 154.377 85.0726 154.008 84.7317 153.747C84.3908 153.487 83.9765 153.357 83.4888 153.357C82.9917 153.357 82.5726 153.491 82.2317 153.761C81.8908 154.031 81.6328 154.405 81.4576 154.884C81.2824 155.362 81.1948 155.916 81.1948 156.545C81.1948 157.18 81.2824 157.741 81.4576 158.229C81.6375 158.712 81.8955 159.09 82.2317 159.365C82.5726 159.635 82.9917 159.77 83.4888 159.77ZM91.225 162V151.091H94.1085V153.016H94.2363C94.4636 152.376 94.8424 151.872 95.3727 151.503C95.903 151.134 96.5375 150.949 97.2761 150.949C98.0242 150.949 98.661 151.136 99.1866 151.51C99.7122 151.879 100.063 152.381 100.238 153.016H100.351C100.574 152.391 100.976 151.891 101.559 151.517C102.146 151.138 102.84 150.949 103.64 150.949C104.658 150.949 105.484 151.273 106.118 151.922C106.758 152.566 107.077 153.48 107.077 154.663V162H104.059V155.26C104.059 154.654 103.898 154.199 103.576 153.896C103.254 153.593 102.851 153.442 102.368 153.442C101.819 153.442 101.391 153.617 101.083 153.967C100.775 154.313 100.621 154.77 100.621 155.338V162H97.688V155.196C97.688 154.661 97.5342 154.235 97.2264 153.918C96.9234 153.6 96.5233 153.442 96.0261 153.442C95.6899 153.442 95.3869 153.527 95.117 153.697C94.8519 153.863 94.6412 154.098 94.4849 154.401C94.3287 154.699 94.2505 155.049 94.2505 155.452V162H91.225ZM109.467 162V151.091H112.493V162H109.467ZM110.987 149.685C110.537 149.685 110.151 149.536 109.829 149.237C109.512 148.934 109.354 148.572 109.354 148.151C109.354 147.734 109.512 147.376 109.829 147.078C110.151 146.775 110.537 146.624 110.987 146.624C111.437 146.624 111.82 146.775 112.138 147.078C112.46 147.376 112.621 147.734 112.621 148.151C112.621 148.572 112.46 148.934 112.138 149.237C111.82 149.536 111.437 149.685 110.987 149.685ZM117.942 155.693V162H114.916V151.091H117.8V153.016H117.928C118.169 152.381 118.574 151.879 119.142 151.51C119.71 151.136 120.399 150.949 121.209 150.949C121.967 150.949 122.627 151.115 123.191 151.446C123.754 151.777 124.192 152.251 124.504 152.866C124.817 153.477 124.973 154.206 124.973 155.054V162H121.948V155.594C121.952 154.926 121.782 154.405 121.436 154.031C121.091 153.652 120.615 153.463 120.009 153.463C119.602 153.463 119.242 153.551 118.929 153.726C118.621 153.901 118.38 154.157 118.205 154.493C118.034 154.824 117.947 155.224 117.942 155.693Z" fill="#2176E4"/>
</svg>
