<svg width="324" height="159" viewBox="0 0 324 159" fill="none" xmlns="http://www.w3.org/2000/svg">
<path d="M297.041 86.776C305.848 84.8015 312.007 89.4341 314.237 100.475C316.516 111.441 313.995 119.002 303.832 121.054C293.607 123.119 288.823 115.597 286.961 106.375C285.099 97.1531 288.158 88.7003 297.041 86.776ZM301.696 106.272C307.028 105.195 305.264 94.8438 300.22 95.7318C294.763 96.8339 296.238 107.374 301.696 106.272Z" fill="black"/>
<path d="M253.666 84.1989C255.199 84.0725 256.731 83.8502 258.271 84.0119C259.712 84.0794 261.054 83.9569 262.496 84.0244C263.168 84.0111 263.838 83.9019 264.521 84.4645C264.736 85.6125 264.664 86.8621 264.689 88.1099C264.712 89.2617 264.639 90.4153 264.855 91.6593C265.04 91.2716 265.226 90.9799 265.412 90.6881C266.34 89.0375 267.365 87.4809 268.584 86.0165C269.619 84.9399 270.656 83.9592 271.987 83.2608C274.552 81.8659 276.483 82.4038 278.25 84.3853C278.743 85.0477 279.236 85.7101 279.636 86.4704C281.727 90.2698 282.958 94.2782 283.044 98.5974C282.98 100.231 283.01 101.767 282.949 103.496C282.469 103.506 282.183 103.607 281.799 103.615C280.167 103.647 278.631 103.678 277.001 103.806C275.658 103.832 274.412 103.953 273.07 104.075C272.968 103.789 272.769 103.409 272.763 103.121C272.644 101.971 272.528 100.918 272.409 99.7677L271.75 95.5559C271.648 95.2698 271.546 94.9838 271.347 94.6037C271.147 94.2235 270.665 94.137 270.289 94.5285C270.007 94.8222 269.63 95.2137 269.352 95.6993C268.981 96.3787 268.612 97.1542 268.244 97.9296C266.87 101.317 266.073 104.694 265.471 108.258C264.948 110.957 264.619 113.748 264.387 116.537C264.221 117.885 264.248 119.229 264.274 120.572L264.36 124.892C264.073 124.993 263.883 125.093 263.595 125.099L255.629 125.256C255.149 125.266 254.573 125.277 254.182 124.901C253.654 122.511 253.145 86.9937 253.666 84.1989Z" fill="black"/>
<path d="M244.484 108.776C243.732 108.958 243.179 108.797 242.507 108.702C239.161 107.831 235.696 107.025 232.258 106.128C230.019 105.578 227.779 105.028 225.513 104.57C224.267 106.108 223.759 107.859 223.5 109.784C223.378 110.548 223.322 111.431 223.384 112.249C223.625 114.518 224.991 116.014 227.138 116.537C229.22 116.941 231.159 116.804 233.009 115.942C234.528 115.183 235.982 114.306 237.502 113.547C237.859 113.351 238.242 113.062 238.691 112.893C239.28 113.963 241.732 120.672 241.964 121.939C239.267 123.655 236.412 125.226 233.349 126.136C230.048 127.178 226.738 127.217 223.419 126.253C221.482 125.692 219.638 125.156 217.982 123.976C214.234 121.389 212.179 117.794 211.67 113.348C211.375 111.263 211.595 109.128 211.934 106.927C213.355 98.2426 217.642 91.3901 224.863 86.4883C226.873 85.0724 229.21 84.2514 231.625 83.8526C232.8 83.5937 233.987 83.6382 235.212 83.8939C239.191 84.6488 242.427 86.5875 244.866 89.8943C245.797 91.1641 246.425 92.4458 246.814 93.8584C247.267 96.0889 247.416 98.3312 246.958 100.597C246.539 103.075 245.751 105.445 244.963 107.815C244.883 108.092 244.684 108.434 244.484 108.776ZM237.218 99.3702C237.259 98.8825 237.367 98.5137 237.381 98.1182C237.384 97.4193 237.295 96.6936 237.206 95.968C236.953 93.3955 234.255 92.0129 231.876 93.3217C230.633 94.1605 229.574 95.0528 228.62 96.2752C228.447 96.5251 228.367 96.8016 228.168 97.1437C231.237 97.9344 234.241 98.6062 237.218 99.3702Z" fill="black"/>
<path d="M182.948 116.374C178.599 116.57 174.514 116.875 170.174 117.2C170.222 117.838 170.132 118.358 170.171 118.869C170.38 121.677 170.727 124.603 171.065 127.402L171.274 130.21C170.773 130.376 170.4 130.532 170.017 130.561C166.816 130.671 163.488 130.792 160.297 131.03C158.628 131.026 156.969 131.15 155.3 131.146L146.847 131.393C146.681 130.892 146.515 130.391 146.487 130.008C144.628 113.717 143.407 97.3786 142.56 80.8839C142.034 70.398 141.635 59.9025 140.597 49.4547C140.388 46.6466 140.296 43.7012 140.214 40.8835C140.195 40.6282 140.313 40.491 140.284 40.1081C140.795 40.07 141.296 39.9042 141.807 39.866L149.465 39.2939C153.03 38.8993 156.467 38.5142 159.913 38.2567C160.669 38.0719 161.572 38.1328 162.466 38.066C162.632 38.5671 162.788 38.9405 162.817 39.3234C163.211 42.8879 163.733 46.4429 163.991 49.8893C164.977 61.3677 165.825 72.7281 166.674 84.0884L168.153 98.7389C168.192 99.2495 168.348 99.6229 168.376 100.006C168.641 100.114 168.906 100.223 169.161 100.204L180.649 99.3458C180.905 99.3267 181.278 99.1704 181.651 99.0142L181.684 97.7282C181.382 91.9747 181.208 86.2116 180.779 80.4676C180.23 71.3953 179.544 62.2049 178.867 53.1422C178.784 50.3245 178.702 47.5068 178.492 44.6986C178.496 43.0297 178.235 41.2522 178.111 39.5928C178.063 38.9546 178.016 38.3164 178.105 37.7963C178.096 37.6686 178.214 37.5314 178.322 37.2666C178.568 37.1199 178.951 37.0913 179.334 37.0627C182.27 36.8434 185.352 36.8698 188.288 36.6505L194.415 36.1928C195.427 35.9889 196.32 35.9221 197.341 35.8459C197.852 35.8077 198.244 35.9068 198.765 35.9963C198.803 36.5068 198.959 36.8802 198.988 37.2632C199.907 47.8481 200.944 58.2959 202.109 68.7341C203.041 77.7778 203.708 86.7129 204.385 95.7756C205.062 104.838 205.484 113.92 206.161 122.983L206.361 125.663C205.515 126.368 204.367 126.454 203.346 126.531C200.655 126.603 197.965 126.676 195.157 126.886C192.732 127.067 190.444 127.366 188.028 127.675L184.709 127.923C184.014 127.205 184.084 126.429 183.9 125.673C183.728 123.375 183.556 121.078 183.267 118.917C183.209 118.151 183.152 117.385 182.948 116.374Z" fill="black"/>
<path d="M127.096 104.686C127.476 101.696 125.837 98.6771 123.217 97.901C122.248 97.6456 121.186 97.4893 120.227 97.5217C118.013 97.4043 115.826 98.0544 113.732 98.6054C113.159 98.7208 112.686 98.9289 112.113 99.0442C111.601 98.101 110.719 91.8872 110.216 88.3502C110.404 88.2477 110.682 87.9502 110.967 87.8445C113.694 86.1195 116.627 84.7719 119.869 84.0861C126.921 82.4073 133.145 84.6946 137.283 90.6064C139.296 93.3241 140.554 96.4514 141.432 99.6876C142.425 103.496 142.749 107.424 142.694 111.46C142.646 112.902 142.698 114.437 142.651 115.88C142.652 118.761 142.17 121.563 141.781 124.266C141.692 124.461 141.596 124.464 141.506 124.659L140.652 124.976C138.356 125.246 136.159 125.608 133.866 125.974L132.331 126.026C131.848 125.946 131.551 125.668 131.438 125.191C131.326 124.715 131.214 124.238 131.003 123.669C130.622 123.778 130.334 123.788 130.146 123.89C128.25 124.626 126.353 125.363 124.358 126.007C122.177 126.849 119.983 127.307 117.693 127.768C115.88 128.118 114.048 127.891 112.295 127.182C110.254 126.483 108.667 124.999 107.732 122.918C106.903 121.121 106.263 119.221 106.006 117.309C105.74 115.108 106.244 112.978 107.331 111.02C109.421 107.492 112.423 105.373 116.427 104.47C119.474 103.695 122.558 103.975 125.651 104.543L126.812 104.792C126.908 104.788 127 104.689 127.096 104.686ZM128.222 112.428C127.829 112.154 127.63 111.968 127.435 111.879C125.106 111.189 123.012 111.74 121.138 113.148C120.109 113.951 119.575 115.218 119.816 116.65C119.954 117.894 120.946 118.822 122.193 118.779C122.864 118.757 123.53 118.542 124.092 118.139C126.161 116.82 127.638 115.042 128.222 112.428Z" fill="black"/>
<path d="M64.7481 149.859C66.8262 146.137 67.9756 142.154 69.5718 138.346C69.9994 138.307 70.3026 138.323 70.6601 138.463C73.0153 138.768 75.297 138.734 77.4279 137.508C78.3338 137.038 79.1855 136.444 79.804 135.655C81.2549 134.059 82.3834 132.233 83.3681 130.247C83.3681 130.247 83.3138 130.123 83.2945 129.909L81.1022 129.977C79.1588 129.937 77.161 129.772 75.3192 128.947C74.9617 128.807 74.5148 128.632 74.3168 128.348C71.306 126.033 69.45 123.14 69.441 119.218C69.3882 116.723 69.9068 114.348 70.5148 112.009C71.5905 107.687 73.5056 103.592 75.5645 99.6555C76.8138 97.2581 77.9738 94.8257 79.1881 92.5177C79.3282 92.1601 79.4684 91.8026 79.6979 91.4802C80.2307 91.1735 80.7319 91.4731 81.1788 91.6483L88.0449 94.6498C88.1343 94.6848 88.2237 94.7199 88.3674 94.8794C88.2272 95.2369 88.1764 95.6294 88.0362 95.9869C86.249 100.545 84.4619 105.103 82.729 109.786C82.0982 111.395 81.6462 113.073 81.3729 114.822C81.3064 115.518 81.2398 116.214 81.3871 116.89C81.5993 119.242 83.6391 120.351 85.8243 119.249C86.8547 118.725 87.8658 117.987 88.5545 117.019C89.4026 115.908 90.3401 114.832 91.0445 113.562C92.4533 111.021 93.8971 108.39 95.2165 105.814C96.2012 103.828 97.0966 101.808 97.992 99.7873C98.2566 99.3755 98.5562 98.8743 98.7314 98.4274C99.2133 98.5132 99.5165 98.529 99.7846 98.6341C102.287 99.6153 104.79 100.597 107.257 101.667L107.704 101.842C108.33 102.088 108.493 102.461 108.372 103.032L107.741 104.641C107.075 106.339 106.374 108.127 105.708 109.825L98.4195 128.415C96.9285 131.955 95.4374 135.495 93.8569 139C91.2917 144.49 87.002 148.067 81.3295 150.174C77.6127 151.501 73.838 152.186 69.8933 151.464C68.1794 151.102 66.5549 150.774 64.7481 149.859Z" fill="black"/>
<path d="M55.6859 95.1344C73.213 102.041 67.4974 135.793 39.3463 131.762L39.6604 133.402C39.6604 133.402 28.0385 132.011 20.4481 132.096C17.7584 108.312 18.063 90.5007 15.2462 66.7307C18.0731 66.6686 24.8671 64.0969 31.6491 62.5571C62.4797 56.1079 63.4256 91.8117 55.6859 95.1344ZM34.4197 91.6138C34.4197 91.6138 44.2609 93.206 43.2253 84.0484C42.1754 74.7636 32.7126 78.7964 32.7126 78.7964C32.714 86.7828 34.4197 91.6138 34.4197 91.6138ZM37.4113 118.069C37.4113 118.069 47.2669 119.789 46.1595 109.995C45.052 100.201 35.618 104.489 35.618 104.489C35.6769 112.984 37.4113 118.069 37.4113 118.069Z" fill="black"/>
</svg>
