<svg width="192" height="192" viewBox="0 0 192 192" fill="none" xmlns="http://www.w3.org/2000/svg">
<rect width="192" height="192" rx="46" fill="white"/>
<path d="M127.896 68.8973L131.368 64.6914C130.789 63.9166 129.133 62.1236 127.136 61.1496C125.14 60.1756 121.169 60.5962 119.433 60.9282C119.324 60.9651 119.259 61.0611 119.867 61.1496C120.626 61.2603 123.013 63.5846 123.339 64.0273C123.599 64.3815 125.545 67.4216 126.485 68.8973H127.896Z" fill="#2176E4"/>
<path d="M17.8311 70.0136C15.3255 65.739 12.3951 64.0888 11.2431 63.798C9.4071 62.9257 18.4791 62.2714 21.3952 61.8352C23.728 61.4862 38.0632 62.7803 44.9393 63.4709C49.8713 63.9798 59.865 65.0193 60.3834 65.1066C60.9018 65.1938 68.5194 64.8521 72.2634 64.6704C73.7754 64.4886 77.2099 64.1034 78.8515 64.0161C80.9035 63.9071 90.7315 61.8352 95.8076 60.4176C99.8684 59.2835 104.628 59 106.5 59C109.344 59.2544 115.852 60.3086 119.136 62.4895C122.419 64.6704 123.528 67.3965 123.672 68.487H118.164L113.196 66.7423C110.568 66.2334 104.124 65.2156 99.3716 65.2156C94.6196 65.2156 91.8475 65.7245 91.0555 65.9789L84.4675 67.3965C82.9195 67.7964 78.2899 68.9232 72.1554 70.2317C66.021 71.5403 58.0074 72.5944 54.7673 72.9579L45.6953 73.285C43.1033 73.3941 36.8824 73.6776 32.7352 73.9393C28.588 74.201 23.1592 75.4296 20.9632 76.0112C20.9632 75.7931 20.3368 74.2882 17.8311 70.0136Z" fill="#2176E4"/>
<path d="M42.3862 107.62C39.8339 102.407 42.1074 96.1014 47.3992 93.716L56.1728 89.7611C58.3437 88.7825 60.8609 90.0325 61.3957 92.3546L62.4872 97.0941C63.1056 99.7794 61.8207 102.546 59.3708 103.805L48.1922 109.546C46.0562 110.644 43.4419 109.776 42.3862 107.62Z" fill="#2176E4"/>
<path d="M64.2589 89.6274C63.7844 87.6897 64.8085 85.6949 66.6595 84.951L76.3974 81.0375L88.647 77.6393C89.8222 77.3132 91.0103 78.107 91.1599 79.3181L92.4965 90.1404C92.6202 91.1419 91.9798 92.0805 91.0028 92.3299L79.5309 95.2586L68.8742 99.1603C67.7566 99.5694 66.5339 98.9174 66.2508 97.7614L64.2589 89.6274Z" fill="#2176E4"/>
<path d="M96.268 91.1667L94.4265 76.0445C108.183 73.6682 123.24 74.2083 126.49 74.2083C129.74 74.2083 128.548 90.6266 123.24 89.3304C118.994 88.2935 103.49 90.1225 96.268 91.1667Z" fill="#2176E4"/>
<path d="M133.588 64.8621C136.722 65.2239 143.573 66.1214 145.907 66.8162C148.824 67.6846 154.658 69.5301 156.927 70.8328C159.196 72.1355 164.059 74.6325 165.248 76.6951C166.436 78.7576 167.193 81.3629 166.22 84.1853C165.248 87.0076 161.682 94.4973 161.249 95.5837C160.817 96.6693 160.062 100.283 162.655 102.097C165.32 103.617 170.477 107.808 169.786 112.411C169.094 117.014 163.374 122.434 160.601 124.569C157.323 126.885 150.509 131.43 149.472 131.083C148.392 131.264 145.712 131.517 143.637 131.083C141.562 130.648 136.434 128.947 134.129 128.151C133.085 129.779 129.915 133.276 125.593 134.231C120.191 135.425 114.431 131.843 113.243 129.129C112.558 127.971 111.763 125.698 111.763 124.135C111.763 122.573 111.691 122.615 111.655 122.832C103.371 122.47 86.2216 122.224 83.8862 124.135C83.7421 125.51 83.173 128.694 82.0493 130.431C80.6446 132.603 79.8879 135.968 74.0532 137.705C69.3856 139.094 64.5455 135.244 62.7085 133.145L60.979 130.974L51.3628 134.883C49.9221 135.172 46.5872 135.512 44.7719 134.556C42.5029 133.362 38.9367 130.757 37.6401 125.872C36.3435 120.987 36.884 123.483 35.9116 120.118C34.9391 116.752 32.2383 106.005 31.8061 102.966C31.4605 100.534 31.9496 99.1302 32.2378 98.7322L32.0219 98.2976C30.8334 97.8996 28.3268 96.6045 27.8081 94.6072C27.2895 92.61 27.4472 90.1567 27.5913 89.1794C27.8434 88.2748 28.6077 85.9444 29.645 83.8601C30.6823 81.7758 29.5011 77.4908 28.7807 75.6091C33.9673 75.1387 45.7663 74.2411 51.4712 74.4148C57.1763 74.5884 68.3992 72.5335 73.2973 71.4841C78.8801 70.109 90.9091 67.3591 94.3667 67.3591C98.6887 67.3591 109.17 67.2506 112.303 68.6619C115.436 70.0729 108.521 68.4446 104.631 69.4216C101.519 70.2032 95.0508 71.1223 92.2055 71.4841C86.1907 72.8954 71.7193 76.9773 61.9516 82.0144C52.1891 87.0488 50.1765 87.948 50.3901 87.7683L42.935 92.0017C41.6024 92.834 38.7424 94.7152 37.9643 95.5837C36.9919 96.6693 36.3435 97.8642 36.1274 99.0583C35.9547 100.014 36.0554 101.917 36.1274 102.749L38.8286 115.558C39.765 119.105 41.7899 126.263 42.395 126.523C43.0003 126.783 44.448 125.763 45.0962 125.22L49.6342 122.29L55.0366 119.358L58.062 117.839C58.206 116.536 58.9743 113.561 60.3305 111.651C62.0264 109.263 62.708 107.417 67.894 105.897C73.08 104.378 77.7264 108.61 78.5913 109.479C79.4557 110.348 82.5896 108.286 94.4751 106.549C103.983 105.159 113.996 105.97 117.814 106.549C119.147 105.065 122.763 102.271 126.566 102.966C130.369 103.66 132.761 105.137 133.481 105.789C134.093 106.151 135.469 107.243 136.074 108.719C136.679 110.196 136.831 111.072 136.831 111.325L143.961 114.799L149.688 118.273L155.199 122.832C156.964 121.746 161.012 118.968 163.086 116.536C165.679 113.497 165.896 111.109 165.356 110.348C164.816 109.588 165.139 108.503 160.169 105.789C156.193 103.618 149.508 99.4555 146.663 97.6462L137.155 92.8699C135.858 92.4356 133.329 90.7207 133.588 87.3337C133.848 83.9471 134.633 81.3636 134.994 80.4949C135.39 78.8665 136.507 75.5229 137.803 75.1755C139.424 74.7414 143.638 74.9581 150.445 77.4548C155.89 79.4523 160.205 81.2547 161.682 81.906C161.97 82.0142 162.459 81.7531 162.114 79.8435C161.768 77.9329 153.902 74.053 150.012 72.3523C147.815 71.7009 142.708 70.312 139.856 69.9646C136.291 69.5305 131.107 68.9874 130.78 69.0955C130.52 69.1823 132.544 66.3096 133.588 64.8621ZM76.9663 119.141C75.9494 114.345 72.2412 111.074 68.684 111.835C65.1268 112.596 63.0667 117.102 64.0835 121.898C65.1002 126.695 68.8084 129.966 72.3657 129.205C75.923 128.444 77.983 123.938 76.9663 119.141ZM127.055 108.192C123.479 107.524 119.857 110.891 118.964 115.713C118.072 120.534 120.247 124.985 123.823 125.653C127.398 126.321 131.021 122.954 131.914 118.133C132.806 113.311 130.631 108.86 127.055 108.192Z" fill="#2176E4"/>
<path d="M56.225 152.547H53.1142C53.0574 152.144 52.9413 151.787 52.7662 151.474C52.591 151.157 52.3661 150.887 52.0914 150.665C51.8168 150.442 51.4996 150.272 51.1397 150.153C50.7846 150.035 50.3987 149.976 49.9821 149.976C49.2292 149.976 48.5734 150.163 48.0147 150.537C47.456 150.906 47.0228 151.446 46.715 152.156C46.4073 152.862 46.2534 153.719 46.2534 154.727C46.2534 155.764 46.4073 156.635 46.715 157.341C47.0275 158.046 47.4631 158.579 48.0218 158.939C48.5806 159.299 49.2269 159.479 49.9608 159.479C50.3727 159.479 50.7538 159.424 51.1042 159.315C51.4593 159.206 51.7742 159.048 52.0488 158.839C52.3234 158.626 52.5507 158.368 52.7306 158.065C52.9153 157.762 53.0431 157.417 53.1142 157.028L56.225 157.043C56.1445 157.71 55.9432 158.354 55.6213 158.974C55.304 159.59 54.8755 160.142 54.3358 160.629C53.8007 161.112 53.1615 161.496 52.4181 161.78C51.6795 162.059 50.8438 162.199 49.911 162.199C48.6137 162.199 47.4537 161.905 46.4309 161.318C45.4129 160.731 44.608 159.881 44.0162 158.768C43.429 157.656 43.1355 156.309 43.1355 154.727C43.1355 153.141 43.4338 151.792 44.0304 150.679C44.627 149.566 45.4366 148.719 46.4593 148.136C47.4821 147.549 48.6326 147.256 49.911 147.256C50.7538 147.256 51.5351 147.374 52.2548 147.611C52.9792 147.848 53.6208 148.193 54.1795 148.648C54.7382 149.098 55.1928 149.649 55.5431 150.303C55.8983 150.956 56.1255 151.704 56.225 152.547ZM63.3024 162.213C62.1992 162.213 61.2451 161.979 60.4402 161.51C59.64 161.036 59.0221 160.378 58.5865 159.536C58.1509 158.688 57.9331 157.705 57.9331 156.588C57.9331 155.461 58.1509 154.476 58.5865 153.634C59.0221 152.786 59.64 152.128 60.4402 151.659C61.2451 151.186 62.1992 150.949 63.3024 150.949C64.4056 150.949 65.3573 151.186 66.1575 151.659C66.9624 152.128 67.5827 152.786 68.0183 153.634C68.4539 154.476 68.6717 155.461 68.6717 156.588C68.6717 157.705 68.4539 158.688 68.0183 159.536C67.5827 160.378 66.9624 161.036 66.1575 161.51C65.3573 161.979 64.4056 162.213 63.3024 162.213ZM63.3166 159.869C63.8185 159.869 64.2375 159.727 64.5737 159.443C64.9099 159.154 65.1632 158.761 65.3336 158.264C65.5088 157.767 65.5964 157.201 65.5964 156.567C65.5964 155.932 65.5088 155.366 65.3336 154.869C65.1632 154.372 64.9099 153.979 64.5737 153.69C64.2375 153.402 63.8185 153.257 63.3166 153.257C62.81 153.257 62.3838 153.402 62.0382 153.69C61.6973 153.979 61.4392 154.372 61.264 154.869C61.0936 155.366 61.0083 155.932 61.0083 156.567C61.0083 157.201 61.0936 157.767 61.264 158.264C61.4392 158.761 61.6973 159.154 62.0382 159.443C62.3838 159.727 62.81 159.869 63.3166 159.869ZM73.6646 155.693V162H70.639V151.091H73.5225V153.016H73.6504C73.8919 152.381 74.2967 151.879 74.8649 151.51C75.4331 151.136 76.122 150.949 76.9316 150.949C77.6892 150.949 78.3497 151.115 78.9132 151.446C79.4766 151.777 79.9146 152.251 80.2271 152.866C80.5396 153.477 80.6958 154.206 80.6958 155.054V162H77.6703V155.594C77.675 154.926 77.5046 154.405 77.1589 154.031C76.8133 153.652 76.3374 153.463 75.7314 153.463C75.3242 153.463 74.9643 153.551 74.6518 153.726C74.344 153.901 74.1026 154.157 73.9274 154.493C73.7569 154.824 73.6693 155.224 73.6646 155.693ZM87.1003 162.178C86.2717 162.178 85.5212 161.964 84.8489 161.538C84.1813 161.107 83.651 160.475 83.258 159.642C82.8697 158.804 82.6756 157.777 82.6756 156.56C82.6756 155.31 82.8768 154.27 83.2793 153.442C83.6818 152.608 84.2168 151.986 84.8844 151.574C85.5568 151.157 86.293 150.949 87.0932 150.949C87.704 150.949 88.213 151.053 88.6202 151.261C89.0321 151.465 89.3636 151.721 89.6145 152.028C89.8702 152.331 90.0643 152.63 90.1969 152.923H90.2892V147.455H93.3077V162H90.3248V160.253H90.1969C90.0549 160.556 89.8536 160.857 89.5932 161.155C89.3375 161.448 89.0037 161.692 88.5918 161.886C88.1846 162.08 87.6874 162.178 87.1003 162.178ZM88.0591 159.77C88.5468 159.77 88.9587 159.637 89.2949 159.372C89.6358 159.102 89.8962 158.726 90.0762 158.243C90.2608 157.76 90.3532 157.194 90.3532 156.545C90.3532 155.897 90.2632 155.333 90.0833 154.855C89.9034 154.377 89.6429 154.008 89.302 153.747C88.9611 153.487 88.5468 153.357 88.0591 153.357C87.562 153.357 87.1429 153.491 86.802 153.761C86.4611 154.031 86.2031 154.405 86.0279 154.884C85.8527 155.362 85.7651 155.916 85.7651 156.545C85.7651 157.18 85.8527 157.741 86.0279 158.229C86.2078 158.712 86.4658 159.09 86.802 159.365C87.1429 159.635 87.562 159.77 88.0591 159.77ZM102.791 157.355V151.091H105.817V162H102.912V160.018H102.798C102.552 160.658 102.142 161.171 101.569 161.56C101.001 161.948 100.308 162.142 99.4885 162.142C98.7593 162.142 98.1177 161.976 97.5637 161.645C97.0098 161.313 96.5765 160.842 96.264 160.232C95.9563 159.621 95.8 158.889 95.7953 158.037V151.091H98.8208V157.497C98.8256 158.141 98.9984 158.65 99.3393 159.024C99.6802 159.398 100.137 159.585 100.71 159.585C101.075 159.585 101.416 159.502 101.733 159.337C102.05 159.166 102.306 158.915 102.5 158.584C102.699 158.252 102.796 157.843 102.791 157.355ZM113.166 162.213C112.048 162.213 111.087 161.976 110.282 161.503C109.482 161.025 108.866 160.362 108.436 159.514C108.009 158.667 107.796 157.691 107.796 156.588C107.796 155.471 108.012 154.491 108.443 153.648C108.878 152.8 109.496 152.14 110.296 151.666C111.097 151.188 112.048 150.949 113.151 150.949C114.103 150.949 114.936 151.122 115.651 151.467C116.366 151.813 116.932 152.298 117.349 152.923C117.766 153.548 117.995 154.282 118.038 155.125H115.183C115.102 154.58 114.889 154.143 114.544 153.811C114.203 153.475 113.755 153.307 113.201 153.307C112.732 153.307 112.323 153.435 111.972 153.69C111.627 153.941 111.357 154.308 111.163 154.791C110.969 155.274 110.872 155.859 110.872 156.545C110.872 157.241 110.966 157.833 111.156 158.321C111.35 158.809 111.622 159.18 111.972 159.436C112.323 159.692 112.732 159.82 113.201 159.82C113.547 159.82 113.857 159.749 114.132 159.607C114.411 159.464 114.641 159.259 114.82 158.989C115.005 158.714 115.126 158.385 115.183 158.001H118.038C117.99 158.835 117.763 159.569 117.356 160.203C116.954 160.833 116.397 161.325 115.687 161.68C114.977 162.036 114.136 162.213 113.166 162.213ZM125.778 151.091V153.364H119.208V151.091H125.778ZM120.699 148.477H123.725V158.648C123.725 158.927 123.768 159.145 123.853 159.301C123.938 159.453 124.056 159.559 124.208 159.621C124.364 159.682 124.544 159.713 124.748 159.713C124.89 159.713 125.032 159.701 125.174 159.678C125.316 159.649 125.425 159.628 125.501 159.614L125.976 161.865C125.825 161.912 125.612 161.967 125.337 162.028C125.063 162.095 124.729 162.135 124.336 162.149C123.607 162.178 122.967 162.08 122.418 161.858C121.874 161.635 121.45 161.29 121.147 160.821C120.844 160.352 120.695 159.76 120.699 159.045V148.477ZM132.56 162.213C131.457 162.213 130.503 161.979 129.698 161.51C128.898 161.036 128.28 160.378 127.844 159.536C127.409 158.688 127.191 157.705 127.191 156.588C127.191 155.461 127.409 154.476 127.844 153.634C128.28 152.786 128.898 152.128 129.698 151.659C130.503 151.186 131.457 150.949 132.56 150.949C133.663 150.949 134.615 151.186 135.415 151.659C136.22 152.128 136.84 152.786 137.276 153.634C137.712 154.476 137.93 155.461 137.93 156.588C137.93 157.705 137.712 158.688 137.276 159.536C136.84 160.378 136.22 161.036 135.415 161.51C134.615 161.979 133.663 162.213 132.56 162.213ZM132.574 159.869C133.076 159.869 133.495 159.727 133.831 159.443C134.168 159.154 134.421 158.761 134.591 158.264C134.767 157.767 134.854 157.201 134.854 156.567C134.854 155.932 134.767 155.366 134.591 154.869C134.421 154.372 134.168 153.979 133.831 153.69C133.495 153.402 133.076 153.257 132.574 153.257C132.068 153.257 131.642 153.402 131.296 153.69C130.955 153.979 130.697 154.372 130.522 154.869C130.351 155.366 130.266 155.932 130.266 156.567C130.266 157.201 130.351 157.767 130.522 158.264C130.697 158.761 130.955 159.154 131.296 159.443C131.642 159.727 132.068 159.869 132.574 159.869ZM139.897 162V151.091H142.83V152.994H142.944C143.143 152.317 143.476 151.806 143.945 151.46C144.414 151.11 144.954 150.935 145.564 150.935C145.716 150.935 145.879 150.944 146.055 150.963C146.23 150.982 146.384 151.008 146.516 151.041V153.726C146.374 153.683 146.178 153.645 145.927 153.612C145.676 153.579 145.446 153.562 145.238 153.562C144.793 153.562 144.395 153.66 144.045 153.854C143.699 154.043 143.424 154.308 143.221 154.649C143.022 154.99 142.922 155.383 142.922 155.828V162H139.897Z" fill="#2176E4"/>
</svg>
