<svg width="301" height="459" viewBox="0 0 301 459" fill="none" xmlns="http://www.w3.org/2000/svg">
<path d="M159.62 96C169.62 94.4001 181.12 100.333 185.62 103.5C188.787 106 195.52 112.2 197.12 117C198.72 121.8 219.787 169 230.12 192L286.62 210.5C292.12 212.667 302.42 220.4 299.62 234C296.82 247.6 283.454 250.667 277.12 250.5L210.12 229.5C206.453 228.5 198.42 225.3 195.62 220.5C192.82 215.7 187.12 201.5 184.62 195L170.12 264.5L212.12 296.5L219.62 302C223.453 305.667 231.02 314.4 230.62 320C230.22 325.6 230.453 347.333 230.62 357.5V441C228.62 447 221.72 458.8 210.12 458C198.52 457.2 189.62 446.333 186.62 441V331L130.62 290.5L117.62 348C117.62 350 115.72 356.4 108.12 366C100.52 375.6 54.9535 429.667 33.1201 455.5C27.6201 458.167 14.4201 461.2 5.62012 452C-3.17988 442.8 0.286784 431.5 3.12012 427L77.1201 337.5L113.12 158L91.6201 164.5L67.1201 224.5C63.4534 229.333 53.0201 237.9 40.6201 233.5C28.2201 229.1 27.1201 215 28.1201 208.5L55.6201 141.5C56.7868 138.667 60.7201 132.5 67.1201 130.5C73.5201 128.5 76.4535 126.667 77.1201 126L134.12 103.5C138.454 101.667 149.62 97.6 159.62 96ZM175.62 0C198.816 0 217.62 18.804 217.62 42C217.62 65.196 198.816 84 175.62 84C152.424 84 133.62 65.196 133.62 42C133.62 18.804 152.424 0 175.62 0Z" fill="#2176E4"/>
</svg>
