<svg width="557" height="558" viewBox="0 0 557 558" fill="none" xmlns="http://www.w3.org/2000/svg">
<path d="M243.97 1.188C260.803 0.0213337 298.47 -1.31198 314.47 2.688C330.47 6.68801 337.803 21.688 339.47 28.688L344.013 72.7554C355.625 76.4389 366.813 81.0757 377.485 86.5728C384.835 79.7653 400.45 66.5663 414.845 58.478C430.323 49.7814 446.524 54.7287 452.69 58.2896C465.159 69.658 492.136 95.979 500.293 110.313C508.45 124.647 502.667 140.309 498.755 146.349L470.65 179.332C476.451 190.473 481.311 202.182 485.125 214.354C496.011 214.557 512.873 215.608 526.577 218.802C543.868 222.832 552.482 237.418 554.628 244.207C556.156 261.011 558.297 298.64 554.641 314.722C550.985 330.804 536.146 338.457 529.183 340.274L484.545 345.845C480.887 357.162 476.323 368.071 470.938 378.488C477.833 385.938 490.832 401.308 498.846 415.502C507.574 430.963 502.659 447.173 499.111 453.346C487.768 465.839 461.502 492.87 447.185 501.056C432.868 509.242 417.193 503.49 411.146 499.591L378.054 471.508C366.877 477.308 355.131 482.162 342.92 485.963C342.688 496.802 341.554 514.208 338.182 528.265C334.04 545.53 319.4 554.05 312.597 556.152C295.783 557.571 258.14 559.468 242.082 555.708C226.025 551.949 218.467 537.061 216.696 530.086L211.378 485.121C199.985 481.411 189.006 476.783 178.53 471.323C170.774 478.628 156.738 490.738 143.64 498.484C128.358 507.521 112.052 502.933 105.809 499.509C93.0914 488.419 65.5379 462.702 57.0658 448.552C48.5938 434.402 54.03 418.614 57.807 412.49L85.8109 378.114C80.4717 367.737 75.946 356.872 72.3187 345.605C61.6268 345.286 43.3314 343.941 28.7161 340.209C11.5138 335.817 3.20741 321.055 1.20443 314.222C0.0300275 297.389 -1.32126 259.724 2.67122 243.722C6.66391 227.72 21.6613 220.379 28.6605 218.709L71.8519 214.237C75.6897 202.016 80.5823 190.262 86.4222 179.082C78.874 171.477 66.5877 157.972 58.5804 145.259C49.1185 130.237 53.2465 113.809 56.4935 107.472C67.2221 94.4483 92.1562 66.1838 106.063 57.3179C119.969 48.4521 135.903 53.4428 142.131 57.0464L180.1 86.2427C190.458 80.9514 201.298 76.4692 212.536 72.8804C212.827 62.2827 214.162 43.5752 217.97 28.688C222.37 11.4878 237.137 3.1879 243.97 1.188ZM278.471 159.46C212.347 159.46 158.743 213.064 158.743 279.188C158.743 345.312 212.347 398.916 278.471 398.916C344.595 398.916 398.199 345.312 398.199 279.188C398.199 213.064 344.595 159.46 278.471 159.46Z" fill="#021F53"/>
</svg>
