<svg width="2732" height="2732" viewBox="0 0 2732 2732" fill="none" xmlns="http://www.w3.org/2000/svg">
<rect width="2732" height="2732" fill="#2176E4"/>
<path d="M1502.71 1195.97L1515.35 1180.95C1513.24 1178.18 1507.21 1171.78 1499.94 1168.3C1492.67 1164.82 1478.2 1166.33 1471.88 1167.51C1471.48 1167.64 1471.25 1167.99 1473.46 1168.3C1476.23 1168.7 1484.92 1177 1486.11 1178.58C1487.06 1179.84 1494.14 1190.7 1497.57 1195.97H1502.71Z" fill="white"/>
<path d="M1100 1199.91C1090.83 1184.42 1080.11 1178.44 1075.89 1177.39C1069.17 1174.23 1102.37 1171.86 1113.04 1170.28C1121.57 1169.01 1174.03 1173.7 1199.19 1176.2C1217.24 1178.05 1253.81 1181.81 1255.7 1182.13C1257.6 1182.45 1285.48 1181.21 1299.18 1180.55C1304.71 1179.89 1317.28 1178.5 1323.28 1178.18C1330.79 1177.78 1366.75 1170.28 1385.33 1165.14C1400.19 1161.03 1417.6 1160 1424.45 1160C1434.86 1160.92 1458.68 1164.74 1470.69 1172.65C1482.7 1180.55 1486.76 1190.43 1487.29 1194.38H1467.13L1448.96 1188.06C1439.34 1186.21 1415.76 1182.53 1398.37 1182.53C1380.98 1182.53 1370.84 1184.37 1367.94 1185.29L1343.83 1190.43C1338.17 1191.88 1321.23 1195.96 1298.78 1200.71C1276.33 1205.45 1247.01 1209.27 1235.15 1210.59L1201.96 1211.77C1192.47 1212.17 1169.71 1213.19 1154.53 1214.14C1139.36 1215.09 1119.49 1219.54 1111.46 1221.65C1111.46 1220.86 1109.17 1215.41 1100 1199.91Z" fill="white"/>
<path d="M1186.89 1331.09C1179.14 1315.34 1186 1296.31 1202.02 1289.12L1248.89 1268.09C1252.34 1266.55 1256.34 1268.53 1257.19 1272.22L1266.11 1310.75C1266.73 1313.43 1265.44 1316.19 1262.99 1317.44L1208.57 1345.27C1202.11 1348.57 1194.19 1345.94 1190.99 1339.43L1186.89 1331.09Z" fill="white"/>
<path d="M1267.6 1262.58C1267.12 1260.64 1268.15 1258.65 1270 1257.91L1314.19 1240.23L1364.92 1226.23C1366.09 1225.9 1367.29 1226.7 1367.44 1227.91L1373.65 1278C1373.78 1279 1373.14 1279.94 1372.16 1280.19L1325.65 1292.01L1281.12 1308.24C1280 1308.64 1278.77 1307.99 1278.49 1306.83L1267.6 1262.58Z" fill="white"/>
<path d="M1387.31 1276.98L1380.59 1221.66C1430.78 1212.96 1485.71 1214.94 1497.57 1214.94C1509.42 1214.94 1505.07 1275.01 1485.71 1270.26C1470.22 1266.47 1413.65 1273.16 1387.31 1276.98Z" fill="white"/>
<path fill-rule="evenodd" clip-rule="evenodd" d="M1523.38 1181.33C1534.84 1182.65 1559.89 1185.92 1568.43 1188.45C1579.1 1191.61 1600.44 1198.33 1608.74 1203.07C1617.04 1207.81 1634.82 1216.9 1639.17 1224.41C1643.52 1231.92 1646.28 1241.4 1642.73 1251.68C1639.17 1261.95 1626.13 1289.22 1624.55 1293.17C1622.97 1297.12 1620.2 1310.28 1629.69 1316.88C1639.44 1322.42 1658.3 1337.67 1655.77 1354.43C1653.24 1371.18 1632.32 1390.92 1622.18 1398.69C1610.19 1407.12 1585.27 1423.67 1581.47 1422.4C1577.52 1423.06 1567.72 1423.98 1560.13 1422.4C1552.54 1420.82 1533.79 1414.63 1525.36 1411.73C1521.53 1417.66 1509.94 1430.39 1494.13 1433.86C1474.37 1438.21 1453.31 1425.17 1448.96 1415.29C1446.46 1411.07 1443.55 1402.8 1443.55 1397.11C1443.55 1391.42 1443.29 1391.58 1443.15 1392.37C1412.86 1391.05 1350.13 1390.15 1341.59 1397.11C1341.06 1402.12 1338.98 1413.71 1334.87 1420.03C1329.73 1427.94 1326.97 1440.19 1305.63 1446.51C1288.55 1451.57 1270.85 1437.55 1264.13 1429.91L1257.81 1422.01L1222.63 1436.23C1217.37 1437.29 1205.17 1438.53 1198.53 1435.05C1190.23 1430.7 1177.19 1421.22 1172.44 1403.43C1167.7 1385.65 1169.68 1394.74 1166.12 1382.49C1162.56 1370.24 1152.69 1331.11 1151.1 1320.05C1149.84 1311.19 1151.63 1306.08 1152.68 1304.63L1151.89 1303.05C1147.55 1301.6 1138.38 1296.89 1136.48 1289.62C1134.59 1282.34 1135.16 1273.41 1135.69 1269.86C1136.61 1266.56 1139.41 1258.08 1143.2 1250.49C1146.99 1242.9 1142.67 1227.31 1140.04 1220.46C1159.01 1218.74 1202.16 1215.48 1223.03 1216.11C1243.9 1216.74 1284.94 1209.26 1302.86 1205.44C1323.28 1200.43 1367.28 1190.42 1379.92 1190.42C1395.73 1190.42 1434.06 1190.03 1445.52 1195.16C1456.99 1200.3 1431.69 1194.37 1417.47 1197.93C1406.08 1200.78 1382.43 1204.12 1372.02 1205.44C1350.02 1210.58 1297.09 1225.44 1261.36 1243.77C1225.64 1262.11 1218.29 1265.38 1219.08 1264.72L1191.81 1280.13C1186.94 1283.16 1176.48 1290.01 1173.63 1293.17C1170.07 1297.12 1167.7 1301.47 1166.91 1305.82C1166.28 1309.3 1166.65 1316.23 1166.91 1319.26L1176.79 1365.89C1180.22 1378.8 1187.62 1404.86 1189.83 1405.8C1192.05 1406.75 1197.34 1403.04 1199.71 1401.06L1216.31 1390.39L1236.07 1379.72L1247.14 1374.19C1247.66 1369.45 1250.48 1358.62 1255.44 1351.66C1261.64 1342.97 1264.13 1336.25 1283.1 1330.72C1302.07 1325.18 1319.06 1340.6 1322.22 1343.76C1325.39 1346.92 1336.85 1339.41 1380.32 1333.09C1415.1 1328.03 1451.72 1330.98 1465.68 1333.09C1470.55 1327.69 1483.78 1317.52 1497.69 1320.05C1511.6 1322.58 1520.35 1327.95 1522.98 1330.32C1525.22 1331.64 1530.26 1335.62 1532.47 1340.99C1534.68 1346.37 1535.23 1349.55 1535.23 1350.48L1561.32 1363.12L1582.26 1375.77L1602.42 1392.37C1608.87 1388.42 1623.68 1378.3 1631.27 1369.45C1640.75 1358.38 1641.54 1349.69 1639.57 1346.92C1637.59 1344.15 1638.78 1340.2 1620.6 1330.32C1606.05 1322.42 1581.6 1307.27 1571.2 1300.68L1536.42 1283.29C1531.68 1281.71 1522.43 1275.47 1523.38 1263.14C1524.33 1250.81 1527.2 1241.4 1528.52 1238.24C1529.97 1232.31 1534.05 1220.14 1538.79 1218.88C1544.72 1217.3 1560.13 1218.09 1585.03 1227.17C1604.95 1234.45 1620.73 1241.01 1626.13 1243.38C1627.18 1243.77 1628.98 1242.82 1627.71 1235.87C1626.44 1228.91 1597.68 1214.79 1583.45 1208.6C1575.41 1206.23 1556.73 1201.17 1546.3 1199.91C1533.26 1198.33 1514.29 1196.35 1513.1 1196.75C1512.16 1197.06 1519.56 1186.6 1523.38 1181.33ZM1316.28 1378.93C1312.56 1361.47 1299 1349.56 1285.99 1352.33C1272.98 1355.1 1265.44 1371.5 1269.16 1388.97C1272.88 1406.43 1286.44 1418.34 1299.45 1415.57C1312.47 1412.8 1320 1396.39 1316.28 1378.93ZM1499.48 1339.07C1486.4 1336.63 1473.15 1348.89 1469.88 1366.44C1466.62 1384 1474.58 1400.2 1487.65 1402.63C1500.73 1405.06 1513.98 1392.8 1517.25 1375.25C1520.51 1357.7 1512.55 1341.5 1499.48 1339.07Z" fill="white"/>
<path fill-rule="evenodd" clip-rule="evenodd" d="M1320.42 1513.7C1318.72 1513.7 1314.81 1516.76 1312.77 1529C1310.73 1541.24 1318.71 1535.8 1322.96 1531.55L1330.62 1516.25L1340.81 1521.35L1333.17 1539.2L1328.06 1551.95C1326.36 1555.35 1322.46 1562.65 1320.42 1564.69L1320.41 1564.7C1317.86 1567.25 1312.76 1572.34 1307.67 1572.34C1302.57 1572.34 1297.47 1572.34 1294.92 1569.79C1292.88 1567.75 1297.47 1562.14 1300.02 1559.59L1310.21 1554.5C1314.29 1552.46 1313.62 1550.25 1312.77 1549.4C1311.07 1549.4 1307.16 1548.88 1305.12 1546.84C1302.57 1544.29 1302.57 1541.74 1302.57 1531.55C1302.57 1523.39 1307.66 1512.85 1310.21 1508.6L1320.42 1513.7ZM1255.11 1452.08C1257.83 1451.93 1260.54 1451.97 1262.97 1452.29C1265.39 1452.62 1267.57 1453.26 1269.19 1454.33C1276.96 1459.52 1282.11 1467.28 1287.22 1480.06C1289.32 1485.3 1288.87 1490.74 1287.49 1495.37C1286.18 1499.77 1284.02 1503.48 1282.32 1505.71L1292.21 1515.59L1292.29 1515.68L1292.33 1515.79C1293.19 1518.37 1294.91 1525.06 1294.91 1531.25C1294.91 1539.01 1292.32 1546.76 1287.17 1554.47C1285.04 1557.67 1280.66 1560.06 1276.16 1561.74C1271.64 1563.43 1266.88 1564.46 1263.88 1564.89L1263.84 1564.9H1225.1L1225.06 1564.43L1217.41 1462.44L1217.38 1462.05L1217.75 1461.93L1240.7 1454.28L1240.72 1454.27L1240.74 1454.27C1244.16 1453.41 1249.68 1452.38 1255.11 1452.08ZM1551.95 1505.54C1557.25 1505.54 1561.83 1508.63 1565.38 1512.39C1568.94 1516.16 1571.52 1520.68 1572.81 1523.7L1572.85 1523.79V1546.92L1572.83 1546.99C1572 1549.56 1570.05 1553.39 1566.86 1556.6C1563.86 1559.61 1559.76 1562.1 1554.46 1562.45L1554.44 1562.64C1554.08 1562.6 1553.69 1562.55 1553.29 1562.49C1549.28 1561.9 1543.75 1560.37 1539.22 1557.5C1534.67 1554.62 1531.05 1550.35 1531.05 1544.29V1523.79L1531.09 1523.7C1532.38 1520.68 1534.96 1516.16 1538.52 1512.39C1542.06 1508.63 1546.65 1505.54 1551.95 1505.54ZM1457.85 1526.66C1458.7 1519.86 1462.95 1506.77 1473.15 1508.81C1485.89 1511.36 1488.44 1516.46 1488.44 1519.01V1529.21L1470.59 1531.76C1469.74 1535.16 1469.07 1541.96 1473.15 1541.96C1478.24 1541.96 1480.79 1541.96 1483.34 1539.41C1484.33 1538.42 1485.36 1537.79 1486.26 1537.4L1490.99 1544.51C1487.59 1549.61 1478.24 1558.79 1468.04 1554.71C1457.85 1550.63 1457 1534.31 1457.85 1526.66ZM1506.05 1516.25C1508.6 1513.7 1514.21 1508.6 1516.25 1508.6C1518.8 1508.6 1523.9 1513.7 1523.9 1516.25V1529H1516.25L1513.7 1518.8C1510.3 1522.2 1503.5 1531.04 1503.5 1539.2V1551.95H1493.3L1495.85 1508.6H1506.05V1516.25ZM1419.35 1452.49L1414.25 1516.24H1429.54L1439.74 1452.49L1460.14 1457.59C1455.89 1487.34 1447.4 1547.34 1447.39 1549.39C1447.39 1551.43 1432.1 1550.24 1424.45 1549.39V1534.09H1409.15V1546.84C1401.5 1545.99 1386.2 1543.78 1386.2 1541.74C1386.2 1539.69 1394.7 1477.99 1398.95 1447.39L1419.35 1452.49ZM1370.27 1500.62C1371.98 1502.77 1374.55 1506.36 1376.69 1510.19C1378.82 1514 1380.58 1518.13 1380.58 1521.33V1544.78H1369.38V1542.46C1367.19 1543.28 1363.93 1544.29 1360.47 1544.9C1356.65 1545.59 1352.51 1545.82 1349.32 1544.76C1345.28 1543.41 1343.28 1540.04 1342.62 1536.73C1342.29 1535.08 1342.28 1533.42 1342.53 1532C1342.78 1530.6 1343.29 1529.37 1344.03 1528.63C1345.35 1527.31 1347.31 1526 1349.26 1525.03C1351.18 1524.07 1353.18 1523.38 1354.58 1523.38H1364.28V1519C1363.37 1518.2 1360.86 1516.74 1357.13 1516.74H1349.17L1349.03 1516.46C1348.17 1514.73 1347.12 1511.99 1346.82 1509.41C1346.52 1506.86 1346.91 1504.21 1349.26 1503.04C1353.42 1500.96 1357.92 1500.44 1359.68 1500.44H1370.12L1370.27 1500.62ZM1248.02 1521.12L1250.57 1541.52L1250.61 1541.86L1250.94 1541.94C1252.68 1542.37 1255.42 1542.77 1258 1542.53C1260.55 1542.29 1263.12 1541.41 1264.26 1539.13C1265.56 1536.52 1266.23 1533.9 1266.23 1531.58C1266.23 1529.26 1265.56 1527.2 1264.17 1525.8C1262.07 1523.7 1258.09 1521.46 1256.39 1520.61L1256.28 1520.56H1247.95L1248.02 1521.12ZM1554.49 1521.34C1551.94 1521.34 1546.84 1522.88 1546.84 1529C1546.84 1535.11 1551.94 1538.34 1554.49 1539.19C1557.04 1539.19 1559.59 1536.64 1559.59 1529C1559.59 1522.88 1556.19 1521.34 1554.49 1521.34ZM1364.78 1531.54C1362.23 1531.54 1357.13 1532.05 1357.13 1534.09C1357.13 1536.64 1364.77 1539.19 1364.78 1536.64V1531.54ZM1475.45 1516.24C1471.38 1516.24 1470.35 1517.93 1470.35 1518.79V1523.89H1478C1478.85 1521.34 1479.53 1516.24 1475.45 1516.24ZM1256.13 1478.78C1254.89 1478.61 1253.4 1478.6 1251.87 1478.67C1248.8 1478.83 1245.46 1479.34 1243.32 1479.77L1242.86 1479.86L1242.92 1480.32L1245.47 1500.72L1245.52 1501.16H1245.96C1248.54 1501.16 1252.4 1500.9 1255.64 1500.12C1257.26 1499.74 1258.76 1499.21 1259.86 1498.5C1260.97 1497.78 1261.76 1496.82 1261.76 1495.56C1261.76 1493.01 1261.76 1489.8 1261.44 1486.9C1261.28 1485.45 1261.04 1484.06 1260.67 1482.86C1260.3 1481.67 1259.79 1480.62 1259.07 1479.9C1258.43 1479.27 1257.34 1478.95 1256.13 1478.78Z" fill="white"/>
</svg>
