<svg width="276" height="62" viewBox="0 0 276 62" fill="none" xmlns="http://www.w3.org/2000/svg">
<rect width="276" height="62" rx="31" fill="#1C4D8D"/>
<path d="M94.7344 33.8047C94.7344 34.4349 94.5755 35.0052 94.2578 35.5156C93.9401 36.0208 93.4609 36.4219 92.8203 36.7188C92.1797 37.0104 91.375 37.1562 90.4062 37.1562C89.6771 37.1562 89.0521 37.1042 88.5312 37C88.0104 36.8958 87.5104 36.7396 87.0312 36.5312V34.4922C87.5677 34.7318 88.1406 34.9271 88.75 35.0781C89.3594 35.224 89.9323 35.2969 90.4688 35.2969C91.0677 35.2969 91.513 35.1797 91.8047 34.9453C92.0964 34.7057 92.2422 34.3906 92.2422 34C92.2422 33.724 92.1693 33.4922 92.0234 33.3047C91.8828 33.1172 91.6458 32.9349 91.3125 32.7578C90.9792 32.5807 90.5312 32.3724 89.9688 32.1328C89.375 31.8984 88.8672 31.6354 88.4453 31.3438C88.0234 31.0521 87.7005 30.7005 87.4766 30.2891C87.2526 29.8724 87.1406 29.3594 87.1406 28.75C87.1406 28.0938 87.3099 27.5391 87.6484 27.0859C87.9922 26.6276 88.4688 26.2812 89.0781 26.0469C89.6927 25.8073 90.401 25.6875 91.2031 25.6875C91.901 25.6875 92.5339 25.7578 93.1016 25.8984C93.6693 26.0339 94.1823 26.2005 94.6406 26.3984L93.875 28.1875C93.4167 27.9896 92.9531 27.8307 92.4844 27.7109C92.0208 27.5859 91.5677 27.5234 91.125 27.5234C90.6146 27.5234 90.2344 27.6328 89.9844 27.8516C89.7344 28.0651 89.6094 28.3411 89.6094 28.6797C89.6094 28.9505 89.6823 29.1823 89.8281 29.375C89.974 29.5677 90.2161 29.7552 90.5547 29.9375C90.8984 30.1146 91.362 30.3203 91.9453 30.5547C92.5391 30.7995 93.0443 31.0625 93.4609 31.3438C93.8776 31.625 94.1927 31.9609 94.4062 32.3516C94.625 32.737 94.7344 33.2214 94.7344 33.8047ZM100.031 35.2031C100.26 35.2031 100.471 35.1797 100.664 35.1328C100.862 35.0807 101.06 35.0208 101.258 34.9531V36.75C100.987 36.8646 100.695 36.9609 100.383 37.0391C100.076 37.1172 99.6849 37.1562 99.2109 37.1562C98.7318 37.1562 98.3073 37.0729 97.9375 36.9062C97.5677 36.7396 97.2786 36.4479 97.0703 36.0312C96.8672 35.6146 96.7656 35.0339 96.7656 34.2891V30.2891H95.8359V29.2578L97 28.4531L97.6484 26.6484H99.2812V28.4453H101.156V30.2891H99.2812V34.1406C99.2812 34.849 99.5312 35.2031 100.031 35.2031ZM111.25 32.7031C111.25 34.1302 110.862 35.2292 110.086 36C109.31 36.7708 108.253 37.1562 106.914 37.1562C106.086 37.1562 105.349 36.9844 104.703 36.6406C104.057 36.2917 103.547 35.7865 103.172 35.125C102.802 34.4583 102.617 33.651 102.617 32.7031C102.617 31.2865 103.003 30.1979 103.773 29.4375C104.549 28.6719 105.612 28.2891 106.961 28.2891C107.794 28.2891 108.534 28.4609 109.18 28.8047C109.826 29.1484 110.331 29.6484 110.695 30.3047C111.065 30.9609 111.25 31.7604 111.25 32.7031ZM105.172 32.7031C105.172 33.526 105.31 34.1641 105.586 34.6172C105.862 35.0703 106.315 35.2969 106.945 35.2969C107.565 35.2969 108.013 35.0703 108.289 34.6172C108.565 34.1641 108.703 33.526 108.703 32.7031C108.703 31.8802 108.565 31.25 108.289 30.8125C108.013 30.375 107.56 30.1562 106.93 30.1562C106.315 30.1562 105.867 30.375 105.586 30.8125C105.31 31.25 105.172 31.8802 105.172 32.7031ZM118.398 28.2891C119.456 28.2891 120.294 28.6641 120.914 29.4141C121.539 30.1641 121.852 31.2604 121.852 32.7031C121.852 34.1615 121.523 35.2682 120.867 36.0234C120.211 36.7786 119.367 37.1562 118.336 37.1562C117.664 37.1562 117.128 37.0443 116.727 36.8203C116.331 36.5911 116.018 36.3438 115.789 36.0781H115.695C115.716 36.2708 115.737 36.4896 115.758 36.7344C115.779 36.974 115.789 37.2266 115.789 37.4922V40.75H113.289V28.4453H115.328L115.672 29.5547H115.789C116.034 29.2109 116.359 28.9141 116.766 28.6641C117.177 28.4141 117.721 28.2891 118.398 28.2891ZM117.578 30.2344C116.927 30.2344 116.466 30.4193 116.195 30.7891C115.93 31.1536 115.794 31.7057 115.789 32.4453V32.6875C115.789 33.4896 115.917 34.1042 116.172 34.5312C116.427 34.9583 116.901 35.1719 117.594 35.1719C118.734 35.1719 119.305 34.3385 119.305 32.6719C119.305 31.0469 118.729 30.2344 117.578 30.2344ZM139.719 25.8438H142.125L139.633 37H136.727L135.633 30.9531C135.602 30.75 135.555 30.487 135.492 30.1641C135.43 29.8411 135.37 29.5234 135.312 29.2109C135.255 28.8984 135.214 28.6536 135.188 28.4766C135.167 28.6536 135.125 28.8984 135.062 29.2109C135.005 29.5234 134.945 29.8438 134.883 30.1719C134.82 30.4948 134.771 30.763 134.734 30.9766L133.633 37H130.727L128.227 25.8438H130.641L131.797 32.0234C131.844 32.2734 131.901 32.5703 131.969 32.9141C132.036 33.2526 132.102 33.5938 132.164 33.9375C132.227 34.276 132.271 34.5729 132.297 34.8281C132.344 34.4792 132.411 34.0859 132.5 33.6484C132.589 33.2109 132.68 32.7812 132.773 32.3594C132.867 31.9323 132.945 31.5677 133.008 31.2656L134.016 25.8438H136.344L137.344 31.2891C137.406 31.5964 137.484 31.9661 137.578 32.3984C137.677 32.8255 137.771 33.2552 137.859 33.6875C137.953 34.1198 138.018 34.5 138.055 34.8281C138.086 34.5729 138.13 34.276 138.188 33.9375C138.25 33.5938 138.315 33.2526 138.383 32.9141C138.451 32.5755 138.505 32.2786 138.547 32.0234L139.719 25.8438ZM147.391 28.2969C148.427 28.2969 149.224 28.5521 149.781 29.0625C150.344 29.5677 150.625 30.3177 150.625 31.3125V37H148.891L148.406 35.8438H148.344C147.995 36.3021 147.625 36.6354 147.234 36.8438C146.844 37.0521 146.305 37.1562 145.617 37.1562C144.893 37.1562 144.289 36.9349 143.805 36.4922C143.326 36.0495 143.086 35.3724 143.086 34.4609C143.086 33.5651 143.396 32.8906 144.016 32.4375C144.635 31.9844 145.549 31.737 146.758 31.6953L148.133 31.6484V31.3984C148.133 30.9089 148.029 30.5651 147.82 30.3672C147.612 30.1693 147.328 30.0703 146.969 30.0703C146.62 30.0703 146.245 30.1328 145.844 30.2578C145.443 30.3776 145.049 30.5286 144.664 30.7109L143.938 29.0547C144.385 28.8151 144.898 28.6302 145.477 28.5C146.055 28.3646 146.693 28.2969 147.391 28.2969ZM148.141 33.0625L147.359 33.0938C146.714 33.1198 146.263 33.2396 146.008 33.4531C145.758 33.6667 145.633 33.9661 145.633 34.3516C145.633 34.7057 145.721 34.9661 145.898 35.1328C146.081 35.2943 146.318 35.375 146.609 35.375C147.042 35.375 147.404 35.2344 147.695 34.9531C147.992 34.6719 148.141 34.2734 148.141 33.7578V33.0625ZM154.445 25.0781C154.826 25.0781 155.156 25.1615 155.438 25.3281C155.719 25.4896 155.859 25.7969 155.859 26.25C155.859 26.6927 155.719 27 155.438 27.1719C155.156 27.3385 154.826 27.4219 154.445 27.4219C154.049 27.4219 153.714 27.3385 153.438 27.1719C153.161 27 153.023 26.6927 153.023 26.25C153.023 25.7969 153.161 25.4896 153.438 25.3281C153.714 25.1615 154.049 25.0781 154.445 25.0781ZM153.18 28.4453H155.68V37H153.18V28.4453ZM161.703 35.2031C161.932 35.2031 162.143 35.1797 162.336 35.1328C162.534 35.0807 162.732 35.0208 162.93 34.9531V36.75C162.659 36.8646 162.367 36.9609 162.055 37.0391C161.747 37.1172 161.357 37.1562 160.883 37.1562C160.404 37.1562 159.979 37.0729 159.609 36.9062C159.24 36.7396 158.951 36.4479 158.742 36.0312C158.539 35.6146 158.438 35.0339 158.438 34.2891V30.2891H157.508V29.2578L158.672 28.4531L159.32 26.6484H160.953V28.4453H162.828V30.2891H160.953V34.1406C160.953 34.849 161.203 35.2031 161.703 35.2031ZM166.133 25.0781C166.513 25.0781 166.844 25.1615 167.125 25.3281C167.406 25.4896 167.547 25.7969 167.547 26.25C167.547 26.6927 167.406 27 167.125 27.1719C166.844 27.3385 166.513 27.4219 166.133 27.4219C165.737 27.4219 165.401 27.3385 165.125 27.1719C164.849 27 164.711 26.6927 164.711 26.25C164.711 25.7969 164.849 25.4896 165.125 25.3281C165.401 25.1615 165.737 25.0781 166.133 25.0781ZM164.867 28.4453H167.367V37H164.867V28.4453ZM174.969 28.2891C175.901 28.2891 176.643 28.5391 177.195 29.0391C177.747 29.5339 178.023 30.3307 178.023 31.4297V37H175.539V32.0625C175.539 31.4583 175.432 31.0026 175.219 30.6953C175.01 30.388 174.674 30.2344 174.211 30.2344C173.529 30.2344 173.062 30.4766 172.812 30.9609C172.568 31.4401 172.445 32.1302 172.445 33.0312V37H169.945V28.4453H171.859L172.203 29.5859H172.305C172.872 28.7214 173.76 28.2891 174.969 28.2891ZM183.5 28.2891C184.12 28.2891 184.643 28.4036 185.07 28.6328C185.503 28.8568 185.859 29.1536 186.141 29.5234H186.211L186.43 28.4453H188.547V37.0547C188.547 38.263 188.174 39.1797 187.43 39.8047C186.69 40.4349 185.544 40.75 183.992 40.75C183.284 40.75 182.651 40.7109 182.094 40.6328C181.542 40.5547 181.023 40.4219 180.539 40.2344V38.1562C181.049 38.375 181.565 38.5391 182.086 38.6484C182.612 38.7578 183.221 38.8125 183.914 38.8125C184.612 38.8125 185.143 38.6693 185.508 38.3828C185.878 38.0964 186.062 37.6927 186.062 37.1719V36.9609C186.062 36.8307 186.07 36.6641 186.086 36.4609C186.102 36.2578 186.12 36.0703 186.141 35.8984H186.047C185.797 36.2682 185.461 36.5703 185.039 36.8047C184.622 37.0391 184.102 37.1562 183.477 37.1562C182.424 37.1562 181.583 36.776 180.953 36.0156C180.323 35.2552 180.008 34.1615 180.008 32.7344C180.008 31.3125 180.326 30.2161 180.961 29.4453C181.596 28.6745 182.443 28.2891 183.5 28.2891ZM184.305 30.2188C183.737 30.2188 183.305 30.4375 183.008 30.875C182.711 31.3073 182.562 31.9375 182.562 32.7656C182.562 33.6094 182.711 34.2318 183.008 34.6328C183.305 35.0339 183.75 35.2344 184.344 35.2344C185.021 35.2344 185.5 35.0573 185.781 34.7031C186.068 34.349 186.211 33.7969 186.211 33.0469V32.7031C186.211 31.875 186.068 31.2552 185.781 30.8438C185.5 30.4271 185.008 30.2188 184.305 30.2188Z" fill="white"/>
<path d="M67.5 21C73.299 21 78 25.701 78 31.5C78 37.299 73.299 42 67.5 42C61.701 42 57 37.299 57 31.5C57 25.701 61.701 21 67.5 21ZM67.5 22.0332C62.2714 22.0332 58.0332 26.2714 58.0332 31.5C58.0332 36.7286 62.2714 40.9668 67.5 40.9668C72.7286 40.9668 76.9668 36.7286 76.9668 31.5C76.9668 26.2714 72.7286 22.0332 67.5 22.0332ZM71.0518 26.1064C71.379 25.7371 71.9438 25.7025 72.3135 26.0293C72.6831 26.3567 72.7171 26.9224 72.3896 27.292L68.501 31.6807L72.3896 36.0703C72.7171 36.4399 72.6831 37.0056 72.3135 37.333C71.944 37.66 71.3791 37.626 71.0518 37.2568L67.3066 33.0293L63.5635 37.2559C63.236 37.6253 62.6704 37.6604 62.3008 37.333C61.9316 37.0056 61.8975 36.4398 62.2246 36.0703L66.1123 31.6807L62.2246 27.292C61.8978 26.9226 61.9319 26.3576 62.3008 26.0303C62.6703 25.703 63.236 25.7372 63.5635 26.1064L67.3066 30.332L71.0518 26.1064Z" fill="white"/>
</svg>
