<svg width="276" height="62" viewBox="0 0 276 62" fill="none" xmlns="http://www.w3.org/2000/svg">
<rect width="276" height="62" rx="31" fill="#1C4D8D"/>
<circle cx="12.5" cy="12.5" r="12.5" transform="matrix(1 0 0 -1 21 43)" fill="white"/>
<rect x="25.7474" y="31.1953" width="2.44304" height="7.8795" rx="1.22152" transform="rotate(-52.2146 25.7474 31.1953)" fill="#1C4D8D"/>
<rect x="40.2723" y="24.9497" width="2.44304" height="13.7348" rx="1.22152" transform="rotate(47.6877 40.2723 24.9497)" fill="#1C4D8D"/>
<path d="M61.9062 34.7109V36H57.4219V34.7109L58.4141 34.2969V26.5391L57.4219 26.125V24.8438H61.9062V26.125L60.9141 26.5391V34.2969L61.9062 34.7109ZM72.5781 27.2969C73.6146 27.2969 74.4115 27.5521 74.9688 28.0625C75.5312 28.5677 75.8125 29.3177 75.8125 30.3125V36H74.0781L73.5938 34.8438H73.5312C73.1823 35.3021 72.8125 35.6354 72.4219 35.8438C72.0312 36.0521 71.4922 36.1562 70.8047 36.1562C70.0807 36.1562 69.4766 35.9349 68.9922 35.4922C68.513 35.0495 68.2734 34.3724 68.2734 33.4609C68.2734 32.5651 68.5833 31.8906 69.2031 31.4375C69.8229 30.9844 70.737 30.737 71.9453 30.6953L73.3203 30.6484V30.3984C73.3203 29.9089 73.2161 29.5651 73.0078 29.3672C72.7995 29.1693 72.5156 29.0703 72.1562 29.0703C71.8073 29.0703 71.4323 29.1328 71.0312 29.2578C70.6302 29.3776 70.237 29.5286 69.8516 29.7109L69.125 28.0547C69.5729 27.8151 70.0859 27.6302 70.6641 27.5C71.2422 27.3646 71.8802 27.2969 72.5781 27.2969ZM73.3281 32.0625L72.5469 32.0938C71.901 32.1198 71.4505 32.2396 71.1953 32.4531C70.9453 32.6667 70.8203 32.9661 70.8203 33.3516C70.8203 33.7057 70.9089 33.9661 71.0859 34.1328C71.2682 34.2943 71.5052 34.375 71.7969 34.375C72.2292 34.375 72.5911 34.2344 72.8828 33.9531C73.1797 33.6719 73.3281 33.2734 73.3281 32.7578V32.0625ZM88.3594 27.2891C89.3333 27.2891 90.0703 27.5391 90.5703 28.0391C91.0755 28.5339 91.3281 29.3307 91.3281 30.4297V36H88.8359V31.0625C88.8359 30.4062 88.7318 29.9375 88.5234 29.6562C88.3203 29.375 88.0104 29.2344 87.5938 29.2344C87.0156 29.2344 86.6094 29.4531 86.375 29.8906C86.1458 30.3281 86.0312 30.9531 86.0312 31.7656V36H83.5312V31.0625C83.5312 30.4271 83.4323 29.9635 83.2344 29.6719C83.0417 29.3802 82.737 29.2344 82.3203 29.2344C81.7109 29.2344 81.2943 29.4766 81.0703 29.9609C80.8516 30.4401 80.7422 31.1302 80.7422 32.0312V36H78.2422V27.4453H80.1484L80.5156 28.5312H80.5938C80.8281 28.151 81.1615 27.849 81.5938 27.625C82.0312 27.401 82.5495 27.2891 83.1484 27.2891C83.7839 27.2891 84.3099 27.3984 84.7266 27.6172C85.1484 27.8359 85.4792 28.151 85.7188 28.5625H85.8047C86.0807 28.1458 86.4401 27.8307 86.8828 27.6172C87.3307 27.3984 87.8229 27.2891 88.3594 27.2891ZM106.297 35.9922L105.219 31.8984C105.146 31.6328 105.076 31.3385 105.008 31.0156C104.94 30.6927 104.88 30.388 104.828 30.1016C104.781 29.8151 104.745 29.5938 104.719 29.4375H104.664C104.643 29.5938 104.607 29.8151 104.555 30.1016C104.503 30.388 104.44 30.6979 104.367 31.0312C104.299 31.3646 104.224 31.6797 104.141 31.9766L103.062 35.9922H100.383L98.0234 27.4375H100.516L101.367 31.1406C101.43 31.401 101.49 31.6953 101.547 32.0234C101.609 32.3516 101.664 32.6797 101.711 33.0078C101.758 33.3307 101.789 33.6172 101.805 33.8672H101.867C101.888 33.6224 101.927 33.3307 101.984 32.9922C102.047 32.6484 102.109 32.3229 102.172 32.0156C102.24 31.7031 102.292 31.4766 102.328 31.3359L103.352 27.4375H106.109L107.078 31.3672C107.13 31.5755 107.188 31.8281 107.25 32.125C107.318 32.4219 107.378 32.724 107.43 33.0312C107.487 33.3385 107.529 33.6146 107.555 33.8594H107.609C107.635 33.6146 107.669 33.3307 107.711 33.0078C107.758 32.6797 107.81 32.3516 107.867 32.0234C107.93 31.6901 107.992 31.3958 108.055 31.1406L108.961 27.4375H111.391L109.016 35.9922H106.297ZM116.594 27.2969C117.63 27.2969 118.427 27.5521 118.984 28.0625C119.547 28.5677 119.828 29.3177 119.828 30.3125V36H118.094L117.609 34.8438H117.547C117.198 35.3021 116.828 35.6354 116.438 35.8438C116.047 36.0521 115.508 36.1562 114.82 36.1562C114.096 36.1562 113.492 35.9349 113.008 35.4922C112.529 35.0495 112.289 34.3724 112.289 33.4609C112.289 32.5651 112.599 31.8906 113.219 31.4375C113.839 30.9844 114.753 30.737 115.961 30.6953L117.336 30.6484V30.3984C117.336 29.9089 117.232 29.5651 117.023 29.3672C116.815 29.1693 116.531 29.0703 116.172 29.0703C115.823 29.0703 115.448 29.1328 115.047 29.2578C114.646 29.3776 114.253 29.5286 113.867 29.7109L113.141 28.0547C113.589 27.8151 114.102 27.6302 114.68 27.5C115.258 27.3646 115.896 27.2969 116.594 27.2969ZM117.344 32.0625L116.562 32.0938C115.917 32.1198 115.466 32.2396 115.211 32.4531C114.961 32.6667 114.836 32.9661 114.836 33.3516C114.836 33.7057 114.924 33.9661 115.102 34.1328C115.284 34.2943 115.521 34.375 115.812 34.375C116.245 34.375 116.607 34.2344 116.898 33.9531C117.195 33.6719 117.344 33.2734 117.344 32.7578V32.0625ZM123.648 24.0781C124.029 24.0781 124.359 24.1615 124.641 24.3281C124.922 24.4896 125.062 24.7969 125.062 25.25C125.062 25.6927 124.922 26 124.641 26.1719C124.359 26.3385 124.029 26.4219 123.648 26.4219C123.253 26.4219 122.917 26.3385 122.641 26.1719C122.365 26 122.227 25.6927 122.227 25.25C122.227 24.7969 122.365 24.4896 122.641 24.3281C122.917 24.1615 123.253 24.0781 123.648 24.0781ZM122.383 27.4453H124.883V36H122.383V27.4453ZM130.906 34.2031C131.135 34.2031 131.346 34.1797 131.539 34.1328C131.737 34.0807 131.935 34.0208 132.133 33.9531V35.75C131.862 35.8646 131.57 35.9609 131.258 36.0391C130.951 36.1172 130.56 36.1562 130.086 36.1562C129.607 36.1562 129.182 36.0729 128.812 35.9062C128.443 35.7396 128.154 35.4479 127.945 35.0312C127.742 34.6146 127.641 34.0339 127.641 33.2891V29.2891H126.711V28.2578L127.875 27.4531L128.523 25.6484H130.156V27.4453H132.031V29.2891H130.156V33.1406C130.156 33.849 130.406 34.2031 130.906 34.2031ZM135.336 24.0781C135.716 24.0781 136.047 24.1615 136.328 24.3281C136.609 24.4896 136.75 24.7969 136.75 25.25C136.75 25.6927 136.609 26 136.328 26.1719C136.047 26.3385 135.716 26.4219 135.336 26.4219C134.94 26.4219 134.604 26.3385 134.328 26.1719C134.052 26 133.914 25.6927 133.914 25.25C133.914 24.7969 134.052 24.4896 134.328 24.3281C134.604 24.1615 134.94 24.0781 135.336 24.0781ZM134.07 27.4453H136.57V36H134.07V27.4453ZM144.172 27.2891C145.104 27.2891 145.846 27.5391 146.398 28.0391C146.951 28.5339 147.227 29.3307 147.227 30.4297V36H144.742V31.0625C144.742 30.4583 144.635 30.0026 144.422 29.6953C144.214 29.388 143.878 29.2344 143.414 29.2344C142.732 29.2344 142.266 29.4766 142.016 29.9609C141.771 30.4401 141.648 31.1302 141.648 32.0312V36H139.148V27.4453H141.062L141.406 28.5859H141.508C142.076 27.7214 142.964 27.2891 144.172 27.2891ZM152.703 27.2891C153.323 27.2891 153.846 27.4036 154.273 27.6328C154.706 27.8568 155.062 28.1536 155.344 28.5234H155.414L155.633 27.4453H157.75V36.0547C157.75 37.263 157.378 38.1797 156.633 38.8047C155.893 39.4349 154.747 39.75 153.195 39.75C152.487 39.75 151.854 39.7109 151.297 39.6328C150.745 39.5547 150.227 39.4219 149.742 39.2344V37.1562C150.253 37.375 150.768 37.5391 151.289 37.6484C151.815 37.7578 152.424 37.8125 153.117 37.8125C153.815 37.8125 154.346 37.6693 154.711 37.3828C155.081 37.0964 155.266 36.6927 155.266 36.1719V35.9609C155.266 35.8307 155.273 35.6641 155.289 35.4609C155.305 35.2578 155.323 35.0703 155.344 34.8984H155.25C155 35.2682 154.664 35.5703 154.242 35.8047C153.826 36.0391 153.305 36.1562 152.68 36.1562C151.628 36.1562 150.786 35.776 150.156 35.0156C149.526 34.2552 149.211 33.1615 149.211 31.7344C149.211 30.3125 149.529 29.2161 150.164 28.4453C150.799 27.6745 151.646 27.2891 152.703 27.2891ZM153.508 29.2188C152.94 29.2188 152.508 29.4375 152.211 29.875C151.914 30.3073 151.766 30.9375 151.766 31.7656C151.766 32.6094 151.914 33.2318 152.211 33.6328C152.508 34.0339 152.953 34.2344 153.547 34.2344C154.224 34.2344 154.703 34.0573 154.984 33.7031C155.271 33.349 155.414 32.7969 155.414 32.0469V31.7031C155.414 30.875 155.271 30.2552 154.984 29.8438C154.703 29.4271 154.211 29.2188 153.508 29.2188Z" fill="white"/>
</svg>
