<svg width="1237" height="461" viewBox="0 0 1237 461" fill="none" xmlns="http://www.w3.org/2000/svg">
<path d="M360.725 244.322C354.46 244.323 340.053 255.599 332.535 300.704C325.018 345.81 354.461 325.762 370.123 310.101L398.314 253.719L435.902 272.513L407.711 338.292L388.917 385.277C382.652 397.807 368.243 424.744 360.725 432.262L360.721 432.267C351.321 441.665 332.531 460.453 313.741 460.453C294.948 460.453 276.152 460.453 266.755 451.056C259.238 443.538 276.152 422.865 285.549 413.468L323.137 394.674C338.172 387.156 335.666 379.012 332.534 375.88C326.27 375.88 311.86 374.001 304.343 366.483C294.946 357.086 294.946 347.689 294.946 310.101C294.946 280.03 313.74 241.19 323.137 225.528L360.725 244.322ZM137.696 18.6094C147.66 18.0602 157.561 18.1762 166.393 19.376C175.217 20.5748 183.017 22.8611 188.745 26.6797C217.059 45.5556 235.902 73.8568 254.711 120.88C262.283 139.811 260.697 159.511 255.665 176.416C250.707 193.071 242.39 207.053 236.119 214.995L273.394 252.271L273.478 252.354L273.515 252.466C276.657 261.893 282.937 286.381 282.938 309.006C282.937 337.314 273.499 365.599 254.662 393.855C247.051 405.272 231.256 413.932 214.72 420.123C198.157 426.324 180.736 430.091 169.744 431.661L169.709 431.667H28.2549L28.2197 431.204L0.0283203 55.3242L0 54.9355L0.369141 54.8125L84.9424 26.6211L84.96 26.6152L84.9795 26.6104C97.5327 23.4721 117.768 19.7078 137.696 18.6094ZM1161.31 215.631C1180.3 215.631 1196.87 226.708 1209.83 240.455C1222.8 254.209 1232.23 270.706 1236.95 281.713L1236.99 281.808V366.562L1236.96 366.636C1233.98 375.917 1226.88 389.839 1215.29 401.503C1204.47 412.383 1189.72 421.31 1170.73 422.648L1170.71 422.865L1170.65 423.361C1169.31 423.212 1167.9 423.031 1166.44 422.815C1151.79 420.652 1131.62 415.067 1115.1 404.62C1098.58 394.169 1085.63 378.803 1085.63 357.086V281.808L1085.67 281.713C1090.39 270.706 1099.82 254.209 1112.79 240.455C1125.75 226.708 1142.32 215.631 1161.31 215.631ZM832.096 292.091C835.228 267.032 850.888 218.794 888.477 226.312C935.461 235.708 944.858 254.502 944.858 263.899V301.488L879.08 310.885C875.948 323.414 873.442 348.472 888.477 348.473C907.27 348.473 916.667 348.473 926.064 339.076C929.71 335.43 933.504 333.11 936.802 331.688L954.256 357.87C941.726 376.664 907.271 410.492 869.684 395.458C832.096 380.423 828.963 320.282 832.096 292.091ZM1009.72 253.719C1019.12 244.322 1039.79 225.529 1047.31 225.528C1056.7 225.528 1075.5 244.322 1075.5 253.719V300.704H1047.31L1037.91 263.116C1025.38 275.646 1000.32 308.222 1000.32 338.292V385.277H962.735L972.132 225.528H1009.72V253.719ZM707.778 18.7939L688.984 253.719H745.366L782.954 18.7939L858.13 37.5879C842.468 147.218 811.146 368.358 811.146 375.88C811.146 383.397 754.763 379.012 726.572 375.88V319.498H670.19V366.483C642 363.351 585.619 355.207 585.617 347.689C585.617 340.172 616.941 112.764 632.603 0L707.778 18.7939ZM534.626 197.025C540.905 204.874 550.319 218.053 558.165 232.098C565.998 246.118 572.323 261.097 572.323 272.514V357.587H533.735V348.423C525.809 351.535 512.973 355.608 499.319 358.049C485.281 360.558 470.3 361.361 458.901 357.562C444.588 352.79 437.45 340.86 435.077 328.994C433.891 323.061 433.889 317.125 434.781 312.07C435.671 307.032 437.46 302.804 439.912 300.352C444.66 295.604 451.757 290.876 458.835 287.337C465.897 283.806 473.032 281.411 477.852 281.411H514.94V263.33C511.743 260.246 501.925 254.22 487.249 254.22H458.75L458.611 253.943C455.463 247.648 451.68 237.723 450.574 228.407C449.474 219.13 451.011 210.2 458.835 206.288C473.954 198.729 490.323 196.838 496.647 196.838H534.476L534.626 197.025ZM112.796 271.479L122.193 346.656L122.235 346.996L122.567 347.079C128.87 348.655 138.796 350.074 148.107 349.206C157.392 348.341 166.241 345.18 170.121 337.42C174.847 327.967 177.222 318.494 177.222 310.181C177.222 301.871 174.847 294.678 170.027 289.858C162.448 282.28 147.976 274.105 141.707 270.971L141.602 270.918H112.726L112.796 271.479ZM1170.71 272.513C1161.31 272.513 1142.52 278.152 1142.52 300.704C1142.52 323.257 1161.31 335.16 1170.71 338.292C1180.1 338.292 1189.5 328.894 1189.5 300.704C1189.5 278.152 1176.97 272.513 1170.71 272.513ZM515.44 310.102C506.044 310.102 487.25 311.981 487.249 319.498C487.249 328.895 515.44 338.292 515.44 328.896V310.102ZM896.956 253.717C881.922 253.717 878.163 259.981 878.162 263.113V281.907H906.354C909.486 272.51 911.99 253.717 896.956 253.717ZM141.168 116.958C136.711 116.355 131.332 116.298 125.719 116.573C114.489 117.123 102.248 119.006 94.4004 120.575L93.9443 120.667L94.002 121.128L103.398 196.304L103.454 196.742H103.896C113.315 196.742 127.452 195.801 139.25 192.97C145.145 191.555 150.495 189.659 154.382 187.147C158.268 184.636 160.777 181.449 160.777 177.448C160.777 168.057 160.778 156.281 159.6 145.678C159.01 140.375 158.124 135.348 156.79 131.049C155.458 126.756 153.665 123.143 151.233 120.712C149.229 118.708 145.596 117.557 141.168 116.958Z" fill="#2176E4"/>
</svg>
