<svg width="1260" height="486" viewBox="0 0 1260 486" fill="none" xmlns="http://www.w3.org/2000/svg">
<mask id="path-1-outside-1_1206_8" maskUnits="userSpaceOnUse" x="-0.407593" y="-0.358643" width="1260" height="486" fill="black">
<rect fill="white" x="-0.407593" y="-0.358643" width="1260" height="486"/>
<path d="M372.317 257.964C366.052 257.964 351.645 269.241 344.128 314.345C336.61 359.451 366.054 339.404 381.715 323.742L409.907 267.36L447.495 286.154L419.303 351.933L400.509 398.919C394.245 411.448 379.835 438.386 372.317 445.903L372.313 445.908C362.914 455.306 344.124 474.094 325.334 474.094C306.541 474.094 287.744 474.094 278.347 464.697C270.83 457.179 287.744 436.506 297.141 427.109L334.729 408.315C349.764 400.798 347.259 392.654 344.127 389.521C337.862 389.521 323.453 387.642 315.935 380.125C306.538 370.728 306.539 361.33 306.539 323.742C306.539 293.672 325.332 254.832 334.729 239.17L372.317 257.964ZM149.289 32.2507C159.253 31.7016 169.153 31.8176 177.985 33.0173C186.809 34.2162 194.609 36.5024 200.338 40.321C228.651 59.1969 247.494 87.4981 266.303 134.521C273.876 153.452 272.29 173.153 267.257 190.057C262.3 206.712 253.983 220.695 247.712 228.636L284.986 265.912L285.07 265.995L285.107 266.107C288.249 275.534 294.53 300.022 294.53 322.647C294.53 350.955 285.092 379.241 266.255 407.497C258.643 418.914 242.848 427.573 226.312 433.764C209.75 439.965 192.329 443.732 181.337 445.302L181.301 445.308H39.8473L39.8121 444.845L11.6207 68.9656L11.5924 68.5769L11.9615 68.4539L96.5348 40.2625L96.5524 40.2566L96.5719 40.2517C109.125 37.1134 129.361 33.3492 149.289 32.2507ZM1172.9 229.272C1191.9 229.273 1208.46 240.349 1221.43 254.096C1234.39 267.851 1243.82 284.348 1248.54 295.354L1248.58 295.449V380.203L1248.56 380.277C1245.57 389.558 1238.48 403.481 1226.88 415.144C1216.07 426.024 1201.32 434.951 1182.32 436.29L1182.3 436.507L1182.24 437.003C1180.9 436.853 1179.49 436.672 1178.03 436.457C1163.38 434.293 1143.21 428.709 1126.69 418.261C1110.17 407.811 1097.23 392.444 1097.23 370.727V295.449L1097.27 295.354C1101.98 284.348 1111.41 267.85 1124.38 254.096C1137.34 240.349 1153.91 229.272 1172.9 229.272ZM843.688 305.732C846.82 280.673 862.481 232.436 900.069 239.953C947.053 249.35 956.45 268.144 956.451 277.541V315.13L890.672 324.526C887.54 337.055 885.034 362.114 900.069 362.114C918.862 362.114 928.26 362.114 937.657 352.718C941.303 349.072 945.097 346.751 948.394 345.329L965.848 371.511C953.319 390.305 918.863 424.134 881.276 409.099C843.688 394.064 840.556 333.923 843.688 305.732ZM1021.31 267.36C1030.71 257.963 1051.38 239.17 1058.9 239.17C1068.3 239.17 1087.09 257.963 1087.09 267.36V314.345H1058.9L1049.5 276.758C1036.97 289.287 1011.92 321.863 1011.92 351.933V398.919H974.328L983.724 239.17H1021.31V267.36ZM719.371 32.4353L700.577 267.36H756.959L794.547 32.4353L869.722 51.2292C854.061 160.86 822.739 381.999 822.738 389.521C822.738 397.039 766.356 392.654 738.165 389.521V333.139H681.783V380.125C653.592 376.992 597.211 368.848 597.21 361.331C597.21 353.813 628.533 126.405 644.195 13.6414L719.371 32.4353ZM546.218 210.667C552.497 218.515 561.911 231.694 569.757 245.739C577.59 259.759 583.915 274.738 583.916 286.155V371.228H545.328V362.064C537.402 365.176 524.565 369.249 510.912 371.69C496.874 374.2 481.892 375.002 470.494 371.203C456.18 366.432 449.043 354.501 446.67 342.635C445.483 336.703 445.482 330.766 446.374 325.712C447.263 320.673 449.052 316.446 451.505 313.993C456.252 309.245 463.349 304.518 470.427 300.978C477.49 297.447 484.624 295.053 489.444 295.052H526.533V276.971C523.336 273.887 513.518 267.861 498.841 267.861H470.342L470.204 267.585C467.056 261.289 463.272 251.365 462.167 242.049C461.066 232.771 462.604 223.842 470.427 219.929C485.546 212.37 501.915 210.479 508.24 210.479H546.068L546.218 210.667ZM124.388 285.121L133.786 360.298L133.828 360.637L134.16 360.72C140.463 362.296 150.389 363.715 159.7 362.847C168.984 361.982 177.834 358.821 181.714 351.061C186.44 341.609 188.814 332.135 188.814 323.822C188.814 315.512 186.439 308.319 181.62 303.5C174.041 295.921 159.569 287.747 153.299 284.612L153.194 284.559H124.318L124.388 285.121ZM1182.3 286.154C1172.9 286.154 1154.11 291.793 1154.11 314.345C1154.11 336.898 1172.9 348.801 1182.3 351.933C1191.7 351.933 1201.09 342.536 1201.09 314.345C1201.09 291.793 1188.56 286.154 1182.3 286.154ZM527.033 323.743C517.636 323.743 498.843 325.622 498.841 333.139C498.841 342.536 527.033 351.934 527.033 342.537V323.743ZM908.548 267.358C893.515 267.358 889.755 273.622 889.755 276.755V295.549H917.946C921.078 286.151 923.583 267.359 908.548 267.358ZM152.76 130.599C148.303 129.997 142.924 129.94 137.311 130.215C126.082 130.764 113.84 132.647 105.993 134.217L105.537 134.308L105.594 134.769L114.991 209.945L115.047 210.384H115.488C124.907 210.384 139.045 209.442 150.842 206.611C156.738 205.196 162.087 203.3 165.974 200.789C169.86 198.278 172.37 195.09 172.37 191.09C172.37 181.698 172.37 169.923 171.192 159.319C170.603 154.017 169.717 148.99 168.382 144.69C167.05 140.398 165.257 136.785 162.826 134.353C160.821 132.349 157.188 131.198 152.76 130.599Z"/>
</mask>
<path d="M372.317 257.964C366.052 257.964 351.645 269.241 344.128 314.345C336.61 359.451 366.054 339.404 381.715 323.742L409.907 267.36L447.495 286.154L419.303 351.933L400.509 398.919C394.245 411.448 379.835 438.386 372.317 445.903L372.313 445.908C362.914 455.306 344.124 474.094 325.334 474.094C306.541 474.094 287.744 474.094 278.347 464.697C270.83 457.179 287.744 436.506 297.141 427.109L334.729 408.315C349.764 400.798 347.259 392.654 344.127 389.521C337.862 389.521 323.453 387.642 315.935 380.125C306.538 370.728 306.539 361.33 306.539 323.742C306.539 293.672 325.332 254.832 334.729 239.17L372.317 257.964ZM149.289 32.2507C159.253 31.7016 169.153 31.8176 177.985 33.0173C186.809 34.2162 194.609 36.5024 200.338 40.321C228.651 59.1969 247.494 87.4981 266.303 134.521C273.876 153.452 272.29 173.153 267.257 190.057C262.3 206.712 253.983 220.695 247.712 228.636L284.986 265.912L285.07 265.995L285.107 266.107C288.249 275.534 294.53 300.022 294.53 322.647C294.53 350.955 285.092 379.241 266.255 407.497C258.643 418.914 242.848 427.573 226.312 433.764C209.75 439.965 192.329 443.732 181.337 445.302L181.301 445.308H39.8473L39.8121 444.845L11.6207 68.9656L11.5924 68.5769L11.9615 68.4539L96.5348 40.2625L96.5524 40.2566L96.5719 40.2517C109.125 37.1134 129.361 33.3492 149.289 32.2507ZM1172.9 229.272C1191.9 229.273 1208.46 240.349 1221.43 254.096C1234.39 267.851 1243.82 284.348 1248.54 295.354L1248.58 295.449V380.203L1248.56 380.277C1245.57 389.558 1238.48 403.481 1226.88 415.144C1216.07 426.024 1201.32 434.951 1182.32 436.29L1182.3 436.507L1182.24 437.003C1180.9 436.853 1179.49 436.672 1178.03 436.457C1163.38 434.293 1143.21 428.709 1126.69 418.261C1110.17 407.811 1097.23 392.444 1097.23 370.727V295.449L1097.27 295.354C1101.98 284.348 1111.41 267.85 1124.38 254.096C1137.34 240.349 1153.91 229.272 1172.9 229.272ZM843.688 305.732C846.82 280.673 862.481 232.436 900.069 239.953C947.053 249.35 956.45 268.144 956.451 277.541V315.13L890.672 324.526C887.54 337.055 885.034 362.114 900.069 362.114C918.862 362.114 928.26 362.114 937.657 352.718C941.303 349.072 945.097 346.751 948.394 345.329L965.848 371.511C953.319 390.305 918.863 424.134 881.276 409.099C843.688 394.064 840.556 333.923 843.688 305.732ZM1021.31 267.36C1030.71 257.963 1051.38 239.17 1058.9 239.17C1068.3 239.17 1087.09 257.963 1087.09 267.36V314.345H1058.9L1049.5 276.758C1036.97 289.287 1011.92 321.863 1011.92 351.933V398.919H974.328L983.724 239.17H1021.31V267.36ZM719.371 32.4353L700.577 267.36H756.959L794.547 32.4353L869.722 51.2292C854.061 160.86 822.739 381.999 822.738 389.521C822.738 397.039 766.356 392.654 738.165 389.521V333.139H681.783V380.125C653.592 376.992 597.211 368.848 597.21 361.331C597.21 353.813 628.533 126.405 644.195 13.6414L719.371 32.4353ZM546.218 210.667C552.497 218.515 561.911 231.694 569.757 245.739C577.59 259.759 583.915 274.738 583.916 286.155V371.228H545.328V362.064C537.402 365.176 524.565 369.249 510.912 371.69C496.874 374.2 481.892 375.002 470.494 371.203C456.18 366.432 449.043 354.501 446.67 342.635C445.483 336.703 445.482 330.766 446.374 325.712C447.263 320.673 449.052 316.446 451.505 313.993C456.252 309.245 463.349 304.518 470.427 300.978C477.49 297.447 484.624 295.053 489.444 295.052H526.533V276.971C523.336 273.887 513.518 267.861 498.841 267.861H470.342L470.204 267.585C467.056 261.289 463.272 251.365 462.167 242.049C461.066 232.771 462.604 223.842 470.427 219.929C485.546 212.37 501.915 210.479 508.24 210.479H546.068L546.218 210.667ZM124.388 285.121L133.786 360.298L133.828 360.637L134.16 360.72C140.463 362.296 150.389 363.715 159.7 362.847C168.984 361.982 177.834 358.821 181.714 351.061C186.44 341.609 188.814 332.135 188.814 323.822C188.814 315.512 186.439 308.319 181.62 303.5C174.041 295.921 159.569 287.747 153.299 284.612L153.194 284.559H124.318L124.388 285.121ZM1182.3 286.154C1172.9 286.154 1154.11 291.793 1154.11 314.345C1154.11 336.898 1172.9 348.801 1182.3 351.933C1191.7 351.933 1201.09 342.536 1201.09 314.345C1201.09 291.793 1188.56 286.154 1182.3 286.154ZM527.033 323.743C517.636 323.743 498.843 325.622 498.841 333.139C498.841 342.536 527.033 351.934 527.033 342.537V323.743ZM908.548 267.358C893.515 267.358 889.755 273.622 889.755 276.755V295.549H917.946C921.078 286.151 923.583 267.359 908.548 267.358ZM152.76 130.599C148.303 129.997 142.924 129.94 137.311 130.215C126.082 130.764 113.84 132.647 105.993 134.217L105.537 134.308L105.594 134.769L114.991 209.945L115.047 210.384H115.488C124.907 210.384 139.045 209.442 150.842 206.611C156.738 205.196 162.087 203.3 165.974 200.789C169.86 198.278 172.37 195.09 172.37 191.09C172.37 181.698 172.37 169.923 171.192 159.319C170.603 154.017 169.717 148.99 168.382 144.69C167.05 140.398 165.257 136.785 162.826 134.353C160.821 132.349 157.188 131.198 152.76 130.599Z" fill="white"/>
<path d="M372.317 257.964L372.318 268.964L377.236 248.125L372.317 257.964ZM344.128 314.345L333.277 312.537V312.537L344.128 314.345ZM381.715 323.742L389.494 331.52L390.756 330.258L391.554 328.661L381.715 323.742ZM409.907 267.36L414.826 257.521L404.988 252.602L400.068 262.441L409.907 267.36ZM447.495 286.154L457.605 290.487L461.691 280.954L452.414 276.315L447.495 286.154ZM419.303 351.933L409.193 347.6L409.14 347.724L409.09 347.848L419.303 351.933ZM400.509 398.919L410.348 403.838L410.553 403.429L410.723 403.004L400.509 398.919ZM372.317 445.903L364.539 438.125L364.108 438.555L363.727 439.031L372.317 445.903ZM372.313 445.908L380.091 453.687L380.522 453.256L380.903 452.78L372.313 445.908ZM325.334 474.094V485.094H325.334L325.334 474.094ZM278.347 464.697L270.569 472.475L270.569 472.475L278.347 464.697ZM297.141 427.109L292.222 417.27L290.625 418.069L289.363 419.331L297.141 427.109ZM334.729 408.315L339.648 418.154V418.154L334.729 408.315ZM344.127 389.521L351.905 381.743L348.683 378.521H344.127V389.521ZM315.935 380.125L308.157 387.903L308.157 387.903L315.935 380.125ZM306.539 323.742L295.539 323.742V323.742H306.539ZM334.729 239.17L339.648 229.331L330.538 224.775L325.297 233.51L334.729 239.17ZM149.289 32.2507L148.683 21.2674L148.683 21.2674L149.289 32.2507ZM177.985 33.0173L179.466 22.1175L179.466 22.1175L177.985 33.0173ZM200.338 40.321L206.439 31.1685L206.439 31.1684L200.338 40.321ZM266.303 134.521L276.517 130.436L276.517 130.436L266.303 134.521ZM267.257 190.057L277.8 193.196L277.8 193.196L267.257 190.057ZM247.712 228.636L239.078 221.82L233.016 229.497L239.933 236.415L247.712 228.636ZM284.986 265.912L277.208 273.69L277.23 273.713L277.253 273.735L284.986 265.912ZM285.07 265.995L295.514 262.544L294.684 260.031L292.802 258.171L285.07 265.995ZM285.107 266.107L274.663 269.558L274.667 269.572L274.672 269.586L285.107 266.107ZM294.53 322.647L305.53 322.647V322.647L294.53 322.647ZM266.255 407.497L275.407 413.599L275.407 413.599L266.255 407.497ZM226.312 433.764L230.169 444.066L230.169 444.066L226.312 433.764ZM181.337 445.302L179.781 434.413L179.654 434.431L179.528 434.452L181.337 445.302ZM181.301 445.308V456.308H182.212L183.11 456.159L181.301 445.308ZM39.8473 445.308L28.8789 446.141L29.6511 456.308H39.8473V445.308ZM39.8121 444.845L28.8429 445.668L28.8437 445.678L39.8121 444.845ZM11.6207 68.9656L0.649813 69.765L0.650661 69.7766L0.651536 69.7883L11.6207 68.9656ZM11.5924 68.5769L8.1139 58.1414L-5.91278e-05 60.846L0.621492 69.3763L11.5924 68.5769ZM11.9615 68.4539L15.4401 78.8894L15.4401 78.8894L11.9615 68.4539ZM96.5348 40.2625L93.0563 29.8269L93.0563 29.8269L96.5348 40.2625ZM96.5524 40.2566L93.8845 29.585L93.4746 29.6875L93.0739 29.8211L96.5524 40.2566ZM96.5719 40.2517L93.904 29.5801L93.904 29.5801L96.5719 40.2517ZM1172.9 229.272L1172.9 218.272H1172.9V229.272ZM1221.43 254.096L1229.43 246.55L1229.43 246.55L1221.43 254.096ZM1248.54 295.354L1258.67 291.072L1258.66 291.046L1258.65 291.021L1248.54 295.354ZM1248.58 295.449H1259.58V293.22L1258.71 291.166L1248.58 295.449ZM1248.58 380.203L1259.07 383.515L1259.58 381.898V380.203H1248.58ZM1248.56 380.277L1259.03 383.645L1259.04 383.617L1259.04 383.59L1248.56 380.277ZM1226.88 415.144L1234.68 422.9L1234.68 422.899L1226.88 415.144ZM1182.32 436.29L1181.55 425.317L1172.38 425.964L1171.39 435.107L1182.32 436.29ZM1182.3 436.507L1193.23 437.733L1193.23 437.711L1193.24 437.689L1182.3 436.507ZM1182.24 437.003L1181.03 447.935L1191.95 449.149L1193.18 438.229L1182.24 437.003ZM1178.03 436.457L1176.43 447.339H1176.43L1178.03 436.457ZM1126.69 418.261L1120.81 427.558V427.558L1126.69 418.261ZM1097.23 370.727H1086.23V370.727L1097.23 370.727ZM1097.23 295.449L1087.1 291.166L1086.23 293.22V295.449H1097.23ZM1097.27 295.354L1087.16 291.021L1087.15 291.046L1087.14 291.072L1097.27 295.354ZM1124.38 254.096L1116.38 246.55L1116.38 246.55L1124.38 254.096ZM843.688 305.732L832.773 304.368L832.764 304.443L832.755 304.517L843.688 305.732ZM900.069 239.953L902.226 229.166L902.226 229.166L900.069 239.953ZM956.451 277.541H967.451V277.54L956.451 277.541ZM956.451 315.13L958.006 326.019L967.451 324.67V315.13H956.451ZM890.672 324.526L889.117 313.637L881.795 314.683L880.001 321.858L890.672 324.526ZM900.069 362.114L900.069 373.114H900.069V362.114ZM937.657 352.718L929.879 344.939L929.879 344.939L937.657 352.718ZM948.394 345.329L957.547 339.227L952.459 331.596L944.037 335.228L948.394 345.329ZM965.848 371.511L975.001 377.613L979.069 371.512L975.001 365.41L965.848 371.511ZM881.276 409.099L877.191 419.313L877.191 419.313L881.276 409.099ZM1021.31 267.36H1010.31V293.916L1029.09 275.138L1021.31 267.36ZM1058.9 239.17V228.17H1058.9L1058.9 239.17ZM1087.09 267.36H1098.09V267.36L1087.09 267.36ZM1087.09 314.345V325.345H1098.09V314.345H1087.09ZM1058.9 314.345L1048.23 317.013L1050.31 325.345H1058.9V314.345ZM1049.5 276.758L1060.18 274.09L1055.46 255.241L1041.73 268.979L1049.5 276.758ZM1011.92 398.919V409.919H1022.92V398.919H1011.92ZM974.328 398.919L963.347 398.273L962.662 409.919H974.328V398.919ZM983.724 239.17V228.17H973.352L972.743 238.524L983.724 239.17ZM1021.31 239.17H1032.31V228.17H1021.31V239.17ZM719.371 32.4353L730.336 33.3125L731.079 24.0238L722.039 21.7637L719.371 32.4353ZM700.577 267.36L689.612 266.483L688.662 278.36H700.577V267.36ZM756.959 267.36V278.36H766.339L767.82 269.098L756.959 267.36ZM794.547 32.4353L797.214 21.7637L785.579 18.855L783.685 30.6974L794.547 32.4353ZM869.722 51.2292L880.612 52.7849L882.015 42.9638L872.39 40.5577L869.722 51.2292ZM822.738 389.521L811.738 389.52V389.521H822.738ZM738.165 389.521H727.165V399.367L736.95 400.454L738.165 389.521ZM738.165 333.139H749.165V322.139H738.165V333.139ZM681.783 333.139V322.139H670.783V333.139H681.783ZM681.783 380.125L680.568 391.057L692.783 392.415V380.125H681.783ZM597.21 361.331H586.21V361.333L597.21 361.331ZM644.195 13.6414L646.863 2.96979L634.984 7.53403e-05L633.3 12.1281L644.195 13.6414ZM546.218 210.667L554.808 203.795L554.799 203.784L546.218 210.667ZM569.757 245.739L579.361 240.374L579.36 240.374L569.757 245.739ZM583.916 286.155H594.916V286.155L583.916 286.155ZM583.916 371.228V382.228H594.916V371.228H583.916ZM545.328 371.228H534.328V382.228H545.328V371.228ZM545.328 362.064H556.328V345.927L541.307 351.825L545.328 362.064ZM510.912 371.69L512.847 382.519H512.848L510.912 371.69ZM470.494 371.203L467.015 381.638L467.015 381.638L470.494 371.203ZM446.67 342.635L435.883 344.793L435.883 344.793L446.67 342.635ZM446.374 325.712L435.541 323.8L435.541 323.8L446.374 325.712ZM451.505 313.993L443.726 306.215L443.726 306.215L451.505 313.993ZM470.427 300.978L465.508 291.14L465.508 291.14L470.427 300.978ZM489.444 295.052V284.052H489.443L489.444 295.052ZM526.533 295.052V306.052H537.533V295.052H526.533ZM526.533 276.971H537.533V272.299L534.17 269.054L526.533 276.971ZM498.841 267.861V256.861V256.861V267.861ZM470.342 267.861L460.511 272.794L463.555 278.861H470.342V267.861ZM470.204 267.585L460.365 272.504L460.368 272.511L460.372 272.518L470.204 267.585ZM462.167 242.049L451.243 243.344L451.243 243.345L462.167 242.049ZM470.427 219.929L465.508 210.091L465.508 210.091L470.427 219.929ZM508.24 210.479V199.479H508.24L508.24 210.479ZM546.068 210.479L554.649 203.597L551.346 199.479H546.068V210.479ZM124.388 285.121L135.303 283.756L135.303 283.754L124.388 285.121ZM133.786 360.298L144.703 358.949L144.702 358.941L144.701 358.933L133.786 360.298ZM133.828 360.637L122.911 361.986L123.836 369.478L131.16 371.309L133.828 360.637ZM134.16 360.72L131.492 371.392H131.492L134.16 360.72ZM159.7 362.847L160.721 373.8H160.721L159.7 362.847ZM181.714 351.061L191.552 355.981L191.552 355.981L181.714 351.061ZM188.814 323.822L199.814 323.822V323.822L188.814 323.822ZM181.62 303.5L189.398 295.722L189.398 295.721L181.62 303.5ZM153.299 284.612L158.219 274.773L158.219 274.773L153.299 284.612ZM153.194 284.559L158.113 274.721L155.791 273.559H153.194V284.559ZM124.318 284.559V273.559H111.855L113.403 285.926L124.318 284.559ZM1182.3 286.154L1182.3 275.154H1182.3L1182.3 286.154ZM1154.11 314.345L1143.11 314.345V314.346L1154.11 314.345ZM1182.3 351.933L1178.82 362.369L1180.51 362.933L1182.3 362.933L1182.3 351.933ZM1201.09 314.345L1212.09 314.345V314.345L1201.09 314.345ZM527.033 323.743H538.033V312.743L527.033 312.743L527.033 323.743ZM498.841 333.139L487.841 333.138V333.139H498.841ZM527.033 342.537L538.033 342.537V342.537H527.033ZM908.548 267.358L908.549 256.358H908.548L908.548 267.358ZM889.755 276.755L878.755 276.753V276.755H889.755ZM889.755 295.549H878.755V306.549H889.755V295.549ZM917.946 295.549V306.549H925.874L928.382 299.027L917.946 295.549ZM152.76 130.599L154.235 119.699L154.235 119.699L152.76 130.599ZM137.311 130.215L136.773 119.228H136.773L137.311 130.215ZM105.993 134.217L103.836 123.43L103.822 123.433L105.993 134.217ZM105.537 134.308L103.366 123.525L93.3551 125.54L94.6217 135.673L105.537 134.308ZM105.594 134.769L116.509 133.405L116.509 133.405L105.594 134.769ZM114.991 209.945L104.076 211.309L104.077 211.32L104.078 211.33L114.991 209.945ZM115.047 210.384L104.134 211.769L105.355 221.384H115.047V210.384ZM115.488 210.384V221.384H115.488L115.488 210.384ZM150.842 206.611L153.409 217.307L153.41 217.307L150.842 206.611ZM165.974 200.789L171.944 210.028L171.944 210.028L165.974 200.789ZM172.37 191.09L183.37 191.09V191.09H172.37ZM171.192 159.319L182.125 158.104L182.125 158.104L171.192 159.319ZM168.382 144.69L178.888 141.43L178.888 141.43L168.382 144.69ZM162.826 134.353L170.604 126.575L170.603 126.574L162.826 134.353ZM372.317 257.964L372.316 246.964C363.375 246.964 355.328 253.937 349.383 263.38C343.013 273.498 337.176 289.142 333.277 312.537L344.128 314.345L354.978 316.154C358.596 294.445 363.722 281.898 368.001 275.101C372.705 267.629 374.994 268.963 372.318 268.964L372.317 257.964ZM344.128 314.345L333.277 312.537C331.336 324.182 331.217 334.243 334.64 341.656C336.538 345.767 339.623 349.251 343.985 351.261C348.166 353.187 352.429 353.255 355.955 352.695C362.661 351.63 369.246 347.888 374.468 344.248C379.967 340.415 385.238 335.775 389.494 331.52L381.715 323.742L373.937 315.964C370.362 319.539 366.08 323.278 361.888 326.2C357.419 329.314 354.177 330.702 352.503 330.968C351.84 331.073 352.276 330.858 353.19 331.279C354.285 331.783 354.663 332.542 354.614 332.434C354.141 331.409 353.16 327.061 354.978 316.154L344.128 314.345ZM381.715 323.742L391.554 328.661L419.746 272.28L409.907 267.36L400.068 262.441L371.877 318.823L381.715 323.742ZM409.907 267.36L404.988 277.199L442.575 295.993L447.495 286.154L452.414 276.315L414.826 257.521L409.907 267.36ZM447.495 286.154L437.384 281.821L409.193 347.6L419.303 351.933L429.414 356.267L457.605 290.487L447.495 286.154ZM419.303 351.933L409.09 347.848L390.296 394.833L400.509 398.919L410.723 403.004L429.517 356.019L419.303 351.933ZM400.509 398.919L390.671 393.999C387.613 400.115 382.547 409.785 377.353 418.798C371.872 428.307 367.086 435.578 364.539 438.125L372.317 445.903L380.095 453.682C385.066 448.711 391.244 438.754 396.414 429.783C401.87 420.316 407.141 410.252 410.348 403.838L400.509 398.919ZM372.317 445.903L363.727 439.031L363.724 439.036L372.313 445.908L380.903 452.78L380.907 452.775L372.317 445.903ZM372.313 445.908L364.535 438.129C359.791 442.874 353.335 449.301 345.952 454.574C338.36 459.996 331.28 463.094 325.334 463.094L325.334 474.094L325.334 485.094C338.177 485.094 349.887 478.798 358.738 472.477C367.797 466.007 375.436 458.341 380.091 453.687L372.313 445.908ZM325.334 474.094V463.094C315.734 463.094 307.17 463.073 299.873 462.03C292.432 460.967 288.286 459.079 286.125 456.919L278.347 464.697L270.569 472.475C277.806 479.712 287.757 482.523 296.761 483.809C305.909 485.116 316.14 485.094 325.334 485.094V474.094ZM278.347 464.697L286.126 456.919C288.012 458.805 287.248 460.668 287.545 459.286C287.839 457.918 288.809 455.572 290.78 452.356C294.633 446.07 300.571 439.236 304.919 434.887L297.141 427.109L289.363 419.331C284.314 424.38 277.097 432.58 272.023 440.86C269.53 444.927 267.094 449.745 266.037 454.662C264.983 459.564 264.924 466.83 270.569 472.475L278.347 464.697ZM297.141 427.109L302.061 436.948L339.648 418.154L334.729 408.315L329.81 398.477L292.222 417.27L297.141 427.109ZM334.729 408.315L339.648 418.154C348.491 413.732 354.902 407.798 356.897 400C358.938 392.024 355.54 385.379 351.905 381.743L344.127 389.521L336.348 397.299C335.845 396.796 335.266 395.789 335.584 394.547C335.856 393.484 336.002 395.38 329.81 398.477L334.729 408.315ZM344.127 389.521V378.521C341.868 378.521 337.651 378.156 333.315 377.008C328.804 375.814 325.487 374.121 323.713 372.347L315.935 380.125L308.157 387.903C313.9 393.646 321.547 396.651 327.686 398.276C334 399.947 340.12 400.521 344.127 400.521V389.521ZM315.935 380.125L323.713 372.347C320.923 369.556 319.488 367.152 318.603 360.95C317.567 353.703 317.539 342.952 317.539 323.742H306.539H295.539C295.539 342.12 295.51 354.862 296.824 364.06C298.287 374.303 301.55 381.296 308.157 387.903L315.935 380.125ZM306.539 323.742L317.539 323.742C317.539 310.679 321.698 294.919 327.39 279.966C333.021 265.176 339.78 252.132 344.162 244.829L334.729 239.17L325.297 233.51C320.282 241.869 312.945 256.077 306.83 272.139C300.776 288.04 295.539 306.735 295.539 323.742L306.539 323.742ZM334.729 239.17L329.81 249.008L367.398 267.802L372.317 257.964L377.236 248.125L339.648 229.331L334.729 239.17ZM149.289 32.2507L149.894 43.2341C159.436 42.7081 168.591 42.8423 176.504 43.9172L177.985 33.0173L179.466 22.1175C169.716 20.7929 159.069 20.695 148.683 21.2674L149.289 32.2507ZM177.985 33.0173L176.504 43.9172C184.567 45.0127 190.488 46.9754 194.236 49.4737L200.338 40.321L206.439 31.1684C198.73 26.0295 189.052 23.4198 179.466 22.1175L177.985 33.0173ZM200.338 40.321L194.236 49.4736C219.845 66.5468 237.62 92.4325 256.09 138.607L266.303 134.521L276.517 130.436C257.368 82.5638 237.457 51.847 206.439 31.1685L200.338 40.321ZM266.303 134.521L256.09 138.607C262.455 154.518 261.297 171.525 256.715 186.919L267.257 190.057L277.8 193.196C283.282 174.78 285.297 152.387 276.517 130.436L266.303 134.521ZM267.257 190.057L256.715 186.919C252.19 202.118 244.567 214.869 239.078 221.82L247.712 228.636L256.345 235.453C263.398 226.52 272.409 211.307 277.8 193.196L267.257 190.057ZM247.712 228.636L239.933 236.415L277.208 273.69L284.986 265.912L292.764 258.134L255.49 220.858L247.712 228.636ZM284.986 265.912L277.253 273.735L277.337 273.818L285.07 265.995L292.802 258.171L292.719 258.088L284.986 265.912ZM285.07 265.995L274.625 269.446L274.663 269.558L285.107 266.107L295.552 262.656L295.514 262.544L285.07 265.995ZM285.107 266.107L274.672 269.586C277.597 278.362 283.53 301.616 283.53 322.647L294.53 322.647L305.53 322.647C305.53 298.429 298.902 272.706 295.543 262.629L285.107 266.107ZM294.53 322.647L283.53 322.647C283.53 348.378 274.981 374.576 257.102 401.395L266.255 407.497L275.407 413.599C295.202 383.906 305.53 353.533 305.53 322.647L294.53 322.647ZM266.255 407.497L257.102 401.395C251.554 409.717 238.698 417.381 222.455 423.463L226.312 433.764L230.169 444.066C246.998 437.765 265.732 428.11 275.407 413.599L266.255 407.497ZM226.312 433.764L222.455 423.463C206.762 429.338 190.132 432.934 179.781 434.413L181.337 445.302L182.892 456.192C194.525 454.53 212.737 450.593 230.169 444.066L226.312 433.764ZM181.337 445.302L179.528 434.452L179.493 434.458L181.301 445.308L183.11 456.159L183.145 456.153L181.337 445.302ZM181.301 445.308V434.308H39.8473V445.308V456.308H181.301V445.308ZM39.8473 445.308L50.8157 444.475L50.7805 444.012L39.8121 444.845L28.8437 445.678L28.8789 446.141L39.8473 445.308ZM39.8121 444.845L50.7813 444.023L22.5899 68.1429L11.6207 68.9656L0.651536 69.7883L28.8429 445.668L39.8121 444.845ZM11.6207 68.9656L22.5916 68.1662L22.5633 67.7775L11.5924 68.5769L0.621492 69.3763L0.649813 69.765L11.6207 68.9656ZM11.5924 68.5769L15.0709 79.0124L15.4401 78.8894L11.9615 68.4539L8.48304 58.0183L8.1139 58.1414L11.5924 68.5769ZM11.9615 68.4539L15.4401 78.8894L100.013 50.698L96.5348 40.2625L93.0563 29.8269L8.48301 58.0184L11.9615 68.4539ZM96.5348 40.2625L100.013 50.698L100.031 50.6921L96.5524 40.2566L93.0739 29.8211L93.0563 29.8269L96.5348 40.2625ZM96.5524 40.2566L99.2203 50.9282L99.2398 50.9233L96.5719 40.2517L93.904 29.5801L93.8845 29.585L96.5524 40.2566ZM96.5719 40.2517L99.2398 50.9233C111.265 47.9169 130.8 44.2865 149.894 43.2341L149.289 32.2507L148.683 21.2674C127.922 22.4118 106.985 26.31 93.904 29.5801L96.5719 40.2517ZM1172.9 229.272L1172.9 240.272C1187.5 240.272 1201.36 248.853 1213.42 261.643L1221.43 254.096L1229.43 246.55C1215.57 231.846 1196.29 218.273 1172.9 218.272L1172.9 229.272ZM1221.43 254.096L1213.42 261.643C1225.35 274.289 1234.12 289.633 1238.43 299.687L1248.54 295.354L1258.65 291.021C1253.52 279.063 1243.44 261.413 1229.43 246.55L1221.43 254.096ZM1248.54 295.354L1238.41 299.637L1238.45 299.732L1248.58 295.449L1258.71 291.166L1258.67 291.072L1248.54 295.354ZM1248.58 295.449H1237.58V380.203H1248.58H1259.58V295.449H1248.58ZM1248.58 380.203L1238.09 376.89L1238.07 376.965L1248.56 380.277L1259.04 383.59L1259.07 383.515L1248.58 380.203ZM1248.56 380.277L1238.08 376.909C1235.56 384.746 1229.31 397.103 1219.08 407.389L1226.88 415.144L1234.68 422.899C1247.65 409.859 1255.58 394.371 1259.03 383.645L1248.56 380.277ZM1226.88 415.144L1219.08 407.389C1209.68 416.848 1197.3 424.207 1181.55 425.317L1182.32 436.29L1183.1 447.263C1205.33 445.695 1222.46 435.2 1234.68 422.9L1226.88 415.144ZM1182.32 436.29L1171.39 435.107L1171.36 435.324L1182.3 436.507L1193.24 437.689L1193.26 437.472L1182.32 436.29ZM1182.3 436.507L1171.37 435.28L1171.31 435.776L1182.24 437.003L1193.18 438.229L1193.23 437.733L1182.3 436.507ZM1182.24 437.003L1183.46 426.07C1182.25 425.935 1180.97 425.771 1179.64 425.575L1178.03 436.457L1176.43 447.339C1178.02 447.573 1179.55 447.771 1181.03 447.935L1182.24 437.003ZM1178.03 436.457L1179.64 425.575C1165.96 423.555 1147.4 418.339 1132.57 408.965L1126.69 418.261L1120.81 427.558C1139.03 439.078 1160.8 445.032 1176.43 447.339L1178.03 436.457ZM1126.69 418.261L1132.57 408.965C1117.86 399.662 1108.23 387.294 1108.23 370.727L1097.23 370.727L1086.23 370.727C1086.23 397.595 1102.47 415.959 1120.81 427.558L1126.69 418.261ZM1097.23 370.727H1108.23V295.449H1097.23H1086.23V370.727H1097.23ZM1097.23 295.449L1107.36 299.732L1107.4 299.637L1097.27 295.354L1087.14 291.072L1087.1 291.166L1097.23 295.449ZM1097.27 295.354L1107.38 299.687C1111.69 289.633 1120.46 274.288 1132.38 261.643L1124.38 254.096L1116.38 246.55C1102.36 261.412 1092.28 279.063 1087.16 291.021L1097.27 295.354ZM1124.38 254.096L1132.38 261.643C1144.44 248.853 1158.31 240.272 1172.9 240.272V229.272V218.272C1149.51 218.272 1130.24 231.846 1116.38 246.55L1124.38 254.096ZM843.688 305.732L854.603 307.096C856.048 295.54 860.4 278.936 868.257 266.502C872.14 260.356 876.524 255.794 881.267 253.105C885.776 250.549 891.111 249.379 897.912 250.739L900.069 239.953L902.226 229.166C890.233 226.768 879.515 228.809 870.417 233.966C861.555 238.991 854.78 246.645 849.658 254.751C839.504 270.821 834.461 290.866 832.773 304.368L843.688 305.732ZM900.069 239.953L897.912 250.739C943.349 259.827 945.451 276.343 945.451 277.541L956.451 277.541L967.451 277.54C967.45 259.945 950.758 238.873 902.226 229.166L900.069 239.953ZM956.451 277.541H945.451V315.13H956.451H967.451V277.541H956.451ZM956.451 315.13L954.895 304.24L889.117 313.637L890.672 324.526L892.228 335.416L958.006 326.019L956.451 315.13ZM890.672 324.526L880.001 321.858C878.275 328.762 876.563 339.58 877.624 349.221C878.149 353.991 879.472 359.677 882.887 364.425C886.726 369.763 892.672 373.114 900.069 373.114L900.069 362.114L900.069 351.114C899.763 351.114 899.929 351.063 900.296 351.254C900.654 351.44 900.793 351.643 900.748 351.58C900.502 351.238 899.829 349.877 899.492 346.816C898.83 340.796 899.938 332.82 901.344 327.194L890.672 324.526ZM900.069 362.114V373.114C917.97 373.114 932.311 373.618 945.435 360.496L937.657 352.718L929.879 344.939C924.208 350.61 919.754 351.114 900.069 351.114V362.114ZM937.657 352.718L945.435 360.496C948.022 357.909 950.629 356.345 952.751 355.429L948.394 345.329L944.037 335.228C939.565 337.158 934.584 340.235 929.879 344.939L937.657 352.718ZM948.394 345.329L939.241 351.43L956.696 377.613L965.848 371.511L975.001 365.41L957.547 339.227L948.394 345.329ZM965.848 371.511L956.696 365.41C951.126 373.765 940.491 385.644 927.299 393.559C914.255 401.385 899.925 404.711 885.361 398.886L881.276 409.099L877.191 419.313C900.215 428.522 921.905 422.451 938.618 412.423C955.184 402.484 968.041 388.052 975.001 377.613L965.848 371.511ZM881.276 409.099L885.361 398.886C871.506 393.344 862.671 378.904 857.886 359.691C853.185 340.816 853.16 320.091 854.621 306.947L843.688 305.732L832.755 304.517C831.084 319.564 831.059 343.005 836.538 365.007C841.933 386.671 853.458 409.82 877.191 419.313L881.276 409.099ZM1021.31 267.36L1029.09 275.138C1033.6 270.628 1040.82 263.863 1047.72 258.304C1051.18 255.509 1054.34 253.204 1056.89 251.655C1058.16 250.879 1059.09 250.418 1059.67 250.179C1060.4 249.88 1060.02 250.17 1058.9 250.17L1058.9 239.17L1058.9 228.17C1055.9 228.17 1053.23 229.047 1051.35 229.813C1049.33 230.638 1047.33 231.719 1045.47 232.852C1041.73 235.12 1037.72 238.101 1033.91 241.179C1026.23 247.365 1018.42 254.695 1013.53 259.582L1021.31 267.36ZM1058.9 239.17V250.17C1058.12 250.17 1058.9 250.011 1061.48 251.606C1063.7 252.98 1066.27 255.051 1068.74 257.519C1071.21 259.988 1073.28 262.562 1074.66 264.781C1076.25 267.358 1076.09 268.137 1076.09 267.36L1087.09 267.36L1098.09 267.36C1098.09 261.885 1095.58 256.791 1093.36 253.201C1090.92 249.253 1087.7 245.367 1084.3 241.963C1080.89 238.558 1077.01 235.344 1073.06 232.9C1069.47 230.678 1064.37 228.17 1058.9 228.17V239.17ZM1087.09 267.36H1076.09V314.345H1087.09H1098.09V267.36H1087.09ZM1087.09 314.345V303.345H1058.9V314.345V325.345H1087.09V314.345ZM1058.9 314.345L1069.57 311.678L1060.18 274.09L1049.5 276.758L1038.83 279.425L1048.23 317.013L1058.9 314.345ZM1049.5 276.758L1041.73 268.979C1034.84 275.862 1024.85 287.885 1016.5 302.239C1008.25 316.436 1000.92 334.092 1000.92 351.933H1011.92H1022.92C1022.92 339.705 1028.11 326.037 1035.52 313.296C1042.84 300.712 1051.64 290.182 1057.28 284.536L1049.5 276.758ZM1011.92 351.933H1000.92V398.919H1011.92H1022.92V351.933H1011.92ZM1011.92 398.919V387.919H974.328V398.919V409.919H1011.92V398.919ZM974.328 398.919L985.309 399.565L994.705 239.816L983.724 239.17L972.743 238.524L963.347 398.273L974.328 398.919ZM983.724 239.17V250.17H1021.31V239.17V228.17H983.724V239.17ZM1021.31 239.17H1010.31V267.36H1021.31H1032.31V239.17H1021.31ZM719.371 32.4353L708.406 31.5581L689.612 266.483L700.577 267.36L711.542 268.237L730.336 33.3125L719.371 32.4353ZM700.577 267.36V278.36H756.959V267.36V256.36H700.577V267.36ZM756.959 267.36L767.82 269.098L805.408 34.1732L794.547 32.4353L783.685 30.6974L746.097 265.622L756.959 267.36ZM794.547 32.4353L791.879 43.1069L867.054 61.9008L869.722 51.2292L872.39 40.5577L797.214 21.7637L794.547 32.4353ZM869.722 51.2292L858.833 49.6736C851.001 104.495 839.254 187.198 829.464 257.141C824.569 292.11 820.161 323.903 816.977 347.431C815.385 359.191 814.095 368.91 813.202 375.935C812.757 379.443 812.405 382.316 812.164 384.449C811.963 386.218 811.738 388.275 811.738 389.52L822.738 389.521L833.738 389.522C833.738 389.827 833.758 389.275 834.024 386.925C834.249 384.939 834.586 382.182 835.027 378.709C835.908 371.773 837.188 362.124 838.778 350.382C841.956 326.904 846.358 295.151 851.251 260.191C861.037 190.276 872.782 107.594 880.612 52.7849L869.722 51.2292ZM822.738 389.521H811.738C811.738 386.102 813.483 383.755 814.716 382.64C815.283 382.126 815.77 381.831 816.023 381.692C816.16 381.617 816.265 381.568 816.328 381.539C816.393 381.51 816.428 381.497 816.428 381.497C816.429 381.497 816.404 381.506 816.349 381.523C816.295 381.54 816.217 381.563 816.115 381.59C815.907 381.645 815.625 381.711 815.259 381.782C814.517 381.925 813.553 382.067 812.347 382.193C807.381 382.71 800.054 382.791 791.365 382.52C774.146 381.985 753.319 380.137 739.379 378.589L738.165 389.521L736.95 400.454C751.201 402.037 772.661 403.949 790.681 404.51C799.612 404.787 808.141 404.75 814.629 404.074C817.756 403.748 821.174 403.203 824.092 402.119C825.527 401.586 827.6 400.652 829.48 398.949C831.552 397.074 833.738 393.88 833.738 389.521H822.738ZM738.165 389.521H749.165V333.139H738.165H727.165V389.521H738.165ZM738.165 333.139V322.139H681.783V333.139V344.139H738.165V333.139ZM681.783 333.139H670.783V380.125H681.783H692.783V333.139H681.783ZM681.783 380.125L682.998 369.192C669.061 367.644 648.226 364.862 630.99 361.568C622.307 359.908 614.926 358.191 609.875 356.542C607.271 355.692 605.861 355.041 605.304 354.71C605.013 354.537 605.452 354.74 606.079 355.447C606.711 356.16 608.209 358.179 608.21 361.328L597.21 361.331L586.21 361.333C586.211 365.422 588.149 368.386 589.621 370.046C591.088 371.699 592.766 372.851 594.071 373.626C596.708 375.192 599.923 376.435 603.047 377.455C609.448 379.545 617.924 381.469 626.86 383.177C644.863 386.617 666.314 389.474 680.568 391.057L681.783 380.125ZM597.21 361.331H608.21C608.21 361.621 608.233 361.036 608.498 358.637C608.724 356.601 609.061 353.773 609.503 350.211C610.384 343.095 611.665 333.189 613.254 321.128C616.432 297.013 620.835 264.377 625.729 228.438C635.515 156.564 647.26 71.5311 655.09 15.1546L644.195 13.6414L633.3 12.1281C625.468 68.5156 613.72 153.569 603.93 225.469C599.035 261.417 594.627 294.091 591.443 318.253C589.851 330.331 588.562 340.304 587.67 347.505C587.224 351.101 586.873 354.039 586.632 356.215C586.431 358.028 586.21 360.101 586.21 361.331H597.21ZM644.195 13.6414L641.527 24.3129L716.703 43.1069L719.371 32.4353L722.039 21.7637L646.863 2.96979L644.195 13.6414ZM546.218 210.667L537.629 217.538C543.597 224.998 552.652 237.675 560.154 251.104L569.757 245.739L579.36 240.374C571.17 225.713 561.398 212.032 554.808 203.795L546.218 210.667ZM569.757 245.739L560.154 251.104C567.945 265.049 572.916 277.833 572.916 286.155L583.916 286.155L594.916 286.155C594.915 271.643 587.235 254.469 579.361 240.374L569.757 245.739ZM583.916 286.155H572.916V371.228H583.916H594.916V286.155H583.916ZM583.916 371.228V360.228H545.328V371.228V382.228H583.916V371.228ZM545.328 371.228H556.328V362.064H545.328H534.328V371.228H545.328ZM545.328 362.064L541.307 351.825C533.961 354.71 521.824 358.565 508.976 360.862L510.912 371.69L512.848 382.519C527.307 379.934 540.842 375.643 549.348 372.303L545.328 362.064ZM510.912 371.69L508.976 360.862C495.406 363.288 482.679 363.669 473.972 360.767L470.494 371.203L467.015 381.638C481.106 386.335 498.341 385.112 512.847 382.519L510.912 371.69ZM470.494 371.203L473.972 360.767C464.468 357.599 459.303 349.715 457.456 340.478L446.67 342.635L435.883 344.793C438.782 359.287 447.893 375.264 467.015 381.638L470.494 371.203ZM446.67 342.635L457.456 340.478C456.533 335.863 456.556 331.306 457.206 327.623L446.374 325.712L435.541 323.8C434.407 330.226 434.433 337.542 435.883 344.793L446.67 342.635ZM446.374 325.712L457.206 327.623C457.528 325.799 457.979 324.333 458.444 323.262C458.927 322.147 459.295 321.759 459.283 321.771L451.505 313.993L443.726 306.215C438.997 310.945 436.613 317.726 435.541 323.8L446.374 325.712ZM451.505 313.993L459.283 321.771C462.943 318.111 468.952 314.015 475.347 310.817L470.427 300.978L465.508 291.14C457.747 295.021 449.562 300.379 443.726 306.215L451.505 313.993ZM470.427 300.978L475.347 310.817C482.073 307.454 487.294 306.053 489.445 306.052L489.444 295.052L489.443 284.052C481.954 284.053 472.906 287.44 465.508 291.14L470.427 300.978ZM489.444 295.052V306.052H526.533V295.052V284.052H489.444V295.052ZM526.533 295.052H537.533V276.971H526.533H515.533V295.052H526.533ZM526.533 276.971L534.17 269.054C528.921 263.991 516.364 256.861 498.841 256.861V267.861V278.861C510.671 278.861 517.751 283.784 518.896 284.888L526.533 276.971ZM498.841 267.861V256.861H470.342V267.861V278.861H498.841V267.861ZM470.342 267.861L480.174 262.928L480.035 262.651L470.204 267.585L460.372 272.518L460.511 272.794L470.342 267.861ZM470.204 267.585L480.042 262.665C477.239 257.058 473.996 248.391 473.09 240.752L462.167 242.049L451.243 243.345C452.548 254.339 456.873 265.52 460.365 272.504L470.204 267.585ZM462.167 242.049L473.09 240.753C472.639 236.955 472.86 234.126 473.44 232.288C473.923 230.757 474.526 230.178 475.347 229.768L470.427 219.929L465.508 210.091C450.931 217.38 450.046 233.253 451.243 243.344L462.167 242.049ZM470.427 219.929L475.347 229.768C488.613 223.135 503.218 221.479 508.24 221.479L508.24 210.479L508.24 199.479C500.612 199.479 482.479 201.605 465.508 210.091L470.427 219.929ZM508.24 210.479V221.479H546.068V210.479V199.479H508.24V210.479ZM546.068 210.479L537.487 217.362L537.638 217.549L546.218 210.667L554.799 203.784L554.649 203.597L546.068 210.479ZM124.388 285.121L113.473 286.485L122.871 361.662L133.786 360.298L144.701 358.933L135.303 283.756L124.388 285.121ZM133.786 360.298L122.869 361.647L122.911 361.986L133.828 360.637L144.745 359.289L144.703 358.949L133.786 360.298ZM133.828 360.637L131.16 371.309L131.492 371.392L134.16 360.72L136.828 350.049L136.496 349.966L133.828 360.637ZM134.16 360.72L131.492 371.392C138.635 373.178 149.847 374.814 160.721 373.8L159.7 362.847L158.679 351.895C150.93 352.617 142.29 351.415 136.828 350.049L134.16 360.72ZM159.7 362.847L160.721 373.8C170.976 372.844 185.008 369.068 191.552 355.981L181.714 351.061L171.875 346.142C170.659 348.573 166.993 351.12 158.679 351.895L159.7 362.847ZM181.714 351.061L191.552 355.981C196.896 345.292 199.814 334.142 199.814 323.822L188.814 323.822L177.814 323.822C177.814 330.129 175.983 337.925 171.875 346.142L181.714 351.061ZM188.814 323.822L199.814 323.822C199.814 313.579 196.886 303.209 189.398 295.722L181.62 303.5L173.842 311.278C175.993 313.429 177.814 317.445 177.814 323.822L188.814 323.822ZM181.62 303.5L189.398 295.721C180.465 286.789 164.59 277.959 158.219 274.773L153.299 284.612L148.38 294.451C154.548 297.535 167.616 305.053 173.842 311.278L181.62 303.5ZM153.299 284.612L158.219 274.773L158.113 274.721L153.194 284.559L148.275 294.398L148.38 294.451L153.299 284.612ZM153.194 284.559V273.559H124.318V284.559V295.559H153.194V284.559ZM124.318 284.559L113.403 285.926L113.474 286.488L124.388 285.121L135.303 283.754L135.233 283.193L124.318 284.559ZM1182.3 286.154L1182.3 275.154C1175.84 275.154 1166.4 277.002 1158.25 282.866C1149.55 289.134 1143.11 299.484 1143.11 314.345L1154.11 314.345L1165.11 314.345C1165.11 306.654 1168.07 302.909 1171.11 300.719C1174.71 298.126 1179.36 297.154 1182.3 297.154L1182.3 286.154ZM1154.11 314.345L1143.11 314.346C1143.11 328.968 1149.29 340.183 1156.7 347.995C1163.94 355.621 1172.59 360.292 1178.82 362.369L1182.3 351.933L1185.78 341.498C1182.61 340.442 1177.16 337.595 1172.66 332.848C1168.33 328.289 1165.11 322.276 1165.11 314.345L1154.11 314.345ZM1182.3 351.933L1182.3 362.933C1191.28 362.933 1199.36 358.184 1204.65 349.37C1209.63 341.078 1212.09 329.401 1212.09 314.345L1201.09 314.345L1190.09 314.345C1190.09 327.48 1187.86 334.597 1185.79 338.051C1184.03 340.984 1182.72 340.933 1182.3 340.933L1182.3 351.933ZM1201.09 314.345L1212.09 314.345C1212.09 300.999 1208.34 291.043 1202.12 284.319C1196.04 277.76 1188.38 275.154 1182.3 275.154L1182.3 286.154L1182.3 297.154C1182.27 297.154 1182.4 297.153 1182.64 297.205C1182.88 297.255 1183.19 297.345 1183.55 297.498C1184.25 297.798 1185.11 298.331 1185.97 299.266C1187.58 301 1190.09 305.14 1190.09 314.345L1201.09 314.345ZM527.033 323.743L527.033 312.743C521.839 312.743 513.857 313.244 506.847 314.926C503.425 315.747 499.39 317.042 495.956 319.261C492.536 321.47 487.842 325.934 487.841 333.138L498.841 333.139L509.841 333.141C509.841 336.587 507.497 337.996 507.895 337.739C508.279 337.491 509.53 336.907 511.981 336.319C516.717 335.182 522.83 334.743 527.033 334.743L527.033 323.743ZM498.841 333.139H487.841C487.841 340.841 493.236 346.043 496.493 348.576C500.33 351.561 505.033 353.846 509.458 355.321C513.721 356.742 518.971 357.828 523.842 357.287C526.277 357.017 529.711 356.22 532.742 353.766C536.228 350.945 538.033 346.854 538.033 342.537L527.033 342.537L516.033 342.537C516.033 341.725 516.192 340.63 516.738 339.454C517.29 338.264 518.08 337.33 518.901 336.666C519.682 336.034 520.388 335.725 520.794 335.583C521.003 335.51 521.164 335.47 521.262 335.448C521.36 335.427 521.413 335.422 521.413 335.421C521.414 335.421 521.376 335.426 521.296 335.428C521.217 335.43 521.105 335.43 520.961 335.424C520.667 335.411 520.28 335.375 519.804 335.301C518.839 335.151 517.677 334.871 516.416 334.45C513.793 333.576 511.449 332.338 510 331.211C509.283 330.653 509.096 330.363 509.16 330.457C509.229 330.559 509.841 331.504 509.841 333.139H498.841ZM527.033 342.537H538.033V323.743H527.033H516.033V342.537H527.033ZM908.548 267.358L908.548 256.358C891.449 256.358 878.757 264.195 878.755 276.753L889.755 276.755L900.755 276.757C900.754 279.388 899.404 280.183 899.788 279.917C900.173 279.649 902.426 278.358 908.549 278.358L908.548 267.358ZM889.755 276.755H878.755V295.549H889.755H900.755V276.755H889.755ZM889.755 295.549V306.549H917.946V295.549V284.549H889.755V295.549ZM917.946 295.549L928.382 299.027C930.206 293.552 932.159 284.621 930.943 276.333C930.319 272.082 928.707 266.966 924.739 262.828C920.503 258.41 914.789 256.358 908.549 256.358L908.548 267.358L908.548 278.358C909.825 278.358 909.436 278.655 908.861 278.055C908.553 277.735 908.938 277.905 909.176 279.526C909.683 282.984 908.818 288.148 907.51 292.07L917.946 295.549ZM152.76 130.599L154.235 119.699C148.833 118.968 142.704 118.937 136.773 119.228L137.311 130.215L137.849 141.201C143.145 140.942 147.773 141.025 151.286 141.5L152.76 130.599ZM137.311 130.215L136.773 119.228C124.849 119.812 112.044 121.788 103.836 123.43L105.993 134.217L108.15 145.003C115.636 143.506 127.315 141.717 137.849 141.201L137.311 130.215ZM105.993 134.217L103.822 123.433L103.366 123.525L105.537 134.308L107.707 145.092L108.163 145L105.993 134.217ZM105.537 134.308L94.6217 135.673L94.6793 136.134L105.594 134.769L116.509 133.405L116.452 132.944L105.537 134.308ZM105.594 134.769L94.6793 136.134L104.076 211.309L114.991 209.945L125.906 208.581L116.509 133.405L105.594 134.769ZM114.991 209.945L104.078 211.33L104.134 211.769L115.047 210.384L125.959 208.998L125.903 208.56L114.991 209.945ZM115.047 210.384V221.384H115.488V210.384V199.384H115.047V210.384ZM115.488 210.384L115.488 221.384C125.402 221.384 140.475 220.411 153.409 217.307L150.842 206.611L148.275 195.915C137.615 198.473 124.412 199.384 115.488 199.384L115.488 210.384ZM150.842 206.611L153.41 217.307C159.79 215.776 166.533 213.525 171.944 210.028L165.974 200.789L160.004 191.55C157.642 193.076 153.685 194.617 148.275 195.915L150.842 206.611ZM165.974 200.789L171.944 210.028C177.336 206.544 183.369 200.42 183.37 191.09L172.37 191.09L161.37 191.089C161.37 190.917 161.4 190.708 161.467 190.505C161.53 190.312 161.594 190.223 161.579 190.244C161.559 190.274 161.453 190.418 161.192 190.657C160.93 190.897 160.545 191.2 160.004 191.55L165.974 200.789ZM172.37 191.09H183.37C183.37 181.814 183.382 169.419 182.125 158.104L171.192 159.319L160.259 160.534C161.358 170.427 161.37 181.582 161.37 191.09H172.37ZM171.192 159.319L182.125 158.104C181.494 152.431 180.507 146.647 178.888 141.43L168.382 144.69L157.877 147.951C158.926 151.332 159.711 155.603 160.259 160.534L171.192 159.319ZM168.382 144.69L178.888 141.43C177.318 136.371 174.846 130.817 170.604 126.575L162.826 134.353L155.048 142.131C155.668 142.752 156.782 144.424 157.877 147.951L168.382 144.69ZM162.826 134.353L170.603 126.574C165.846 121.819 158.967 120.339 154.235 119.699L152.76 130.599L151.286 141.5C153.027 141.736 154.235 142.034 154.994 142.306C155.813 142.599 155.594 142.677 155.049 142.133L162.826 134.353Z" fill="#2176E4" mask="url(#path-1-outside-1_1206_8)"/>
</svg>
