<svg width="51" height="26" viewBox="0 0 51 26" fill="none" xmlns="http://www.w3.org/2000/svg">
<path d="M37.5441 3.15686L38.6542 1.83861C38.4692 1.59578 37.9395 1.03379 37.3012 0.72851C36.6629 0.423232 35.3932 0.555056 34.8382 0.659128C34.8035 0.670692 34.7827 0.700757 34.977 0.72851C35.2198 0.7632 35.983 1.49171 36.0871 1.63047C36.1703 1.74148 36.7924 2.69432 37.0931 3.15686H37.5441Z" fill="white"/>
<path d="M2.19422 3.50376C1.3894 2.14388 0.448122 1.6189 0.0780877 1.52639C-0.511654 1.24886 2.40236 1.04072 3.33901 0.901958C4.08833 0.790948 8.69294 1.20261 10.9016 1.42232C12.4858 1.58421 15.6958 1.91493 15.8624 1.94268C16.0289 1.97043 18.4757 1.86173 19.6783 1.80392C20.164 1.7461 21.2672 1.62352 21.7945 1.59577C22.4536 1.56108 25.6104 0.901958 27.2409 0.450979C28.5453 0.0901958 30.074 0 30.6753 0C31.5888 0.0809449 33.6795 0.416288 34.7341 1.1101C35.7887 1.80392 36.1448 2.67118 36.1911 3.01809H34.4219L32.8261 2.46304C31.982 2.30115 29.9121 1.97737 28.3857 1.97737C26.8593 1.97737 25.9689 2.13926 25.7145 2.2202L23.5984 2.67118C23.1011 2.79838 21.6141 3.15685 19.6436 3.57314C17.6732 3.98943 15.0992 4.32477 14.0584 4.44041L11.1444 4.54448C10.3118 4.57917 8.31366 4.66937 6.98154 4.75262C5.64941 4.83588 3.90563 5.22673 3.20025 5.41175C3.20025 5.34237 2.99904 4.86364 2.19422 3.50376Z" fill="white"/>
<path d="M10.077 15.5372C9.25744 13.8713 9.98315 11.8579 11.6771 11.0979L14.5026 9.8302C15.1997 9.51743 16.0089 9.9192 16.1812 10.6636L16.4697 11.9104C16.704 12.9231 16.2192 13.9653 15.2937 14.4385L11.9368 16.1546C11.2532 16.5041 10.4159 16.2261 10.077 15.5372Z" fill="white"/>
<path d="M17.4891 11.3713C17.1132 9.84373 17.9202 8.27273 19.3808 7.68849L20.9965 7.0422L23.4131 6.37493C24.5895 6.05012 25.7799 6.84543 25.9302 8.0565L26.0176 8.76094C26.1417 9.76114 25.5022 10.6974 24.5254 10.9456L22.0026 11.5867L19.5608 12.4765C18.679 12.7978 17.7133 12.2827 17.4891 11.3713Z" fill="white"/>
<path d="M27.4143 10.2684L26.8246 5.41175C31.2303 4.64855 36.0523 4.82201 37.093 4.82201C38.1338 4.82201 37.7522 10.095 36.0523 9.6787C34.6924 9.34567 29.727 9.9331 27.4143 10.2684Z" fill="white"/>
<path fill-rule="evenodd" clip-rule="evenodd" d="M39.3583 1.87329C40.3643 1.98893 42.564 2.27529 43.3134 2.49731C44.25 2.77483 46.1229 3.36521 46.8514 3.78149C47.58 4.19778 49.1417 4.99542 49.5233 5.65454C49.9049 6.31363 50.147 7.14622 49.8348 8.0481C49.5226 8.95005 48.3779 11.3438 48.2391 11.6907C48.1004 12.0376 47.858 13.1918 48.6903 13.7717C49.546 14.2574 51.2022 15.5968 50.9804 17.0676C50.7583 18.5385 48.9215 20.2711 48.0311 20.9534C46.9788 21.6935 44.7909 23.1454 44.4579 23.0344C44.1109 23.0922 43.2508 23.1732 42.5848 23.0344C41.9188 22.8957 40.2722 22.3523 39.5321 22.0979C39.1968 22.6182 38.1792 23.7348 36.7919 24.0403C35.0575 24.4219 33.2078 23.2776 32.8261 22.4104C32.6064 22.0404 32.3516 21.3142 32.3514 20.8147C32.3514 20.3161 32.3279 20.3287 32.3163 20.3977C29.6568 20.2821 24.151 20.2042 23.4013 20.8147C23.355 21.2542 23.172 22.2714 22.8114 22.8264C22.3604 23.5202 22.1172 24.5956 20.244 25.1506C18.7454 25.5947 17.1912 24.3643 16.6014 23.6936L16.0468 23.0002L12.9589 24.2483C12.4963 24.3408 11.4255 24.4501 10.8427 24.1448C10.1142 23.7632 8.96988 22.9304 8.5536 21.3694C8.13731 19.8083 8.31015 20.6059 7.99793 19.5305C7.68566 18.4548 6.81845 15.0217 6.67957 14.05C6.56857 13.2731 6.72573 12.8238 6.81824 12.6965L6.74891 12.5579C6.36716 12.4305 5.56283 12.0163 5.39637 11.3782C5.22995 10.7399 5.28079 9.95596 5.32703 9.6438C5.40802 9.35461 5.65333 8.61042 5.98621 7.94458C6.31919 7.27863 5.94015 5.90932 5.70887 5.30786C7.37418 5.15753 11.1625 4.87052 12.994 4.92603C14.8257 4.98141 18.4282 4.32484 20.0009 3.9895C21.7931 3.55013 25.655 2.6713 26.7655 2.67114C28.153 2.67114 31.518 2.63629 32.5243 3.08716C33.5303 3.53814 31.3103 3.01811 30.0614 3.33032C29.0624 3.58008 26.9857 3.87385 26.0721 3.9895C24.141 4.44048 19.4943 5.74509 16.3583 7.35474C13.2226 8.96419 12.577 9.25043 12.6464 9.19263L10.2528 10.5461C9.82486 10.8122 8.90684 11.4132 8.65711 11.6907C8.34491 12.0376 8.13665 12.4194 8.06727 12.801C8.01182 13.1064 8.04415 13.7148 8.06727 13.9807L8.93445 18.0735C9.23511 19.2067 9.88569 21.4941 10.08 21.5774C10.2744 21.6603 10.7391 21.3348 10.9472 21.1614L12.4042 20.2249L14.1386 19.2883L15.1093 18.802C15.1556 18.3857 15.4026 17.4357 15.8378 16.8254C16.3822 16.0623 16.6015 15.4722 18.2665 14.9866C19.9316 14.5009 21.4235 15.8536 21.7011 16.1311C21.9786 16.4086 22.9848 15.7496 26.8007 15.1946C29.8534 14.7506 33.0681 15.0096 34.2938 15.1946C34.7217 14.7205 35.8824 13.8281 37.1034 14.05C38.3245 14.2721 39.0928 14.7433 39.3241 14.9514C39.5207 15.0671 39.9618 15.4164 40.1561 15.8879C40.3504 16.3597 40.3993 16.64 40.3993 16.7209L42.6884 17.8313L44.5272 18.9407L46.2968 20.3977C46.8635 20.0507 48.163 19.1629 48.829 18.386C49.6616 17.4146 49.731 16.6513 49.5575 16.4084C49.3842 16.1656 49.4878 15.8185 47.8925 14.9514C46.616 14.2577 44.4702 12.9281 43.5565 12.3499L40.5038 10.8235C40.0875 10.6847 39.275 10.1363 39.3583 9.05396C39.4416 7.97174 39.6938 7.14591 39.8095 6.86841C39.9367 6.34794 40.2956 5.28018 40.7118 5.16919C41.2323 5.03051 42.5852 5.09994 44.7704 5.89771C46.5183 6.53585 47.9035 7.11133 48.3778 7.31958C48.4703 7.35427 48.6275 7.27096 48.5165 6.6604C48.4048 6.04978 45.8805 4.81029 44.6317 4.26685C43.9265 4.05873 42.2869 3.61525 41.371 3.50415C40.2277 3.36557 38.565 3.19174 38.4569 3.22583C38.3737 3.25358 39.0229 2.33588 39.3583 1.87329ZM21.1796 19.219C20.8531 17.6863 19.6624 16.641 18.5204 16.884C17.3783 17.1273 16.7164 18.567 17.0429 20.0999C17.3693 21.6325 18.56 22.6779 19.702 22.4348C20.8441 22.1916 21.5059 20.7517 21.1796 19.219ZM37.2606 15.72C36.1126 15.5065 34.9495 16.5825 34.663 18.1233C34.3766 19.6638 35.0749 21.0852 36.2225 21.2991C37.3705 21.5126 38.5335 20.4373 38.8202 18.8967C39.1068 17.3559 38.4087 15.9335 37.2606 15.72Z" fill="white"/>
</svg>
