<svg width="3287" height="3986" viewBox="0 0 3287 3986" fill="none" xmlns="http://www.w3.org/2000/svg">
<rect x="750.832" y="1205.59" width="229.82" height="500.548" rx="59" fill="#021F53"/>
<rect x="959.035" y="2172.48" width="350.418" height="367.144" rx="59" fill="#021F53"/>
<rect x="2304.96" y="1205.59" width="229.82" height="500.548" rx="59" fill="#021F53"/>
<rect x="1981.85" y="2227.21" width="350.418" height="312.415" rx="59" fill="#021F53"/>
<path d="M2167.12 754.076C2294.14 754.076 2397.12 857.051 2397.12 984.076V2289.92H888.498V984.076C888.498 857.051 991.473 754.076 1118.5 754.076H2167.12ZM1134.82 1886.29C1062.87 1886.29 1004.55 1944.74 1004.55 2016.85C1004.55 2088.95 1062.87 2147.4 1134.82 2147.4C1206.76 2147.4 1265.08 2088.95 1265.08 2016.85C1265.08 1944.74 1206.76 1886.29 1134.82 1886.29ZM2174.69 1886.29C2102.75 1886.29 2044.42 1944.74 2044.42 2016.85C2044.42 2088.95 2102.75 2147.4 2174.69 2147.4C2246.64 2147.4 2304.96 2088.95 2304.96 2016.85C2304.96 1944.74 2246.64 1886.29 2174.69 1886.29ZM1026.16 1706.14H1552.93V1089.29H1026.16V1706.14ZM1748.62 1706.14H2275.38V1089.29H1748.62V1706.14Z" fill="#021F53"/>
<path d="M1812.02 0C2626.09 0 3286.03 659.932 3286.03 1474V1819.18C3286.03 2633.25 2626.09 3293.18 1812.03 3293.18H1474C659.933 3293.18 0 2633.25 0 1819.18V1474C5.71738e-05 659.933 659.932 6.10813e-05 1474 0H1812.02ZM1433 503C918.823 503 502 919.823 502 1434V1860C502 2374.18 918.823 2791 1433 2791H1854C2368.18 2791 2785 2374.18 2785 1860V1434C2785 919.823 2368.18 503 1854 503H1433Z" fill="#021F53"/>
<path d="M1792.14 3865.12C1734.69 3921.12 1643.49 3922.42 1584.48 3868.09L621.836 2981.96C511.582 2880.47 600.553 2697.69 748.452 2721.84L1608.53 2862.29C1625.6 2865.08 1643.03 2864.91 1660.05 2861.8L2602.66 2689.24C2749.35 2662.38 2842.03 2841.81 2735.24 2945.9L1792.14 3865.12Z" fill="#021F53"/>
</svg>
