<svg width="3658" height="3658" viewBox="0 0 3658 3658" fill="none" xmlns="http://www.w3.org/2000/svg">
<rect x="869" y="1375.01" width="247.405" height="537.677" rx="59" fill="#2176E4"/>
<rect x="1093.13" y="2413.62" width="377.231" height="394.378" rx="59" fill="#2176E4"/>
<rect x="2542.04" y="1375.01" width="247.405" height="537.677" rx="59" fill="#2176E4"/>
<rect x="2194.21" y="2472.41" width="377.231" height="335.589" rx="59" fill="#2176E4"/>
<path d="M2411.25 890C2538.28 890 2641.25 992.975 2641.25 1120V2539.77H1017.2V1120C1017.2 992.975 1120.17 890 1247.2 890H2411.25ZM1282.36 2106.2C1204.91 2106.2 1142.12 2168.99 1142.12 2246.44C1142.13 2323.89 1204.91 2386.68 1282.36 2386.68C1359.81 2386.68 1422.6 2323.89 1422.6 2246.44C1422.6 2168.99 1359.81 2106.2 1282.36 2106.2ZM2401.81 2106.2C2324.36 2106.2 2261.57 2168.99 2261.57 2246.44C2261.57 2323.89 2324.36 2386.68 2401.81 2386.68C2479.26 2386.68 2542.04 2323.89 2542.04 2246.44C2542.04 2168.99 2479.26 2106.2 2401.81 2106.2ZM1165.4 1912.69H1732.47V1250.08H1165.4V1912.69ZM1943.13 1912.69H2510.2V1250.08H1943.13V1912.69Z" fill="#2176E4"/>
<path d="M1829 0C2839.13 0 3658 818.871 3658 1829C3658 2839.13 2839.13 3658 1829 3658C818.871 3658 0 2839.13 0 1829C0 818.871 818.871 0 1829 0ZM1829.5 345C1010.19 345 346 1009.19 346 1828.5C346 2647.81 1010.19 3312 1829.5 3312C2648.81 3312 3313 2647.81 3313 1828.5C3313 1009.19 2648.81 345 1829.5 345Z" fill="#2176E4"/>
<path d="M3094.18 752L564.178 2998.5" stroke="#2176E4" stroke-width="220" stroke-linecap="round"/>
</svg>
