<svg width="3192" height="3216" viewBox="0 0 3192 3216" fill="none" xmlns="http://www.w3.org/2000/svg">
<path d="M576.5 0C851.968 0 1082.31 193.206 1139.41 451.5H2371.89L2382.13 453.221C2488.46 471.085 2646.01 520.478 2779.82 614.763C2915.55 710.395 3039.69 862.859 3036.49 1081.82C3033.34 1296.93 2911.41 1453.51 2779.64 1556.4C2648.66 1658.68 2495.18 1719.01 2391.04 1744.44L2376.49 1748H836.642C765.612 1759.8 661.346 1794.79 577.225 1859.94C493.69 1924.64 433.317 2015.31 435.976 2148.52C438.696 2284.86 502.367 2380.8 587.139 2449.67C670.657 2517.51 771.205 2555.38 838.99 2569.5H2288.25V2171.72L3192 2693.5L2288.25 3215.28V2818.5H815.785L804.751 2816.5C703.504 2798.11 556.036 2745.21 430.138 2642.93C301.168 2538.16 191.505 2377.94 187.025 2153.48C182.484 1925.89 292.445 1765.56 424.752 1663.08C553.12 1563.66 705.217 1515.45 809.032 1500.3L817.969 1499H2345.75C2423.02 1478.11 2534.33 1432.03 2626.39 1360.15C2723.29 1284.48 2785.86 1191.47 2787.51 1078.18C2789.11 968.742 2730.75 884.788 2636.4 818.312C2544 753.202 2429.62 715.205 2350.57 700.5H1139.63C1082.9 959.295 852.323 1153 576.5 1153C258.108 1153 0 894.892 0 576.5C0 258.108 258.108 0 576.5 0ZM577 199C368.236 199 199 368.236 199 577C199 785.764 368.236 955 577 955C785.764 955 955 785.764 955 577C955 368.236 785.764 199 577 199Z" fill="white"/>
</svg>
