<svg width="3287" height="4203" viewBox="0 0 3287 4203" fill="none" xmlns="http://www.w3.org/2000/svg">
<rect x="750.834" y="1205.59" width="229.82" height="500.548" rx="59" fill="#24408E"/>
<rect x="959.037" y="2172.48" width="350.418" height="367.144" rx="59" fill="#24408E"/>
<rect x="2304.96" y="1205.59" width="229.82" height="500.548" rx="59" fill="#24408E"/>
<rect x="1981.85" y="2227.21" width="350.418" height="312.415" rx="59" fill="#24408E"/>
<path d="M2167.12 754.076C2294.14 754.076 2397.12 857.051 2397.12 984.076V2289.92H888.5V984.076C888.5 857.051 991.475 754.076 1118.5 754.076H2167.12ZM1134.82 1886.29C1062.87 1886.29 1004.55 1944.74 1004.55 2016.85C1004.55 2088.95 1062.87 2147.4 1134.82 2147.4C1206.76 2147.4 1265.09 2088.95 1265.09 2016.85C1265.09 1944.74 1206.76 1886.29 1134.82 1886.29ZM2174.69 1886.29C2102.75 1886.29 2044.42 1944.74 2044.42 2016.85C2044.42 2088.95 2102.75 2147.4 2174.69 2147.4C2246.64 2147.4 2304.96 2088.95 2304.96 2016.85C2304.96 1944.74 2246.64 1886.29 2174.69 1886.29ZM1026.16 1706.14H1552.93V1089.29H1026.16V1706.14ZM1748.62 1706.14H2275.38V1089.29H1748.62V1706.14Z" fill="#24408E"/>
<path d="M2355.03 0C2869.2 0.000252381 3286.03 416.823 3286.03 931V2362.18C3286.03 2876.36 2869.2 3293.18 2355.03 3293.18H931C416.823 3293.18 0 2876.36 0 2362.18V931.001C0 416.824 416.823 0 931 0H2355.03ZM1277.99 304.562C763.81 304.562 346.987 721.385 346.987 1235.56V1972.12C346.987 2486.29 763.809 2903.12 1277.99 2903.12H2008.89C2523.07 2903.12 2939.89 2486.29 2939.89 1972.12V1235.56C2939.89 721.385 2523.07 304.563 2008.89 304.562H1277.99Z" fill="#24408E"/>
<path d="M1755.22 4081C1697.77 4136.99 1606.57 4138.29 1547.56 4083.97L522.862 3140.71C412.608 3039.22 501.579 2856.44 649.478 2880.59L1569.22 3030.79C1586.3 3033.57 1603.73 3033.41 1620.75 3030.29L2626.15 2846.24C2772.84 2819.38 2865.52 2998.81 2758.72 3102.9L1755.22 4081Z" fill="#24408E"/>
</svg>
