<svg width="336" height="349" viewBox="0 0 336 349" fill="none" xmlns="http://www.w3.org/2000/svg">
<path d="M32.1724 88.2305H11.1121C4.97506 88.2305 0 93.3922 0 99.7596V174.513C0 180.88 4.97506 186.042 11.1121 186.042H32.1724C38.3094 186.042 43.2845 180.88 43.2845 174.513V99.7596C43.2845 93.3922 38.3094 88.2305 32.1724 88.2305Z" fill="#021F53"/>
<path d="M94.0988 277.17H50.325C44.188 277.17 39.2129 282.332 39.2129 288.699V337.384C39.2129 343.751 44.188 348.913 50.325 348.913H94.0988C100.236 348.913 105.211 343.751 105.211 337.384V288.699C105.211 282.332 100.236 277.17 94.0988 277.17Z" fill="#021F53"/>
<path d="M324.879 88.2305H303.819C297.682 88.2305 292.707 93.3922 292.707 99.7596V174.513C292.707 180.88 297.682 186.042 303.819 186.042H324.879C331.016 186.042 335.992 180.88 335.992 174.513V99.7596C335.992 93.3922 331.016 88.2305 324.879 88.2305Z" fill="#021F53"/>
<path d="M286.737 287.864H242.964C236.827 287.864 231.852 293.026 231.852 299.393V337.384C231.852 343.751 236.827 348.913 242.964 348.913H286.737C292.875 348.913 297.85 343.751 297.85 337.384V299.393C297.85 293.026 292.875 287.864 286.737 287.864Z" fill="#021F53"/>
<path d="M266.743 0C290.668 5.45147e-06 310.061 20.1222 310.061 44.944V300.118H25.9277V44.944C25.9277 20.1222 45.3219 0 69.2461 0H266.743ZM72.3193 221.246C58.7689 221.246 47.7843 232.667 47.7843 246.756C47.7843 260.845 58.7691 272.267 72.3193 272.267C85.8695 272.267 96.8542 260.845 96.8542 246.756C96.8542 232.667 85.8696 221.246 72.3193 221.246ZM268.17 221.246C254.619 221.246 243.635 232.667 243.635 246.756C243.635 260.845 254.619 272.267 268.17 272.267C281.721 272.267 292.706 260.845 292.706 246.756C292.706 232.667 281.721 221.246 268.17 221.246ZM51.8553 186.042H151.067V65.5047H51.8553V186.042ZM187.923 186.042H287.134V65.5047H187.923V186.042Z" fill="#021F53"/>
</svg>
