<svg width="291" height="218" viewBox="0 0 291 218" fill="none" xmlns="http://www.w3.org/2000/svg">
<path d="M214.155 18.0069L220.487 10.4875C219.432 9.10233 216.411 5.89669 212.77 4.15535C209.129 2.41402 201.886 3.16596 198.72 3.7596C198.522 3.82556 198.404 3.99705 199.512 4.15535C200.897 4.35323 205.25 8.50869 205.844 9.30021C206.319 9.93342 209.867 15.3685 211.582 18.0069H214.155Z" fill="#2176E4"/>
<path d="M12.516 19.9858C7.92525 12.2289 2.55613 9.23435 0.445419 8.70668C-2.91852 7.12364 13.7033 5.93637 19.046 5.14485C23.3202 4.51164 49.5854 6.85981 62.1837 8.11304C71.2201 9.03647 89.5306 10.9229 90.4804 11.0812C91.4302 11.2395 105.387 10.6195 112.247 10.2897C115.017 9.95991 121.31 9.26074 124.318 9.10243C128.077 8.90455 146.084 5.14485 155.385 2.57243C162.825 0.514485 171.545 0 174.975 0C180.186 0.461718 192.111 2.37455 198.127 6.33213C204.142 10.2897 206.174 15.2367 206.437 17.2155H196.346L187.243 14.0494C182.428 13.126 170.621 11.2791 161.915 11.2791C153.208 11.2791 148.129 12.2025 146.678 12.6643L134.607 15.2367C131.771 15.9622 123.289 18.007 112.049 20.3815C100.81 22.7561 86.127 24.6689 80.1907 25.3285L63.5688 25.9221C58.8197 26.12 47.4219 26.6345 39.8233 27.1094C32.2248 27.5843 22.2781 29.8138 18.2545 30.8691C18.2545 30.4734 17.1068 27.7426 12.516 19.9858Z" fill="#2176E4"/>
<path d="M57.4792 88.6254C52.8046 79.1228 56.9441 67.6382 66.6062 63.3031L83.7442 55.614C87.192 54.0672 91.194 56.0541 92.0459 59.7357L95.1621 73.2031C95.7826 75.8849 94.4987 78.645 92.0477 79.898L68.0881 92.1471C64.1887 94.1405 59.4123 92.555 57.4792 88.6254Z" fill="#2176E4"/>
<path d="M96.8521 53.0449C96.3756 51.1081 97.3988 49.1162 99.2507 48.3754L119.767 40.1691L144.05 33.4638C145.227 33.139 146.417 33.9343 146.567 35.1454L149.429 58.2066C149.553 59.2068 148.914 60.1431 147.937 60.3913L125.505 66.0912L104.25 73.8368C103.132 74.2443 101.907 73.5911 101.623 72.4355L96.8521 53.0449Z" fill="#2176E4"/>
<path d="M156.375 58.5723L153.011 30.8693C178.141 26.5159 205.647 27.5053 211.583 27.5053C217.519 27.5053 215.343 57.5829 205.647 55.2084C197.89 53.3087 169.567 56.6595 156.375 58.5723Z" fill="#2176E4"/>
<path d="M224.504 10.6855C230.242 11.3451 242.788 12.9807 247.062 14.2471C252.405 15.8301 263.091 19.1948 267.246 21.5693C271.401 23.9439 280.307 28.4943 282.483 32.2539C284.66 36.0136 286.045 40.7633 284.264 45.9082C282.483 51.0532 275.953 64.7068 275.161 66.6855C274.37 68.6646 272.985 75.2497 277.733 78.5576C282.614 81.3279 292.06 88.9664 290.794 97.3564C289.527 105.746 279.054 115.627 273.975 119.519C267.972 123.74 255.493 132.024 253.593 131.392C251.614 131.721 246.706 132.183 242.907 131.392C239.108 130.6 229.716 127.5 225.494 126.049C223.581 129.017 217.776 135.389 209.861 137.13C199.967 139.307 189.42 132.777 187.243 127.83C185.99 125.719 184.533 121.577 184.533 118.728C184.533 115.879 184.401 115.957 184.335 116.353C169.164 115.693 137.756 115.245 133.48 118.728C133.217 121.234 132.174 127.038 130.116 130.204C127.544 134.162 126.158 140.296 115.473 143.462C106.924 145.995 98.0592 138.977 94.6953 135.151L91.5292 131.194L73.9179 138.317C71.2793 138.845 65.1718 139.465 61.8476 137.724C57.6921 135.547 51.1625 130.798 48.788 121.894C46.4135 112.989 47.4028 117.54 45.622 111.406C43.8411 105.272 38.894 85.6812 38.1025 80.1406C37.4694 75.7087 38.3658 73.1496 38.8935 72.4238L38.498 71.6318C36.3212 70.9062 31.731 68.5452 30.7812 64.9043C29.8314 61.2635 30.1209 56.7919 30.3847 55.0107C30.8464 53.3618 32.2449 49.1137 34.1445 45.3145C36.0441 41.5152 33.8807 33.7053 32.5615 30.2754C42.0596 29.4179 63.6681 27.782 74.1161 28.0986C84.5642 28.4152 105.117 24.6687 114.088 22.7559C124.311 20.2494 146.341 15.2366 152.674 15.2363C160.589 15.2363 179.784 15.0389 185.522 17.6113C191.26 20.1836 178.596 17.2152 171.473 18.9961C165.774 20.4208 153.928 22.0963 148.717 22.7559C137.701 25.3283 111.199 32.7686 93.3105 41.9502C75.4242 51.1307 71.7428 52.7678 72.1376 52.4385L58.4843 60.1553C56.0438 61.6723 50.8066 65.1025 49.3818 66.6855C47.6009 68.6643 46.4133 70.8409 46.0175 73.0176C45.701 74.7589 45.8856 78.228 46.0175 79.7451L50.9648 103.095C52.6796 109.558 56.3857 122.604 57.4941 123.081C58.6022 123.556 61.2541 121.695 62.4413 120.706L70.7519 115.363L80.6464 110.021L86.1865 107.251C86.4503 104.876 87.8587 99.4535 90.3427 95.9717C93.4485 91.6183 94.6961 88.2537 104.194 85.4834C113.692 82.7135 122.201 90.4307 123.784 92.0137C125.367 93.5966 131.106 89.8369 152.872 86.6709C170.285 84.138 188.622 85.6155 195.614 86.6709C198.055 83.9665 204.677 78.8742 211.643 80.1406C218.608 81.4071 222.987 84.0989 224.307 85.2861C225.428 85.9458 227.948 87.9379 229.056 90.6289C230.164 93.3199 230.44 94.9162 230.44 95.3779L243.501 101.71L253.988 108.042L264.08 116.353C267.312 114.374 274.726 109.308 278.525 104.876C283.274 99.3354 283.67 94.9818 282.681 93.5967C281.691 92.2115 282.285 90.2329 273.183 85.2861C265.901 81.3286 253.658 73.7433 248.447 70.4453L231.034 61.7383C228.66 60.9467 224.029 57.8201 224.504 51.6465C224.979 45.4727 226.417 40.7627 227.077 39.1797C227.803 36.2113 229.847 30.1176 232.222 29.4844C235.19 28.6929 242.907 29.0886 255.373 33.6396C265.346 37.2806 273.249 40.5657 275.953 41.7529C276.481 41.9505 277.377 41.4749 276.744 37.9932C276.111 34.5105 261.706 27.439 254.582 24.3389C250.558 23.1516 241.205 20.6196 235.981 19.9863C229.451 19.1948 219.953 18.2054 219.359 18.4033C218.886 18.5595 222.591 13.3235 224.504 10.6855ZM120.809 109.626C118.946 100.883 112.155 94.9192 105.641 96.3066C99.1259 97.6941 95.3547 105.907 97.2167 114.65C99.0789 123.394 105.869 129.356 112.384 127.969C118.898 126.581 122.67 118.369 120.809 109.626ZM212.54 89.668C205.991 88.4501 199.358 94.5872 197.724 103.376C196.089 112.165 200.073 120.276 206.621 121.494C213.169 122.712 219.803 116.575 221.437 107.786C223.072 98.9975 219.088 90.886 212.54 89.668Z" fill="#2176E4"/>
<path d="M226.638 184.517C233.337 183.541 237.68 187.356 238.719 195.74C239.799 204.07 237.484 209.581 229.767 210.538C222.002 211.5 218.853 205.602 217.985 198.6C217.117 191.598 219.886 185.45 226.638 184.517ZM229.01 199.362C233.059 198.86 232.329 191.018 228.507 191.395C224.362 191.909 224.866 199.875 229.01 199.362Z" fill="#2176E4"/>
<path d="M203.52 183.469C204.289 183.464 205.062 183.412 205.823 183.551C206.539 183.639 207.213 183.629 207.929 183.717C208.264 183.736 208.603 183.707 208.922 184.014C208.985 184.594 208.902 185.214 208.867 185.837C208.835 186.412 208.755 186.985 208.816 187.613C208.922 187.427 209.026 187.289 209.13 187.15C209.655 186.362 210.225 185.625 210.889 184.941C211.446 184.444 212 183.994 212.69 183.697C214.021 183.099 214.964 183.44 215.77 184.495C215.99 184.844 216.211 185.193 216.381 185.587C217.28 187.561 217.742 189.606 217.62 191.762C217.527 192.574 217.484 193.341 217.387 194.201C217.147 194.188 217.001 194.227 216.809 194.217C215.995 194.171 215.228 194.128 214.41 194.13C213.739 194.092 213.114 194.105 212.44 194.115C212.4 193.969 212.315 193.772 212.323 193.628C212.308 193.05 212.289 192.52 212.274 191.942L212.105 189.817C212.065 189.671 212.025 189.525 211.94 189.327C211.855 189.13 211.618 189.069 211.416 189.25C211.264 189.386 211.061 189.566 210.904 189.798C210.694 190.123 210.48 190.495 210.267 190.868C209.454 192.505 208.928 194.158 208.493 195.912C208.13 197.238 207.86 198.617 207.638 199.999C207.504 200.664 207.467 201.335 207.429 202.006L207.308 204.163C207.161 204.203 207.063 204.245 206.919 204.237L202.941 204.013C202.702 204 202.414 203.984 202.233 203.781C202.061 202.569 203.154 184.843 203.52 183.469Z" fill="#2176E4"/>
<path d="M200.839 193.517C200.527 193.746 200.241 193.779 199.913 193.865C198.202 194.111 196.448 194.409 194.689 194.66C193.55 194.84 192.411 195.019 191.278 195.247C191.001 196.197 191.105 197.103 191.358 198.04C191.45 198.416 191.595 198.834 191.782 199.199C192.332 200.199 193.25 200.624 194.342 200.45C195.38 200.234 196.247 199.796 196.933 199.04C197.487 198.397 197.988 197.711 198.542 197.067C198.669 196.908 198.79 196.7 198.964 196.535C199.443 196.915 201.87 199.535 202.222 200.074C201.311 201.387 200.298 202.663 199.062 203.675C197.741 204.794 196.222 205.452 194.506 205.65C193.504 205.765 192.551 205.875 191.559 205.651C189.33 205.183 187.687 203.923 186.593 201.971C186.054 201.067 185.742 200.04 185.473 198.959C184.448 194.68 185.1 190.692 187.481 187.035C188.134 185.994 189.053 185.163 190.09 184.512C190.581 184.166 191.137 183.957 191.751 183.837C193.732 183.416 195.599 183.684 197.363 184.737C198.038 185.143 198.575 185.612 199.028 186.188C199.668 187.129 200.17 188.134 200.398 189.268C200.684 190.491 200.779 191.736 200.874 192.982C200.89 193.125 200.865 193.321 200.839 193.517ZM195.669 190.585C195.594 190.352 195.572 190.162 195.503 189.976C195.369 189.654 195.187 189.336 195.006 189.019C194.392 187.882 192.88 187.766 192.037 188.83C191.626 189.457 191.31 190.073 191.106 190.821C191.075 190.97 191.092 191.113 191.066 191.309C192.634 191.08 194.149 190.809 195.669 190.585Z" fill="#2176E4"/>
<path d="M169.094 196.848C166.947 196.492 164.917 196.217 162.761 195.924C162.718 196.242 162.62 196.487 162.586 196.74C162.397 198.136 162.262 199.603 162.137 201.007L161.947 202.402C161.685 202.431 161.486 202.469 161.296 202.443C159.719 202.164 158.079 201.877 156.493 201.662C155.677 201.487 154.853 201.376 154.037 201.2L149.877 200.443C149.848 200.18 149.819 199.918 149.845 199.728C150.628 191.567 151.729 183.449 153.028 175.294C153.86 170.111 154.755 164.936 155.334 159.718C155.523 158.323 155.784 156.873 156.036 155.487C156.054 155.36 156.126 155.305 156.151 155.115C156.405 155.149 156.667 155.12 156.921 155.154L160.726 155.67C162.511 155.848 164.232 156.016 165.944 156.248C166.333 156.237 166.768 156.36 167.212 156.42C167.241 156.683 167.279 156.881 167.253 157.072C167.076 158.856 166.962 160.649 166.73 162.361C166.019 168.078 165.254 173.722 164.489 179.367L163.691 186.686C163.656 186.939 163.694 187.138 163.668 187.328C163.786 187.409 163.905 187.49 164.031 187.507L169.739 188.281C169.866 188.298 170.065 188.26 170.264 188.223L170.413 187.597C170.863 184.752 171.377 181.915 171.764 179.061C172.438 174.567 173.057 170.001 173.667 165.498C173.92 164.111 174.173 162.725 174.362 161.329C174.537 160.513 174.594 159.617 174.706 158.792C174.749 158.475 174.792 158.158 174.889 157.913C174.898 157.85 174.97 157.795 175.051 157.677C175.186 157.631 175.376 157.656 175.567 157.682C177.025 157.88 178.53 158.213 179.989 158.411L183.033 158.823C183.549 158.829 183.993 158.889 184.5 158.958C184.754 158.992 184.936 159.081 185.181 159.179C185.146 159.433 185.184 159.632 185.158 159.822C184.508 165.094 183.93 170.312 183.415 175.538C182.931 180.058 182.329 184.498 181.719 189.001C181.109 193.503 180.371 197.989 179.761 202.492L179.58 203.824C179.093 204.08 178.523 204.003 178.015 203.934C176.692 203.69 175.369 203.446 173.974 203.257C172.769 203.094 171.618 203.003 170.405 202.903L168.756 202.679C168.49 202.256 168.605 201.884 168.594 201.494C168.748 200.353 168.903 199.211 168.986 198.125C169.037 197.744 169.089 197.364 169.094 196.848Z" fill="#2176E4"/>
<path d="M140.699 191.806C140.889 190.311 140.07 188.802 138.76 188.414C138.275 188.286 137.744 188.208 137.264 188.224C136.158 188.166 135.064 188.491 134.017 188.766C133.731 188.824 133.494 188.928 133.208 188.985C132.952 188.514 132.511 185.407 132.259 183.638C132.353 183.587 132.492 183.438 132.635 183.386C133.998 182.523 135.464 181.849 137.086 181.506C140.611 180.667 143.724 181.811 145.793 184.767C146.799 186.125 147.428 187.689 147.867 189.307C148.364 191.212 148.526 193.175 148.498 195.193C148.474 195.914 148.5 196.682 148.476 197.403C148.477 198.844 148.236 200.245 148.042 201.596C147.997 201.694 147.949 201.695 147.904 201.793L147.477 201.952C146.329 202.086 145.231 202.268 144.084 202.45L143.317 202.476C143.075 202.436 142.926 202.297 142.87 202.059C142.814 201.821 142.758 201.583 142.653 201.298C142.462 201.352 142.318 201.357 142.224 201.408C141.276 201.777 140.328 202.145 139.33 202.467C138.24 202.888 137.143 203.117 135.998 203.348C135.091 203.522 134.175 203.409 133.298 203.054C132.278 202.705 131.485 201.963 131.017 200.922C130.603 200.024 130.282 199.074 130.154 198.118C130.021 197.018 130.273 195.952 130.816 194.974C131.862 193.209 133.363 192.15 135.365 191.698C136.888 191.311 138.43 191.451 139.976 191.735L140.557 191.859C140.605 191.858 140.651 191.808 140.699 191.806ZM141.262 195.678C141.065 195.54 140.966 195.447 140.869 195.403C139.704 195.058 138.657 195.333 137.72 196.037C137.206 196.439 136.939 197.072 137.059 197.789C137.128 198.411 137.624 198.874 138.248 198.853C138.583 198.842 138.916 198.734 139.197 198.533C140.232 197.874 140.97 196.984 141.262 195.678Z" fill="#2176E4"/>
<path d="M108.393 212.929C109.432 211.068 110.007 209.077 110.805 207.173C111.019 207.153 111.171 207.161 111.349 207.231C112.527 207.384 113.668 207.367 114.733 206.754C115.186 206.519 115.612 206.222 115.921 205.827C116.647 205.029 117.211 204.116 117.703 203.123C117.703 203.123 117.676 203.061 117.667 202.954L116.57 202.988C115.599 202.968 114.6 202.886 113.679 202.473C113.5 202.403 113.277 202.316 113.178 202.174C111.672 201.016 110.744 199.57 110.74 197.609C110.713 196.361 110.973 195.174 111.277 194.004C111.815 191.843 112.772 189.796 113.802 187.827C114.426 186.629 115.006 185.413 115.613 184.259C115.683 184.08 115.753 183.901 115.868 183.74C116.135 183.586 116.385 183.736 116.609 183.824L120.042 185.325C120.086 185.342 120.131 185.36 120.203 185.439C120.133 185.618 120.107 185.814 120.037 185.993C119.144 188.272 118.25 190.551 117.384 192.893C117.068 193.697 116.842 194.536 116.706 195.411C116.672 195.759 116.639 196.107 116.713 196.445C116.819 197.621 117.839 198.175 118.931 197.624C119.447 197.362 119.952 196.993 120.297 196.509C120.721 195.954 121.189 195.416 121.542 194.781C122.246 193.51 122.968 192.195 123.628 190.907C124.12 189.914 124.568 188.904 125.015 187.893C125.148 187.687 125.297 187.437 125.385 187.213C125.626 187.256 125.778 187.264 125.912 187.317C127.163 187.807 128.414 188.298 129.648 188.833L129.871 188.921C130.184 189.044 130.266 189.23 130.205 189.516L129.89 190.32C129.557 191.169 129.206 192.063 128.874 192.912L125.229 202.207C124.484 203.977 123.738 205.747 122.948 207.5C121.665 210.245 119.52 212.033 116.684 213.087C114.826 213.75 112.938 214.093 110.966 213.732C110.109 213.551 109.297 213.387 108.393 212.929Z" fill="#2176E4"/>
<path d="M101.764 181.805C114.91 186.985 110.623 212.299 89.5097 209.276L89.7453 210.505C89.7453 210.505 81.0289 209.462 75.336 209.526C73.3188 191.688 73.5472 178.329 71.4346 160.502C73.5548 160.455 78.6504 158.527 83.7368 157.372C106.86 152.535 107.569 179.313 101.764 181.805ZM85.8147 179.164C85.8147 179.164 93.1957 180.358 92.419 173.49C91.6315 166.527 84.5344 169.551 84.5344 169.551C84.5355 175.541 85.8147 179.164 85.8147 179.164ZM88.0585 199.006C88.0585 199.006 95.4502 200.295 94.6196 192.95C93.789 185.605 86.7135 188.82 86.7135 188.82C86.7577 195.192 88.0585 199.006 88.0585 199.006Z" fill="#2176E4"/>
</svg>
