<svg xmlns="http://www.w3.org/2000/svg" xmlns:xlink="http://www.w3.org/1999/xlink" width="500" zoomAndPan="magnify" viewBox="0 0 375 374.999991" height="500" preserveAspectRatio="xMidYMid meet" version="1.0"><defs><clipPath id="bd3abf9fad"><path d="M 11.261719 11.261719 L 363.761719 11.261719 L 363.761719 363.761719 L 11.261719 363.761719 Z M 11.261719 11.261719 " clip-rule="nonzero"/></clipPath></defs><g clip-path="url(#bd3abf9fad)"><path fill="#021f53" d="M 187.496094 11.261719 C 90.160156 11.261719 11.261719 90.160156 11.261719 187.496094 C 11.261719 284.824219 90.160156 363.726562 187.496094 363.726562 C 284.820312 363.726562 363.726562 284.824219 363.726562 187.496094 C 363.726562 90.160156 284.824219 11.261719 187.496094 11.261719 Z M 109.511719 227.777344 C 113.1875 234.902344 110.386719 243.65625 103.261719 247.332031 C 101.136719 248.425781 98.863281 248.949219 96.625 248.949219 C 91.363281 248.949219 86.289062 246.078125 83.710938 241.082031 C 60.496094 196.039062 68.988281 141.6875 104.84375 105.832031 C 120.296875 90.378906 139.335938 79.804688 160.351562 74.90625 L 163.628906 45.996094 L 233.449219 97.613281 L 153.839844 132.277344 L 156.789062 106.273438 C 145.074219 110.582031 134.390625 117.328125 125.363281 126.355469 C 98.476562 153.242188 92.105469 194.003906 109.511719 227.777344 Z M 270.152344 271.128906 C 254.691406 286.585938 235.652344 297.15625 214.640625 302.058594 L 211.363281 330.96875 L 141.542969 279.347656 L 221.144531 244.679688 L 218.195312 270.683594 C 229.90625 266.382812 240.59375 259.632812 249.625 250.601562 C 276.511719 223.710938 282.882812 182.949219 265.472656 149.179688 C 261.796875 142.054688 264.601562 133.300781 271.726562 129.632812 C 278.84375 125.957031 287.597656 128.753906 291.277344 135.882812 C 314.488281 180.917969 306 235.269531 270.152344 271.128906 Z M 270.152344 271.128906 " fill-opacity="1" fill-rule="nonzero"/></g></svg>