<svg width="46" height="20" viewBox="0 0 46 20" fill="none" xmlns="http://www.w3.org/2000/svg">
<path d="M38 0C42.4183 4.50979e-07 46 3.58172 46 8C46 12.4183 42.4183 16 38 16H10.5889L3.5752 19.5898C2.8704 19.9504 2.04631 19.3883 2.125 18.6006L2.59668 13.8984C1.00102 12.4359 0 10.3351 0 8C0 3.58172 3.58172 8.0532e-08 8 0H38Z" fill="white"/>
<path d="M9.68652 10.9951L9.0127 8.43652C8.96712 8.27051 8.92318 8.08659 8.88086 7.88477C8.83854 7.68294 8.80111 7.49251 8.76855 7.31348C8.73926 7.13444 8.71647 6.99609 8.7002 6.89844H8.66602C8.65299 6.99609 8.63021 7.13444 8.59766 7.31348C8.5651 7.49251 8.52604 7.6862 8.48047 7.89453C8.43815 8.10286 8.39095 8.2998 8.33887 8.48535L7.66504 10.9951H5.99023L4.51562 5.64844H6.07324L6.60547 7.96289C6.64453 8.12565 6.68197 8.30957 6.71777 8.51465C6.75684 8.71973 6.79102 8.9248 6.82031 9.12988C6.84961 9.33171 6.86914 9.51074 6.87891 9.66699H6.91797C6.93099 9.514 6.9554 9.33171 6.99121 9.12012C7.03027 8.90527 7.06934 8.70182 7.1084 8.50977C7.15072 8.31445 7.18327 8.17285 7.20605 8.08496L7.8457 5.64844H9.56934L10.1748 8.10449C10.2074 8.2347 10.2432 8.39258 10.2822 8.57812C10.3245 8.76367 10.362 8.95247 10.3945 9.14453C10.4303 9.33659 10.4564 9.50911 10.4727 9.66211H10.5068C10.5231 9.50911 10.5443 9.33171 10.5703 9.12988C10.5996 8.9248 10.6322 8.71973 10.668 8.51465C10.707 8.30632 10.7461 8.1224 10.7852 7.96289L11.3516 5.64844H12.8701L11.3857 10.9951H9.68652ZM16.1221 5.56055C16.7699 5.56055 17.2679 5.72005 17.6162 6.03906C17.9678 6.35482 18.1436 6.82357 18.1436 7.44531V11H17.0596L16.7568 10.2773H16.7178C16.4997 10.5638 16.2686 10.7721 16.0244 10.9023C15.7803 11.0326 15.4434 11.0977 15.0137 11.0977C14.5612 11.0977 14.1836 10.9593 13.8809 10.6826C13.5814 10.4059 13.4316 9.98275 13.4316 9.41309C13.4316 8.85319 13.6253 8.43164 14.0127 8.14844C14.4001 7.86523 14.9714 7.71061 15.7266 7.68457L16.5859 7.65527V7.49902C16.5859 7.19303 16.5208 6.97819 16.3906 6.85449C16.2604 6.73079 16.083 6.66895 15.8584 6.66895C15.6403 6.66895 15.4059 6.70801 15.1553 6.78613C14.9046 6.861 14.6589 6.9554 14.418 7.06934L13.9639 6.03418C14.2438 5.88444 14.5645 5.76888 14.9258 5.6875C15.2871 5.60286 15.6859 5.56055 16.1221 5.56055ZM16.5908 8.53906L16.1025 8.55859C15.6989 8.57487 15.4173 8.64974 15.2578 8.7832C15.1016 8.91667 15.0234 9.10384 15.0234 9.34473C15.0234 9.56608 15.0788 9.72884 15.1895 9.83301C15.3034 9.93392 15.4515 9.98438 15.6338 9.98438C15.904 9.98438 16.1302 9.89648 16.3125 9.7207C16.498 9.54492 16.5908 9.2959 16.5908 8.97363V8.53906ZM20.5312 3.54883C20.7689 3.54883 20.9756 3.60091 21.1514 3.70508C21.3271 3.80599 21.415 3.99805 21.415 4.28125C21.415 4.55794 21.3271 4.75 21.1514 4.85742C20.9756 4.96159 20.7689 5.01367 20.5312 5.01367C20.2839 5.01367 20.0739 4.96159 19.9014 4.85742C19.7288 4.75 19.6426 4.55794 19.6426 4.28125C19.6426 3.99805 19.7288 3.80599 19.9014 3.70508C20.0739 3.60091 20.2839 3.54883 20.5312 3.54883ZM19.7402 5.65332H21.3027V11H19.7402V5.65332ZM25.0674 9.87695C25.2106 9.87695 25.3424 9.8623 25.4629 9.83301C25.5866 9.80046 25.7103 9.76302 25.834 9.7207V10.8438C25.6647 10.9154 25.4824 10.9756 25.2871 11.0244C25.0951 11.0732 24.8509 11.0977 24.5547 11.0977C24.2552 11.0977 23.9899 11.0456 23.7588 10.9414C23.5277 10.8372 23.347 10.6549 23.2168 10.3945C23.0898 10.1341 23.0264 9.77116 23.0264 9.30566V6.80566H22.4453V6.16113L23.1729 5.6582L23.5781 4.53027H24.5986V5.65332H25.7705V6.80566H24.5986V9.21289C24.5986 9.6556 24.7549 9.87695 25.0674 9.87695ZM27.8359 3.54883C28.0736 3.54883 28.2803 3.60091 28.4561 3.70508C28.6318 3.80599 28.7197 3.99805 28.7197 4.28125C28.7197 4.55794 28.6318 4.75 28.4561 4.85742C28.2803 4.96159 28.0736 5.01367 27.8359 5.01367C27.5885 5.01367 27.3786 4.96159 27.2061 4.85742C27.0335 4.75 26.9473 4.55794 26.9473 4.28125C26.9473 3.99805 27.0335 3.80599 27.2061 3.70508C27.3786 3.60091 27.5885 3.54883 27.8359 3.54883ZM27.0449 5.65332H28.6074V11H27.0449V5.65332ZM33.3584 5.55566C33.9411 5.55566 34.4049 5.71191 34.75 6.02441C35.0951 6.33366 35.2676 6.83171 35.2676 7.51855V11H33.7148V7.91406C33.7148 7.53646 33.6481 7.25163 33.5146 7.05957C33.3844 6.86751 33.1745 6.77148 32.8848 6.77148C32.4583 6.77148 32.167 6.92285 32.0107 7.22559C31.8577 7.52507 31.7812 7.95638 31.7812 8.51953V11H30.2188V5.65332H31.415L31.6299 6.36621H31.6934C32.0482 5.82585 32.6032 5.55566 33.3584 5.55566ZM38.6904 5.55566C39.0778 5.55566 39.4049 5.62728 39.6719 5.77051C39.9421 5.91048 40.165 6.09603 40.3408 6.32715H40.3848L40.5215 5.65332H41.8447V11.0342C41.8447 11.7894 41.612 12.3623 41.1465 12.7529C40.6842 13.1468 39.9681 13.3438 38.998 13.3438C38.5553 13.3438 38.1598 13.3193 37.8115 13.2705C37.4665 13.2217 37.1426 13.1387 36.8398 13.0215V11.7227C37.1589 11.8594 37.4811 11.9619 37.8066 12.0303C38.1354 12.0986 38.5163 12.1328 38.9492 12.1328C39.3854 12.1328 39.7174 12.0433 39.9453 11.8643C40.1764 11.6852 40.292 11.4329 40.292 11.1074V10.9756C40.292 10.8942 40.2969 10.79 40.3066 10.6631C40.3164 10.5361 40.3278 10.4189 40.3408 10.3115H40.2822C40.126 10.5426 39.916 10.7314 39.6523 10.8779C39.3919 11.0244 39.0664 11.0977 38.6758 11.0977C38.0182 11.0977 37.4925 10.86 37.0986 10.3848C36.7048 9.90951 36.5078 9.22591 36.5078 8.33398C36.5078 7.44531 36.7064 6.76009 37.1035 6.27832C37.5007 5.79655 38.0296 5.55566 38.6904 5.55566ZM39.1934 6.76172C38.8385 6.76172 38.5684 6.89844 38.3828 7.17188C38.1973 7.44206 38.1045 7.83594 38.1045 8.35352C38.1045 8.88086 38.1973 9.26986 38.3828 9.52051C38.5684 9.77116 38.8467 9.89648 39.2178 9.89648C39.641 9.89648 39.9404 9.78581 40.1162 9.56445C40.2952 9.3431 40.3848 8.99805 40.3848 8.5293V8.31445C40.3848 7.79688 40.2952 7.40951 40.1162 7.15234C39.9404 6.89193 39.6328 6.76172 39.1934 6.76172Z" fill="#2176E4"/>
</svg>
