<svg width="419" height="480" viewBox="0 0 419 480" fill="none" xmlns="http://www.w3.org/2000/svg">
<circle cx="345.675" cy="157.126" r="73.3248" fill="#83B9FF"/>
<path d="M275.191 437.064C263.397 462.375 238.778 479.787 210.317 479.787C181.856 479.787 157.237 462.375 145.443 437.064H275.191ZM228.388 3.28613C230.031 3.83383 235.289 7.55836 243.176 18.0742C251.062 28.5894 251.939 35.5998 251.392 37.791V62.4375C257.506 64.4756 271.627 70.7625 288.746 81.9717C266.054 99.1872 251.398 126.443 251.397 157.123C251.397 209.19 293.606 251.398 345.673 251.398C348.64 251.398 351.575 251.258 354.473 250.99C354.587 255.892 354.727 260.958 354.907 266.183C356.222 304.303 388.317 352.172 404.2 371.342C409.13 376.271 418.988 388.102 418.988 395.988C418.988 403.875 411.32 408.037 407.486 409.133H11.502C7.66811 408.037 0.000257149 403.875 0 395.988C0 388.101 9.85873 376.271 14.7881 371.342C30.6714 352.172 62.7666 304.303 64.0811 266.183C65.7241 218.533 64.0815 184.028 69.0107 167.597C73.9401 151.166 80.5125 119.946 111.731 95.2998C136.706 75.5827 159.381 65.176 167.597 62.4375V37.791C167.049 35.5999 167.926 28.5896 175.812 18.0742C183.699 7.55912 188.956 3.83418 190.6 3.28613L202.102 0H216.886L228.388 3.28613ZM209.493 28.0537C204.926 28.819 197.173 31.6091 197.173 37.791V57.5088H221.815V37.791C221.815 31.6084 214.06 28.8187 209.493 28.0537Z" fill="#F3F3F3"/>
</svg>
