<svg xmlns="http://www.w3.org/2000/svg" xmlns:xlink="http://www.w3.org/1999/xlink" width="500" zoomAndPan="magnify" viewBox="0 0 375 374.999991" height="500" preserveAspectRatio="xMidYMid meet" version="1.0"><defs><clipPath id="bac3b4a4ee"><path d="M 8.5625 16.042969 L 366.3125 16.042969 L 366.3125 358.792969 L 8.5625 358.792969 Z M 8.5625 16.042969 " clip-rule="nonzero"/></clipPath><clipPath id="f555339677"><path d="M 53.023438 63.148438 L 322 63.148438 L 322 321 L 53.023438 321 Z M 53.023438 63.148438 " clip-rule="nonzero"/></clipPath></defs><g clip-path="url(#bac3b4a4ee)"><path fill="#021f53" d="M 187.496094 278.4375 L 298.117188 358.945312 L 255.777344 228.941406 L 366.402344 150.222656 L 230.730469 150.222656 L 187.496094 16.042969 L 144.261719 150.222656 L 8.589844 150.222656 L 119.214844 228.941406 L 77.019531 358.945312 Z M 187.496094 278.4375 " fill-opacity="1" fill-rule="nonzero"/></g><g clip-path="url(#f555339677)"><path fill="#ffffff" d="M 187.496094 260.339844 L 270.632812 320.84375 L 238.8125 223.144531 L 321.945312 163.984375 L 219.988281 163.984375 L 187.496094 63.148438 L 155.003906 163.984375 L 53.046875 163.984375 L 136.183594 223.144531 L 104.476562 320.84375 Z M 187.496094 260.339844 " fill-opacity="1" fill-rule="nonzero"/></g></svg>