<svg width="436" height="583" viewBox="0 0 436 583" fill="none" xmlns="http://www.w3.org/2000/svg">
<path d="M218 0C338.398 0 436 97.6019 436 218C436 270.516 417.429 318.694 386.498 356.328C379.678 369.294 372.661 382.655 367.693 392.399L318.28 466.52L270.32 524.653L219.301 581.342V582.786L218.65 582.063L218.001 582.786V581.342L166.98 524.653L119.021 466.52L69.6074 392.399C65.4071 384.16 59.7435 373.011 53.9707 361.595C20.3675 323.241 0 272.999 0 218C0 97.602 97.6021 0.000164975 218 0ZM218.001 58.1338C129.709 58.1338 58.1348 129.708 58.1348 218C58.1348 306.292 129.709 377.866 218.001 377.866C306.293 377.866 377.868 306.292 377.868 218C377.868 129.708 306.293 58.1338 218.001 58.1338Z" fill="black"/>
<path d="M218 89.2759C238.762 89.2759 281.739 89.6911 287.552 91.3521C294.819 93.4283 303.124 99.6569 310.39 109C316.204 116.474 319.041 124.572 319.733 127.686V145.333C321.809 144.987 328.245 145.541 337.381 150.524C346.516 155.507 348.8 164.365 348.8 168.171V199.314C348.8 201.39 345.685 205.542 339.457 205.542C334.474 205.542 331.152 201.39 330.114 199.314V172.324C330.114 165.68 323.193 165.403 319.733 166.095C320.079 189.971 320.564 243.33 319.733 265.752C318.903 288.175 306.93 300.009 301.048 303.124V324.923C301.048 335.719 294.127 337.727 290.667 337.381H263.676C251.219 337.381 250.872 320.079 252.257 311.428H183.743C185.127 320.079 184.781 337.38 172.324 337.38H145.333C141.872 337.726 134.952 335.719 134.952 324.923V303.124C129.069 300.009 117.097 288.175 116.266 265.752C115.436 243.33 115.92 189.972 116.266 166.095C112.806 165.403 105.885 165.68 105.885 172.324V199.314C104.847 201.39 101.526 205.542 96.5427 205.542C90.3142 205.542 87.2 201.39 87.2 199.314V168.171C87.2 164.365 89.4839 155.507 98.6189 150.524C107.754 145.541 114.19 144.988 116.266 145.333V127.685C116.959 124.571 119.796 116.474 125.609 109C132.876 99.6567 141.181 93.4282 148.448 91.3521C154.263 89.6912 197.238 89.2759 218 89.2759ZM167.134 247.067C155.094 247.067 145.333 256.827 145.333 268.867C145.333 280.906 155.094 290.667 167.134 290.667C179.173 290.666 188.933 280.906 188.933 268.867C188.933 256.827 179.173 247.067 167.134 247.067ZM273.019 247.067C260.979 247.067 251.219 256.827 251.219 268.867C251.219 280.906 260.98 290.667 273.019 290.667C285.059 290.666 294.819 280.906 294.819 268.867C294.819 256.827 285.059 247.067 273.019 247.067ZM134.952 209.695H303.124V124.572H134.952V209.695Z" fill="black"/>
</svg>
